<?xml version="1.0" encoding="iso-8859-1"?>
<!-- Generator: Adobe Illustrator 19.0.0, SVG Export Plug-In . SVG Version: 6.00 Build 0)  -->
<svg version="1.1" id="Capa_1" xmlns="http://www.w3.org/2000/svg" xmlns:xlink="http://www.w3.org/1999/xlink" x="0px" y="0px"
	 viewBox="0 0 512 512" style="enable-background:new 0 0 512 512;" xml:space="preserve">
<g>
	<g>
		<path d="M471.243,40.063C444.231,13.05,407.2-1.142,366.969,0.072c-38.959,1.185-76.799,17.362-103.816,44.379
			c-10.177,10.177-20.218,21.985-29.845,35.097c-3.646,4.969,0.188,12.212,6.349,11.956l13.908-0.54l-1.912,49.17
			c-0.082,2.093,0.714,4.125,2.195,5.606s3.522,2.277,5.606,2.195l49.166-1.914l-1.912,49.169c-0.168,4.311,3.488,7.971,7.8,7.801
			l49.171-1.911l-1.912,49.17c-0.168,4.304,3.488,7.983,7.801,7.801l49.168-1.912l-0.651,16.754
			c-0.238,6.128,6.931,9.994,11.919,6.376c13.825-10.022,26.223-20.491,36.848-31.117c27.018-27.017,43.193-64.857,44.379-103.817
			C512.459,104.107,498.257,67.076,471.243,40.063z M496.212,143.88c-1.071,35.174-15.645,69.306-39.984,93.646
			c-6.757,6.757-14.292,13.463-22.503,20.032l0.349-8.951c0.168-4.308-3.488-7.975-7.801-7.801l-49.169,1.912l1.912-49.169
			c0.168-4.306-3.488-7.978-7.8-7.801l-49.171,1.911l1.912-49.169c0.168-4.31-3.489-7.972-7.801-7.801l-49.167,1.914l1.912-49.169
			c0.168-4.309-3.489-7.973-7.8-7.801l-5.969,0.231c6.126-7.546,12.367-14.501,18.65-20.786
			c24.339-24.339,58.472-38.913,93.646-39.984c36.058-1.092,69.138,11.545,93.189,35.595
			C484.667,74.741,497.309,107.836,496.212,143.88z"/>
	</g>
</g>
<g>
	<g>
		<path d="M270.068,172.715c-0.088-2.288-1.215-4.411-3.062-5.766c-39.719-29.158-87.317-51.718-130.593-61.895
			c-50.566-11.891-89.506-5.963-112.61,17.142C0.866,145.133-5.142,183.724,6.429,233.798
			c9.894,42.817,32.075,90.144,60.856,129.848c1.354,1.867,3.488,3.009,5.792,3.098l24.871,0.968
			c4.312,0.172,7.97-3.492,7.801-7.801l-1.913-49.169l49.17,1.913c4.312,0.171,7.97-3.49,7.801-7.801l-1.911-49.171l49.17,1.912
			c4.313,0.177,7.969-3.494,7.801-7.801l-1.914-49.166l49.169,1.912c4.312,0.177,7.969-3.493,7.801-7.8L270.068,172.715z
			 M206.418,185.294c-4.312-0.168-7.97,3.487-7.801,7.801l1.914,49.166l-49.169-1.912c-4.312-0.165-7.97,3.486-7.801,7.801
			l1.911,49.171l-49.168-1.912c-4.312-0.166-7.97,3.486-7.801,7.801l1.913,49.168l-13.082-0.509
			c-26.612-37.51-47.047-81.578-56.262-121.456c-10.195-44.122-5.451-78.781,13.359-97.59c18.957-18.958,53.953-23.625,98.54-13.139
			c40.329,9.484,84.677,30.282,122.218,57.258l0.399,10.263L206.418,185.294z"/>
	</g>
</g>
<g>
	<g>
		<path d="M334.784,340.164c-2.031-3.619-6.613-4.908-10.23-2.876c-3.619,2.031-4.908,6.611-2.877,10.23
			c14.651,26.11,22.394,47.127,22.394,60.78c0,48.894-39.779,88.673-88.673,88.673s-88.673-39.779-88.673-88.673
			c0-20.194,16.159-54.693,46.73-99.767c16.615-24.498,33.403-46.002,41.943-56.653c9.637,12.022,29.785,37.875,48.373,66.303
			c2.271,3.474,6.929,4.447,10.402,2.177c3.474-2.271,4.448-6.929,2.177-10.402c-25.964-39.706-54.895-74.458-55.184-74.804
			c-2.959-3.543-8.579-3.543-11.537,0c-3.999,4.789-97.934,117.931-97.934,173.145c0,57.182,46.521,103.702,103.702,103.702
			S359.1,465.479,359.1,408.298C359.1,391.611,351.147,369.324,334.784,340.164z"/>
	</g>
</g>
<g>
	<g>
		<path d="M255.398,368.72c-30.663,0-55.609,24.946-55.609,55.608s24.946,55.609,55.609,55.609s55.608-24.946,55.608-55.609
			S286.061,368.72,255.398,368.72z M255.398,464.908c-22.376,0-40.579-18.203-40.579-40.579s18.203-40.579,40.579-40.579
			s40.579,18.203,40.579,40.579S277.773,464.908,255.398,464.908z"/>
	</g>
</g>
<g>
</g>
<g>
</g>
<g>
</g>
<g>
</g>
<g>
</g>
<g>
</g>
<g>
</g>
<g>
</g>
<g>
</g>
<g>
</g>
<g>
</g>
<g>
</g>
<g>
</g>
<g>
</g>
<g>
</g>
</svg>
