<?xml version="1.0" encoding="iso-8859-1"?>
<!-- Generator: Adobe Illustrator 19.0.0, SVG Export Plug-In . SVG Version: 6.00 Build 0)  -->
<svg version="1.1" id="Capa_1" xmlns="http://www.w3.org/2000/svg" xmlns:xlink="http://www.w3.org/1999/xlink" x="0px" y="0px"
	 viewBox="0 0 512.002 512.002" style="enable-background:new 0 0 512.002 512.002;" xml:space="preserve">
<g>
	<g>
		<path d="M416.227,35.976c-1.76-3.813-6.277-5.473-10.091-3.714l-40.195,18.57l6.579-42.053c0.649-4.148-2.188-8.038-6.337-8.687
			c-4.151-0.648-8.038,2.189-8.687,6.337l-6.581,42.052l-32.6-29.961c-3.093-2.843-7.902-2.638-10.744,0.453
			c-2.842,3.092-2.639,7.903,0.453,10.744l40.065,36.82l-5.952,38.034l-32.601-29.961c-3.094-2.842-7.901-2.637-10.744,0.453
			c-2.842,3.092-2.639,7.903,0.453,10.744l40.065,36.821l-5.952,38.033L300.757,130.7c-3.093-2.843-7.902-2.638-10.744,0.453
			c-2.842,3.092-2.639,7.903,0.453,10.744l40.065,36.821l-5.952,38.033l-32.6-29.961c-3.093-2.842-7.901-2.637-10.744,0.453
			c-2.842,3.092-2.639,7.903,0.453,10.744l40.065,36.82l-5.952,38.034l-32.601-29.962c-3.094-2.843-7.901-2.638-10.744,0.453
			c-2.842,3.092-2.639,7.903,0.453,10.744l40.065,36.821l-12.065,77.1l-24.773-46.95c-1.959-3.714-6.557-5.135-10.273-3.176
			c-3.715,1.96-5.136,6.559-3.176,10.273l34.293,64.983l-17.228,110.098c-0.622,3.984,2.095,7.868,6.056,8.639
			c4.176,0.812,8.311-2.085,8.968-6.288l14.077-89.951l48.637,92.164c2.063,3.912,7.177,5.225,10.882,2.816
			c3.249-2.112,4.372-6.49,2.566-9.913l-58.152-110.199l15.217-97.246l49.398-22.822c3.812-1.761,5.474-6.278,3.714-10.091
			c-1.76-3.813-6.278-5.473-10.091-3.714l-40.195,18.57l5.952-38.033l49.399-22.822c3.812-1.761,5.474-6.278,3.714-10.091
			c-1.76-3.812-6.277-5.473-10.091-3.714l-40.195,18.57l5.952-38.035l49.398-22.822c3.812-1.761,5.474-6.278,3.714-10.091
			c-1.761-3.813-6.278-5.474-10.091-3.714l-40.195,18.57l5.952-38.033l49.398-22.822c3.812-1.761,5.474-6.278,3.714-10.091
			c-1.76-3.813-6.277-5.475-10.091-3.714l-40.195,18.57l5.952-38.034l49.399-22.822C416.325,44.307,417.988,39.789,416.227,35.976z"
			/>
	</g>
</g>
<g>
	<g>
		<path d="M267.035,202.276c-3.694-2.005-8.307-0.635-10.309,3.057l-21.12,38.917l-17.966-34.046l25.956-47.827
			c2.003-3.691,0.635-8.306-3.057-10.309c-3.693-2.006-8.307-0.635-10.309,3.057l-21.116,38.917l-17.968-34.046l25.955-47.828
			c2.003-3.691,0.635-8.306-3.057-10.309c-3.693-2.005-8.307-0.635-10.309,3.057l-21.119,38.917l-17.966-34.046l25.956-47.827
			c2.003-3.691,0.635-8.306-3.057-10.309c-3.694-2.005-8.308-0.635-10.309,3.057l-21.12,38.917l-19.865-37.645
			c-1.959-3.714-6.557-5.135-10.273-3.176c-3.715,1.96-5.136,6.559-3.176,10.273l19.866,37.645L98.626,96.19
			c-4.189-0.424-7.913,2.609-8.341,6.786c-0.429,4.177,2.608,7.912,6.786,8.341l54.131,5.564l17.967,34.046l-44.046-4.528
			c-4.193-0.425-7.913,2.608-8.341,6.786c-0.429,4.177,2.608,7.912,6.786,8.341l54.131,5.564l17.966,34.045l-44.046-4.528
			c-4.189-0.425-7.913,2.609-8.341,6.786c-0.429,4.177,2.608,7.912,6.786,8.341l54.131,5.564l17.966,34.045l-44.046-4.528
			c-4.192-0.424-7.913,2.609-8.341,6.786c-0.429,4.177,2.608,7.912,6.786,8.341l54.131,5.564l15.604,29.569
			c2.063,3.912,7.177,5.225,10.882,2.816c3.249-2.112,4.372-6.49,2.566-9.913l-15.604-29.57l25.955-47.827
			C272.095,208.894,270.727,204.28,267.035,202.276z"/>
	</g>
</g>
<g>
	<g>
		<path d="M175.778,312.081c-0.492-0.421-10.568-8.956-21.841-14.098c4.216-11.173,5.328-23.468,5.482-25.4
			c0.362-4.585-3.588-8.549-8.178-8.178c-1.931,0.152-14.227,1.265-25.402,5.483c-5.145-11.281-13.665-21.338-14.096-21.842
			c-2.989-3.503-8.577-3.501-11.565,0c-0.406,0.477-8.965,10.575-14.101,21.84c-11.173-4.216-23.466-5.327-25.397-5.481
			c-4.59-0.349-8.542,3.58-8.178,8.178c0.152,1.931,1.265,14.226,5.482,25.401c-11.278,5.144-21.34,13.668-21.842,14.097
			c-3.502,2.99-3.502,8.576,0,11.565c0.522,0.445,10.554,8.94,21.844,14.09c-4.219,11.176-5.332,23.476-5.484,25.408
			c-0.363,4.589,3.588,8.542,8.178,8.178c1.93-0.152,14.224-1.265,25.397-5.481c5.138,11.269,13.686,21.357,14.101,21.84
			c2.99,3.502,8.576,3.502,11.565,0c0.425-0.497,8.957-10.565,14.1-21.84c11.172,4.215,23.465,5.328,25.397,5.481
			c4.59,0.364,8.541-3.589,8.178-8.178c-0.152-1.93-1.264-14.222-5.48-25.395c11.269-5.138,21.358-13.689,21.84-14.102
			C179.278,320.656,179.28,315.07,175.778,312.081z M65.659,324.503c-4.074-1.695-8.324-4.221-11.915-6.643
			c3.466-2.352,7.714-4.903,11.914-6.638c0.171,0.184,0.339,0.372,0.515,0.548c2.428,2.428,5.52,4.435,8.901,6.093
			c-3.381,1.659-6.473,3.666-8.902,6.094C65.997,324.131,65.831,324.32,65.659,324.503z M89.112,346.894
			c-3.753,3.753-12.331,6.404-20.104,7.918c1.513-7.775,4.164-16.352,7.916-20.104c3.753-3.753,12.33-6.403,20.104-7.917
			C95.516,334.565,92.866,343.142,89.112,346.894z M76.927,301.016c-3.753-3.753-6.404-12.331-7.918-20.104
			c7.774,1.513,16.35,4.164,20.104,7.916c3.753,3.753,6.403,12.33,7.917,20.104C89.255,307.419,80.679,304.769,76.927,301.016z
			 M105.96,370.08c-2.348-3.463-4.902-7.708-6.643-11.915c0.183-0.172,0.373-0.34,0.549-0.516c2.428-2.428,4.434-5.52,6.093-8.901
			c1.659,3.381,3.666,6.474,6.094,8.902c0.175,0.175,0.364,0.342,0.546,0.513C110.861,362.366,108.311,366.614,105.96,370.08z
			 M112.052,278.076c-2.428,2.428-4.434,5.52-6.093,8.901c-1.659-3.381-3.666-6.474-6.094-8.902
			c-0.177-0.177-0.369-0.347-0.554-0.52c1.744-4.208,4.304-8.45,6.65-11.91c2.353,3.467,4.907,7.716,6.64,11.915
			C112.418,277.731,112.228,277.899,112.052,278.076z M122.804,288.83c3.753-3.753,12.331-6.404,20.104-7.918
			c-1.512,7.775-4.163,16.352-7.916,20.104c-3.753,3.753-12.33,6.403-20.104,7.917C116.401,301.159,119.051,292.582,122.804,288.83z
			 M122.805,346.896c-3.753-3.753-6.403-12.33-7.917-20.104c7.774,1.513,16.35,4.163,20.103,7.916
			c3.753,3.753,6.404,12.331,7.918,20.104C135.134,353.299,126.557,350.648,122.805,346.896z M146.261,324.505
			c-0.172-0.184-0.341-0.373-0.517-0.549c-2.428-2.428-5.52-4.435-8.901-6.093c3.381-1.659,6.473-3.666,8.902-6.094
			c0.175-0.175,0.342-0.363,0.512-0.545c4.206,1.739,8.453,4.289,11.918,6.638C154.713,320.208,150.469,322.763,146.261,324.505z"/>
	</g>
</g>
<g>
	<g>
		<path d="M273.102,433.735c-0.492-0.421-10.568-8.956-21.841-14.098c4.216-11.173,5.328-23.468,5.482-25.4
			c0.362-4.588-3.588-8.544-8.178-8.178c-1.931,0.152-14.227,1.265-25.402,5.483c-5.145-11.281-13.665-21.338-14.096-21.842
			c-2.989-3.503-8.577-3.501-11.565,0c-0.407,0.477-8.965,10.575-14.101,21.84c-11.173-4.216-23.466-5.327-25.397-5.481
			c-4.591-0.365-8.541,3.591-8.178,8.178c0.152,1.931,1.265,14.226,5.482,25.401c-11.279,5.144-21.34,13.668-21.842,14.097
			c-3.502,2.99-3.502,8.576,0,11.565c0.522,0.445,10.554,8.94,21.844,14.09c-4.219,11.176-5.332,23.476-5.484,25.408
			c-0.363,4.589,3.588,8.542,8.178,8.178c1.93-0.152,14.224-1.265,25.397-5.481c5.138,11.269,13.686,21.357,14.101,21.84
			c2.99,3.502,8.576,3.502,11.565,0c0.425-0.497,8.957-10.565,14.1-21.84c11.173,4.215,23.467,5.328,25.398,5.481
			c4.591,0.364,8.541-3.589,8.178-8.178c-0.152-1.93-1.264-14.221-5.48-25.395c11.269-5.138,21.358-13.689,21.84-14.102
			C276.603,442.311,276.605,436.725,273.102,433.735z M220.128,410.486c3.753-3.753,12.331-6.404,20.104-7.918
			c-1.512,7.775-4.163,16.352-7.916,20.104c-3.753,3.753-12.33,6.403-20.104,7.917C213.725,422.814,216.375,414.238,220.128,410.486
			z M162.984,446.158c-4.074-1.695-8.324-4.221-11.915-6.643c3.466-2.352,7.714-4.903,11.914-6.638
			c0.171,0.183,0.339,0.372,0.515,0.548c2.428,2.428,5.52,4.435,8.901,6.093c-3.381,1.659-6.473,3.666-8.902,6.094
			C163.321,445.787,163.155,445.975,162.984,446.158z M186.437,468.55c-3.753,3.753-12.331,6.404-20.104,7.918
			c1.513-7.775,4.164-16.352,7.916-20.104c3.753-3.753,12.33-6.403,20.104-7.917C192.84,456.221,190.19,464.798,186.437,468.55z
			 M174.251,422.671c-3.753-3.753-6.404-12.331-7.918-20.104c7.774,1.513,16.35,4.164,20.104,7.916
			c3.753,3.753,6.403,12.33,7.917,20.104C186.58,429.074,178.003,426.424,174.251,422.671z M203.284,491.735
			c-2.348-3.463-4.902-7.708-6.643-11.915c0.183-0.172,0.373-0.34,0.549-0.516c2.428-2.428,4.434-5.52,6.093-8.901
			c1.659,3.381,3.666,6.474,6.094,8.902c0.175,0.175,0.364,0.342,0.546,0.513C208.186,484.021,205.635,488.269,203.284,491.735z
			 M209.376,399.731c-2.428,2.428-4.434,5.52-6.093,8.901c-1.659-3.381-3.666-6.474-6.094-8.902
			c-0.177-0.177-0.369-0.347-0.554-0.52c1.744-4.208,4.304-8.45,6.649-11.91c2.353,3.467,4.907,7.716,6.64,11.915
			C209.742,399.386,209.552,399.555,209.376,399.731z M220.129,468.552c-3.753-3.753-6.403-12.33-7.917-20.104
			c7.774,1.513,16.351,4.163,20.103,7.916c3.753,3.753,6.404,12.331,7.918,20.104C232.458,474.955,223.881,472.304,220.129,468.552z
			 M243.585,446.16c-0.172-0.184-0.341-0.373-0.517-0.549c-2.428-2.428-5.52-4.435-8.901-6.093c3.381-1.659,6.473-3.666,8.902-6.094
			c0.175-0.175,0.342-0.363,0.512-0.545c4.206,1.738,8.453,4.288,11.918,6.637C252.037,441.864,247.793,444.419,243.585,446.16z"/>
	</g>
</g>
<g>
	<g>
		<path d="M475.861,360.742c-0.492-0.421-10.568-8.956-21.841-14.098c4.216-11.173,5.328-23.468,5.482-25.4
			c0.175-2.218-0.63-4.402-2.203-5.976c-1.574-1.572-3.761-2.385-5.976-2.203c-1.931,0.152-14.227,1.265-25.402,5.483
			c-5.145-11.281-13.665-21.338-14.096-21.842c-2.989-3.503-8.577-3.501-11.565,0c-0.407,0.476-8.965,10.575-14.101,21.84
			c-11.173-4.216-23.466-5.327-25.397-5.481c-4.591-0.355-8.541,3.585-8.178,8.178c0.152,1.931,1.265,14.226,5.482,25.401
			c-11.279,5.144-21.34,13.668-21.842,14.097c-3.502,2.99-3.502,8.576,0,11.565c0.522,0.445,10.554,8.94,21.844,14.09
			c-4.219,11.176-5.332,23.476-5.484,25.408c-0.363,4.589,3.588,8.542,8.178,8.178c1.93-0.152,14.224-1.265,25.397-5.481
			c5.138,11.269,13.686,21.357,14.101,21.84c2.99,3.502,8.576,3.502,11.565,0c0.425-0.497,8.957-10.565,14.1-21.84
			c11.173,4.215,23.467,5.328,25.398,5.481c4.59,0.364,8.541-3.589,8.178-8.178c-0.152-1.93-1.264-14.221-5.48-25.395
			c11.269-5.138,21.358-13.689,21.84-14.102C479.362,369.317,479.364,363.731,475.861,360.742z M422.887,337.492
			c3.753-3.753,12.331-6.404,20.104-7.918c-1.512,7.775-4.163,16.352-7.916,20.104c-3.753,3.753-12.33,6.403-20.104,7.917
			C416.484,349.821,419.134,341.244,422.887,337.492z M365.743,373.165c-4.074-1.695-8.324-4.221-11.915-6.643
			c3.466-2.352,7.714-4.903,11.914-6.638c0.171,0.184,0.339,0.372,0.515,0.548c2.428,2.428,5.52,4.435,8.901,6.093
			c-3.381,1.659-6.473,3.666-8.902,6.094C366.08,372.794,365.914,372.982,365.743,373.165z M389.196,395.556
			c-3.753,3.753-12.331,6.404-20.104,7.918c1.513-7.775,4.164-16.352,7.916-20.104c3.753-3.753,12.33-6.403,20.104-7.917
			C395.599,383.228,392.949,391.804,389.196,395.556z M377.01,349.678c-3.753-3.753-6.404-12.331-7.918-20.104
			c7.774,1.513,16.351,4.164,20.104,7.916c3.753,3.753,6.403,12.33,7.917,20.104C389.339,356.081,380.762,353.431,377.01,349.678z
			 M406.043,418.742c-2.347-3.463-4.902-7.708-6.643-11.915c0.184-0.172,0.373-0.34,0.549-0.516c2.428-2.428,4.434-5.52,6.093-8.901
			c1.659,3.381,3.666,6.474,6.094,8.902c0.175,0.175,0.364,0.342,0.546,0.513C410.945,411.028,408.394,415.276,406.043,418.742z
			 M412.135,326.738c-2.428,2.428-4.434,5.52-6.093,8.901c-1.659-3.381-3.666-6.474-6.094-8.902
			c-0.177-0.177-0.369-0.347-0.554-0.52c1.744-4.208,4.304-8.45,6.649-11.91c2.353,3.467,4.907,7.716,6.64,11.915
			C412.501,326.393,412.311,326.562,412.135,326.738z M422.888,395.558c-3.753-3.753-6.403-12.33-7.917-20.104
			c7.774,1.513,16.351,4.163,20.103,7.916c3.753,3.753,6.404,12.331,7.918,20.104C435.217,401.962,426.64,399.31,422.888,395.558z
			 M446.344,373.167c-0.172-0.183-0.34-0.373-0.517-0.549c-2.428-2.428-5.52-4.435-8.901-6.093c3.381-1.659,6.473-3.666,8.902-6.094
			c0.175-0.175,0.342-0.363,0.512-0.545c4.206,1.738,8.453,4.288,11.918,6.637C454.796,368.87,450.553,371.426,446.344,373.167z"/>
	</g>
</g>
<g>
</g>
<g>
</g>
<g>
</g>
<g>
</g>
<g>
</g>
<g>
</g>
<g>
</g>
<g>
</g>
<g>
</g>
<g>
</g>
<g>
</g>
<g>
</g>
<g>
</g>
<g>
</g>
<g>
</g>
</svg>
