<?xml version="1.0" encoding="iso-8859-1"?>
<!-- Generator: Adobe Illustrator 19.0.0, SVG Export Plug-In . SVG Version: 6.00 Build 0)  -->
<svg version="1.1" id="Capa_1" xmlns="http://www.w3.org/2000/svg" xmlns:xlink="http://www.w3.org/1999/xlink" x="0px" y="0px"
	 viewBox="0 0 511.999 511.999" style="enable-background:new 0 0 511.999 511.999;" xml:space="preserve">
<g>
	<path style="fill:#33AF8F;" d="M353.638,47.667c-25.43-2.317-46.704,4.652-63.211,20.698
		c-38.845,37.763-34.598,113.305-34.397,116.502c0.531,8.496,7.584,15.021,15.983,15.021c0.33,0,0.662-0.01,0.996-0.03
		c8.83-0.541,15.551-8.141,15.021-16.971c-1.065-17.752,1.313-68.808,24.787-91.573c9.621-9.329,22.024-13.163,37.917-11.716
		c8.824,0.803,16.614-5.697,17.417-14.514C368.954,56.267,362.455,48.469,353.638,47.667z"/>
	<path style="fill:#33AF8F;" d="M158.359,47.667c25.43-2.317,46.704,4.652,63.211,20.698
		c38.845,37.763,34.598,113.305,34.397,116.502c-0.531,8.496-7.584,15.021-15.983,15.021c-0.33,0-0.662-0.01-0.996-0.03
		c-8.83-0.541-15.551-8.141-15.021-16.971c1.065-17.752-1.313-68.808-24.787-91.573c-9.621-9.329-22.024-13.163-37.917-11.716
		c-8.824,0.803-16.614-5.697-17.417-14.514C143.043,56.267,149.541,48.469,158.359,47.667z"/>
</g>
<path style="fill:#66C3AB;" d="M254.852,17.59c-3.287-8.22-12.618-12.216-20.839-8.93c-8.221,3.287-12.219,12.618-8.93,20.839
	c14.884,37.212,14.884,66.927,14.884,146.344c0,8.854,7.178,16.031,16.031,16.031c8.854,0,16.031-7.177,16.031-16.031
	C272.029,94.291,272.029,60.536,254.852,17.59z"/>
<path style="fill:#FFBC68;" d="M255.998,151.796c-29.79,0-88.172-8.379-88.172,80.157c0,80.157,32.063,272.533,88.172,272.533
	s88.172-192.376,88.172-272.533C344.17,143.416,285.789,151.796,255.998,151.796z"/>
<g>
	<path style="fill:#FFA535;" d="M199.888,231.952c0-73.185,39.891-80.148,70.55-80.363c-5.234,0.032-10.137,0.206-14.44,0.206
		c-29.79,0-88.172-8.379-88.172,80.157c0,80.157,32.063,272.533,88.172,272.533c5.585,0,10.93-1.912,16.031-5.424
		C225.887,467.294,199.888,304.131,199.888,231.952z"/>
	<path style="fill:#FFA535;" d="M272.987,151.586c0.211,0,0.423,0.001,0.633,0.002C273.409,151.587,273.199,151.587,272.987,151.586
		z"/>
	<path style="fill:#FFA535;" d="M272.029,151.584c-0.321,0-0.639,0.001-0.958,0.002
		C271.392,151.585,271.712,151.584,272.029,151.584z"/>
</g>
<path d="M370.275,48.558c-4.028-4.831-9.694-7.806-15.956-8.374c-27.727-2.526-50.977,5.145-69.131,22.795
	c-3.199,3.11-6.102,6.124-8.772,9.267c-2.441-20.39-6.796-37.966-14.588-57.445c-4.82-12.051-18.547-17.935-30.607-13.118
	c-11.905,4.762-17.89,18.675-13.117,30.607c4.23,10.575,7.201,20.569,9.298,31.29c-0.199-0.198-0.395-0.407-0.595-0.602
	c-18.154-17.649-41.417-25.317-69.129-22.794c-12.779,1.16-22.481,12.792-21.319,25.581c1.176,12.93,12.654,22.495,25.582,21.317
	c13.765-1.249,23.939,1.807,32.005,9.627c9.768,9.474,16.944,26.939,20.443,49.52c-11.285,2.311-22.487,6.975-31.941,16.244
	c-14.896,14.605-22.137,37.331-22.137,69.48c0,37.651,7.286,106.348,23.285,168.207c19.193,74.212,43.553,111.841,72.403,111.841
	c39.38,0,63.757-71.808,77.272-132.048c0.908-4.049-1.638-8.069-5.688-8.978c-4.05-0.911-8.069,1.637-8.978,5.688
	c-5.584,24.891-11.879,46.464-18.608,64.199h-19.951c-4.151,0-7.515,3.364-7.515,7.515s3.364,7.515,7.515,7.515h13.728
	c-12.013,26.482-25.072,41.08-37.775,41.08c-19.874,0-40.564-35.377-56.957-97.19h16.879c4.15,0,7.515-3.364,7.515-7.515
	s-3.365-7.515-7.515-7.515h-20.662c-1.346-5.652-2.62-11.339-3.823-17.033h32.502c4.15,0,7.515-3.364,7.515-7.515
	s-3.365-7.515-7.515-7.515h-35.509c-5.47-28.799-9.148-57.102-11.176-81.159h22.637c4.15,0,7.515-3.364,7.515-7.515
	s-3.365-7.515-7.515-7.515h-23.728c-0.547-9.143-0.82-17.423-0.82-24.548c0-27.513,5.932-47.278,17.629-58.748
	c15.093-14.796,37.602-14.35,55.687-13.994c4.898,0.098,9.786,0.098,14.684,0c18.085-0.357,40.594-0.803,55.687,13.994
	c11.698,11.468,17.629,31.235,17.629,58.748c0,0.165-0.002,0.335-0.002,0.501h-24.546c-4.151,0-7.515,3.364-7.515,7.515
	c0,4.151,3.364,7.515,7.515,7.515h24.206c-0.223,5.434-0.556,11.131-0.989,17.033h-15.201c-4.151,0-7.515,3.364-7.515,7.515
	s3.364,7.515,7.515,7.515h13.919c-0.537,5.566-1.153,11.258-1.843,17.033h-68.187c-4.151,0-7.515,3.364-7.515,7.515
	c0,4.151,3.364,7.515,7.515,7.515h66.252c-1.492,10.807-3.218,21.772-5.156,32.632c-0.729,4.086,1.993,7.99,6.078,8.718
	c4.083,0.729,7.989-1.993,8.718-6.078c2.799-15.695,5.158-31.471,7.07-47.298c1.767-14.637,3.164-29.325,3.991-44.046
	c0.441-7.865,0.719-15.714,0.719-23.583c0-32.149-7.241-54.875-22.137-69.48c-9.521-9.334-20.815-14-32.18-16.294
	c3.288-22.427,10.41-39.508,20.68-49.47c8.067-7.82,18.24-10.872,32.006-9.627c12.908,1.182,24.404-8.386,25.58-21.318
	C376.205,59.5,374.301,53.39,370.275,48.558z M204.41,85.92c-11.288-10.947-25.626-15.466-43.829-13.805
	c-4.68,0.413-8.827-3.034-9.252-7.711c-0.421-4.626,3.09-8.832,7.712-9.253c23.151-2.108,42.425,4.151,57.291,18.603
	c5.242,5.096,9.946,11.304,13.982,18.452c0.223,0.396,0.481,0.756,0.76,1.095c0.956,14.162,1.237,30.551,1.332,50.898
	c-1.024,0.039-2.055,0.089-3.092,0.15C226.336,124.834,219.598,100.648,204.41,85.92z M263.044,144.184
	c-2.506,0.05-11.585,0.05-14.09,0c-0.501-0.01-1.009-0.02-1.519-0.029c-0.263-55.528-2.025-84.071-15.376-117.447
	c-1.725-4.313,0.437-9.348,4.742-11.07c4.364-1.743,9.329,0.385,11.073,4.742c14.417,36.043,16.312,65.92,16.591,123.775
	C263.99,144.165,263.513,144.175,263.044,144.184z M360.669,64.403c-0.427,4.677-4.558,8.122-9.252,7.712
	c-18.199-1.658-32.542,2.859-43.83,13.805c-12.905,12.514-21.347,32.174-25.134,58.415c-0.991-0.057-1.977-0.104-2.956-0.141
	c-0.09-18.808-0.353-34.773-1.141-49.009c0.86-0.642,1.599-1.472,2.137-2.482c3.858-7.245,8.665-12.624,15.175-18.95
	c14.866-14.453,34.14-20.705,57.292-18.603C357.579,55.572,361.088,59.778,360.669,64.403z"/>
<g>
</g>
<g>
</g>
<g>
</g>
<g>
</g>
<g>
</g>
<g>
</g>
<g>
</g>
<g>
</g>
<g>
</g>
<g>
</g>
<g>
</g>
<g>
</g>
<g>
</g>
<g>
</g>
<g>
</g>
</svg>
