<?xml version="1.0" encoding="iso-8859-1"?>
<!-- Generator: Adobe Illustrator 19.0.0, SVG Export Plug-In . SVG Version: 6.00 Build 0)  -->
<svg version="1.1" id="Capa_1" xmlns="http://www.w3.org/2000/svg" xmlns:xlink="http://www.w3.org/1999/xlink" x="0px" y="0px"
	 viewBox="0 0 512 512" style="enable-background:new 0 0 512 512;" xml:space="preserve">
<g>
	<g>
		<path d="M352.188,0c-56.064,0-108.315,11.989-155.3,35.636c-41.803,21.037-78.813,50.883-110.005,88.71
			C33.292,189.338,0,276.642,0,352.188c0,45.656,10.36,84.399,29.961,112.037C52.125,495.48,85.94,512,127.75,512
			c27.754,0,50.804-9.424,70.469-28.812c17.105-16.865,29.668-38.819,42.968-62.061c25.387-44.365,51.638-90.239,112.388-101.63
			c46.152-8.654,85.067-26.853,112.538-52.632C496.132,238.694,512,201.675,512,159.812C512,71.692,440.309,0,352.188,0z
			 M350.803,304.724c-67.575,12.671-96.841,63.814-122.662,108.938c-25.58,44.702-47.672,83.309-100.392,83.309
			c-37.254,0-66.03-13.942-85.529-41.439c-17.789-25.084-27.191-60.82-27.191-103.344c0-72.217,31.976-155.857,83.45-218.28
			C143.198,79.677,223.515,15.029,352.188,15.029c79.834,0,144.783,64.949,144.783,144.783
			C496.971,233.391,442.328,287.563,350.803,304.724z"/>
	</g>
</g>
<g>
	<g>
		<path d="M352.188,48.094c-115.787,0-188.005,58.104-228.199,106.85c-6.177,7.491-12.108,15.356-17.63,23.378
			c-2.354,3.419-1.49,8.098,1.929,10.451c3.419,2.355,8.098,1.488,10.45-1.929c5.277-7.666,10.944-15.182,16.846-22.339
			c38.138-46.25,106.674-101.382,216.604-101.382c53.314,0,96.689,43.375,96.689,96.689c0,24.669-8.492,44.63-25.96,61.021
			c-18.676,17.525-46.678,30.189-80.977,36.621c-89.418,16.765-127.635,83.554-155.548,132.331
			c-11.086,19.373-21.557,37.672-32.492,48.452c-7.967,7.855-14.81,10.639-26.151,10.639c-21.639,0-35.918-6.528-46.298-21.166
			c-11.818-16.664-18.327-43.485-18.327-75.522c0-19.784,3.584-72.488,36.78-134.437c1.961-3.657,0.584-8.212-3.074-10.172
			c-3.656-1.96-8.212-0.583-10.173,3.074c-24.507,45.733-38.562,97.32-38.562,141.534c0,35.125,7.493,65.033,21.097,84.217
			c13.123,18.504,32.278,27.501,58.558,27.501c15.288,0,25.922-4.335,36.703-14.966c12.403-12.229,23.373-31.397,34.991-51.702
			c26.45-46.223,62.674-109.527,145.267-125.014c37.12-6.96,67.721-20.941,88.491-40.433c20.661-19.386,30.705-42.931,30.705-71.979
			C463.906,98.211,413.789,48.094,352.188,48.094z"/>
	</g>
</g>
<g>
	<g>
		<path d="M352.188,96.188c-30.663,0-55.609,24.946-55.609,55.609c0,30.663,24.946,55.609,55.609,55.609
			s55.609-24.946,55.609-55.609C407.796,121.134,382.851,96.188,352.188,96.188z M352.188,192.376
			c-22.376,0-40.579-18.204-40.579-40.579c0-22.376,18.204-40.579,40.579-40.579c22.376,0,40.579,18.204,40.579,40.579
			C392.767,174.172,374.564,192.376,352.188,192.376z"/>
	</g>
</g>
<g>
</g>
<g>
</g>
<g>
</g>
<g>
</g>
<g>
</g>
<g>
</g>
<g>
</g>
<g>
</g>
<g>
</g>
<g>
</g>
<g>
</g>
<g>
</g>
<g>
</g>
<g>
</g>
<g>
</g>
</svg>
