<?xml version="1.0" encoding="iso-8859-1"?>
<!-- Generator: Adobe Illustrator 19.0.0, SVG Export Plug-In . SVG Version: 6.00 Build 0)  -->
<svg version="1.1" id="Capa_1" xmlns="http://www.w3.org/2000/svg" xmlns:xlink="http://www.w3.org/1999/xlink" x="0px" y="0px"
	 viewBox="0 0 512 512" style="enable-background:new 0 0 512 512;" xml:space="preserve">
<g>
	<g>
		<circle cx="223.937" cy="63.624" r="7.515"/>
	</g>
</g>
<g>
	<g>
		<circle cx="168.329" cy="151.296" r="7.515"/>
	</g>
</g>
<g>
	<g>
		<circle cx="120.235" cy="119.233" r="7.515"/>
	</g>
</g>
<g>
	<g>
		<circle cx="167.327" cy="87.17" r="7.515"/>
	</g>
</g>
<g>
	<g>
		<circle cx="223.436" cy="127.249" r="7.515"/>
	</g>
</g>
<g>
	<g>
		<circle cx="279.546" cy="95.186" r="7.515"/>
	</g>
</g>
<g>
	<g>
		<path d="M480.438,320.626h-23.382c-9.596-27.084-29.151-51.807-56.082-71.062c18.786-16.95,32.496-36.841,40.051-58.191h23.381
			c17.403,0,31.562-14.159,31.562-31.562v-16.031c0-17.403-14.159-31.562-31.562-31.562h-23.382
			c-11.201-31.63-35.908-59.95-70.127-80.209c-3.567-2.113-8.179-0.935-10.294,2.639c-2.114,3.57-0.933,8.18,2.639,10.294
			c32.886,19.469,56.023,46.802,65.149,76.965c0.959,3.17,3.881,5.338,7.193,5.338h28.821c9.116,0,16.532,7.415,16.532,16.532
			v16.031c0,9.116-7.417,16.532-16.532,16.532h-28.822c-3.313,0-6.234,2.168-7.193,5.338c-6.61,21.846-20.566,42.283-40.455,59.344
			c-35.56-21.339-78.384-32.619-123.921-32.619c-47.928,0-90.731,22.334-118.571,57.134c-39.319-19.494-67.582-49.858-77.868-83.858
			c-0.959-3.17-3.881-5.338-7.193-5.338H31.562c-9.117,0-16.532-7.417-16.532-16.532v-16.031c0-9.116,7.415-16.532,16.532-16.532
			h28.822c3.313,0,6.234-2.168,7.193-5.338c18.738-61.931,94.61-106.881,180.407-106.881c29.923,0,58.481,5.142,84.881,15.284
			c3.876,1.487,8.221-0.446,9.709-4.32c1.488-3.875-0.445-8.221-4.32-9.709C310.129,5.479,279.757,0,247.984,0
			C202.1,0,158.966,11.447,123.247,33.104c-33.25,20.158-57.31,48.089-68.303,79.116H31.562C14.159,112.219,0,126.378,0,143.781
			v16.031c0,17.403,14.159,31.562,31.562,31.562h23.383c12.457,35.12,41.737,66.143,81.597,86.503
			c-15.379,23.731-24.323,52.003-24.323,82.327c0,83.701,68.096,151.797,151.796,151.797c45.885,0,89.018-11.447,124.738-33.104
			c33.25-20.158,57.31-48.089,68.303-79.116h23.382c17.403,0,31.562-14.159,31.562-31.562v-16.031
			C512,334.785,497.841,320.626,480.438,320.626z M264.016,496.971c-75.414,0-136.767-61.353-136.767-136.767
			s61.353-136.767,136.767-136.767s136.767,61.353,136.767,136.767S339.43,496.971,264.016,496.971z M496.971,368.219
			c0,9.116-7.417,16.532-16.532,16.532h-28.822c-3.313,0-6.234,2.168-7.193,5.338c-10.956,36.211-41.45,66.61-82.034,85.619
			c32.669-27.863,53.423-69.303,53.423-115.506c0-46.202-20.755-87.642-53.423-115.506c40.584,19.009,71.079,49.409,82.034,85.619
			c0.959,3.17,3.881,5.338,7.193,5.338h28.822c9.116,0,16.532,7.417,16.532,16.532V368.219z"/>
	</g>
</g>
<g>
	<g>
		<path d="M294.138,252.6c-19.55-5.46-40.696-5.46-60.247,0c-4.159,1.162-6.527,5.772-5.031,9.834l28.103,76.319
			c1.076,2.923,3.939,4.918,7.052,4.918c3.113,0,5.976-1.996,7.052-4.918l28.102-76.319
			C300.665,258.373,298.299,253.763,294.138,252.6z M264.016,314.409l-18.114-49.197c11.902-2.256,24.326-2.256,36.229,0
			L264.016,314.409z"/>
	</g>
</g>
<g>
	<g>
		<path d="M248.965,343.372l-52.043-62.496c-2.768-3.323-7.94-3.586-11.032-0.562c-7.25,7.097-13.517,15.182-18.626,24.031
			c-5.109,8.848-8.978,18.318-11.5,28.146c-1.074,4.19,1.745,8.54,6.003,9.273l80.146,13.822
			C248.646,356.757,253.338,348.623,248.965,343.372z M172.693,328.395c1.998-5.715,4.537-11.253,7.588-16.536
			c3.051-5.283,6.576-10.251,10.528-14.84l33.549,40.287L172.693,328.395z"/>
	</g>
</g>
<g>
	<g>
		<path d="M249.699,368.47c-1.573-2.727-4.681-4.184-7.785-3.648l-80.146,13.822c-4.258,0.733-7.078,5.082-6.002,9.273
			c2.522,9.828,6.39,19.298,11.499,28.146c5.109,8.849,11.376,16.934,18.626,24.031c3.091,3.024,8.265,2.758,11.031-0.562
			l52.043-62.496C250.98,374.617,251.273,371.197,249.699,368.47z M190.809,423.388c-3.951-4.588-7.477-9.556-10.528-14.84
			c-3.051-5.284-5.59-10.821-7.588-16.537l51.664-8.91L190.809,423.388z"/>
	</g>
</g>
<g>
	<g>
		<path d="M299.169,457.974l-28.102-76.319c-1.076-2.923-3.939-4.918-7.052-4.918c-3.113,0-5.976,1.996-7.052,4.918l-28.103,76.318
			c-1.496,4.062,0.87,8.672,5.03,9.834c9.775,2.73,19.911,4.115,30.125,4.115c10.217,0,20.353-1.385,30.124-4.114
			C298.3,466.645,300.665,462.034,299.169,457.974z M245.9,455.195l18.115-49.197l18.115,49.198
			C270.232,457.45,257.802,457.451,245.9,455.195z"/>
	</g>
</g>
<g>
	<g>
		<path d="M366.263,378.644l-80.146-13.822c-6.731-1.167-11.425,6.962-7.052,12.214l52.043,62.496
			c2.765,3.32,7.941,3.586,11.032,0.562c7.25-7.097,13.517-15.182,18.626-24.031c5.109-8.848,8.978-18.318,11.499-28.146
			C373.34,383.726,370.521,379.377,366.263,378.644z M347.75,408.548c-3.051,5.283-6.576,10.251-10.528,14.84l-33.549-40.287
			l51.664,8.91C353.34,397.727,350.801,403.265,347.75,408.548z"/>
	</g>
</g>
<g>
	<g>
		<path d="M372.265,332.49c-2.522-9.828-6.39-19.298-11.499-28.146c-5.109-8.849-11.376-16.934-18.626-24.031
			c-3.09-3.024-8.263-2.76-11.032,0.562l-52.042,62.495c-2.015,2.42-2.307,5.839-0.733,8.567c1.556,2.696,4.715,4.181,7.785,3.648
			l80.146-13.822C370.522,341.03,373.341,336.682,372.265,332.49z M303.674,337.307l33.549-40.288
			c3.951,4.588,7.477,9.556,10.528,14.84c3.051,5.284,5.59,10.821,7.588,16.537L303.674,337.307z"/>
	</g>
</g>
<g>
</g>
<g>
</g>
<g>
</g>
<g>
</g>
<g>
</g>
<g>
</g>
<g>
</g>
<g>
</g>
<g>
</g>
<g>
</g>
<g>
</g>
<g>
</g>
<g>
</g>
<g>
</g>
<g>
</g>
</svg>
