<?xml version="1.0" encoding="iso-8859-1"?>
<!-- Generator: Adobe Illustrator 19.0.0, SVG Export Plug-In . SVG Version: 6.00 Build 0)  -->
<svg version="1.1" id="Capa_1" xmlns="http://www.w3.org/2000/svg" xmlns:xlink="http://www.w3.org/1999/xlink" x="0px" y="0px"
	 viewBox="0 0 511.999 511.999" style="enable-background:new 0 0 511.999 511.999;" xml:space="preserve">
<g>
	<g>
		<path d="M280.242,44.581c-7.58-17.343-24.701-28.55-43.617-28.55s-36.036,11.207-43.617,28.55c-0.839,1.919-0.839,4.101,0,6.019
			c7.58,17.343,24.701,28.55,43.617,28.55s36.036-11.207,43.617-28.55C281.08,48.682,281.08,46.499,280.242,44.581z M236.625,64.122
			c-11.813,0-22.604-6.39-28.343-16.531c5.739-10.141,16.529-16.531,28.343-16.531c11.813,0,22.604,6.39,28.343,16.531
			C259.228,57.732,248.438,64.122,236.625,64.122z"/>
	</g>
</g>
<g>
	<g>
		<path d="M174.717,44.581c-7.581-17.343-24.702-28.55-43.617-28.55c-18.915,0-36.037,11.207-43.618,28.55
			c-0.839,1.919-0.839,4.101,0,6.019c7.581,17.343,24.702,28.55,43.618,28.55s36.036-11.207,43.617-28.55
			C175.556,48.682,175.556,46.499,174.717,44.581z M131.1,64.122c-11.813,0-22.604-6.39-28.343-16.531
			c5.739-10.141,16.529-16.531,28.343-16.531c11.813,0,22.604,6.39,28.343,16.531C153.703,57.732,142.914,64.122,131.1,64.122z"/>
	</g>
</g>
<g>
	<g>
		<path d="M495.534,268.71c-12.13-29.22-29.98-51.527-51.619-64.51c-18.022-10.816-46.051-19.343-84.564-8.09
			c-5.503-19.734-13.566-37.824-23.528-52.661c-12.726-18.954-28.293-32.646-46.267-40.696
			c-28.417-12.725-61.06-10.809-97.179,5.654V7.514c0-4.151-3.363-7.514-7.514-7.514s-7.514,3.363-7.514,7.514v101.818
			c-29.395-13.763-56.705-17.972-81.303-12.502c-24.227,5.39-44.906,19.778-61.465,42.763c-2.426,3.367-1.662,8.063,1.705,10.49
			c3.365,2.424,8.062,1.662,10.49-1.705c21.838-30.315,62.734-58.525,133.55-20.754c2.209,1.178,4.863,1.179,7.072-0.001
			c36.625-19.532,68.928-23.286,96.016-11.153c28.133,12.6,50.419,43.248,61.702,84.545c-5.3,2.097-10.769,4.545-16.423,7.41
			c-0.184-0.014-0.37-0.028-0.557-0.028c-0.187,0-0.373,0.015-0.557,0.028c-54.636-27.688-92.718-17.726-115.221-4.224
			c-21.639,12.983-39.488,35.29-51.619,64.51c-10.609,25.558-16.452,55.647-16.452,84.724c0,15.797,2.7,31.745,7.713,47.139
			c-29.271,1.727-58.941-9.301-84.313-31.523c-32.473-28.441-52.645-71.28-52.645-111.798c0-27.318,5.495-55.505,15.474-79.371
			c1.601-3.829-0.205-8.231-4.034-9.832c-3.825-1.597-8.23,0.205-9.832,4.034C5.921,197.743,0.013,227.99,0.013,257.252
			c0,22.523,5.504,45.937,15.92,67.708c10.093,21.101,24.567,40.257,41.851,55.396c26.433,23.15,57.258,35.436,88.2,35.436
			c3.852,0,7.709-0.19,11.557-0.575c12.284,28.438,32.492,54.045,58.04,71.939c35.238,24.683,75.103,31.21,112.556,18.516
			c12.482,4.231,25.234,6.327,37.99,6.327c25.521,0,51.072-8.388,74.566-24.844c43.309-30.335,71.294-82.823,71.294-133.722
			C511.986,324.356,506.143,294.267,495.534,268.71z M432.07,474.847c-30.345,21.254-64.385,27.362-96.419,17.449v-76.005
			c0-4.151-3.363-7.514-7.514-7.514c-4.151,0-7.514,3.363-7.514,7.514v76.005c-32.032,9.911-66.074,3.805-96.419-17.449
			c-39.418-27.609-64.887-75.267-64.887-121.414c0-49.716,18.792-111.157,60.773-136.347c27.76-16.656,61.565-15.085,100.533,4.652
			v50.279c0,4.151,3.363,7.514,7.514,7.514c4.151,0,7.514-3.363,7.514-7.514v-50.279c38.967-19.737,72.772-21.307,100.533-4.652
			c41.982,25.19,60.773,86.631,60.773,136.347C496.957,399.58,471.488,447.239,432.07,474.847z"/>
	</g>
</g>
<g>
	<g>
		<path d="M301.969,314.127c-2.744-5.269-12.535-22.693-23.316-25.773c-6.046-1.727-12.405-0.998-17.903,2.057
			c-5.497,3.055-9.477,8.066-11.204,14.114c-1.728,6.047-0.998,12.405,2.057,17.902s8.067,9.477,14.114,11.204
			c1.457,0.417,3.037,0.601,4.693,0.601c10.597,0,24.298-7.55,28.721-10.165C302.567,322.035,303.814,317.668,301.969,314.127z
			 M269.845,319.18c-4.46-1.272-7.127-6.06-5.849-10.527c1.272-4.459,6.058-7.124,10.527-5.85
			c2.079,0.625,6.421,5.718,10.349,11.813C278.318,317.717,271.946,319.751,269.845,319.18z"/>
	</g>
</g>
<g>
	<g>
		<path d="M299.129,364.242c-5.114-3.023-22.633-12.653-33.414-9.564c-6.047,1.727-11.059,5.706-14.114,11.204
			s-3.784,11.856-2.057,17.902c1.727,6.047,5.706,11.059,11.204,14.114c3.547,1.971,7.452,2.974,11.4,2.974
			c2.172,0,4.358-0.304,6.503-0.917c10.781-3.08,20.572-20.505,23.315-25.773C303.813,370.641,302.566,366.274,299.129,364.242z
			 M274.524,385.504c-4.468,1.279-9.255-1.391-10.529-5.849c-0.701-2.456-0.247-5.131,1.212-7.224
			c1.18-1.692,3.345-3.397,5.504-3.397c2.672,0,8.35,1.909,14.166,4.66C280.957,379.785,276.614,384.876,274.524,385.504z"/>
	</g>
</g>
<g>
	<g>
		<path d="M406.728,304.524c-1.728-6.047-5.707-11.059-11.205-14.114c-5.497-3.054-11.858-3.784-17.903-2.057
			c-10.781,3.08-20.572,20.505-23.315,25.773c-1.846,3.541-0.598,7.908,2.839,9.94c4.422,2.614,18.123,10.165,28.721,10.165
			c1.654,0,3.236-0.184,4.693-0.601c6.047-1.727,11.059-5.706,14.114-11.204C407.726,316.927,408.455,310.57,406.728,304.524z
			 M391.533,315.127c-1.105,1.989-2.918,3.429-5.105,4.053c-2.097,0.572-8.477-1.464-15.034-4.566
			c3.92-6.092,8.264-11.182,10.354-11.81c4.469-1.277,9.255,1.39,10.529,5.849C392.902,310.84,392.638,313.139,391.533,315.127z"/>
	</g>
</g>
<g>
	<g>
		<path d="M404.669,365.882c-3.055-5.497-8.065-9.477-14.113-11.204c-10.782-3.089-28.3,6.541-33.413,9.564
			c-3.438,2.032-4.685,6.399-2.839,9.94c2.743,5.268,12.535,22.692,23.315,25.773c2.147,0.613,4.33,0.917,6.503,0.917
			c3.947,0,7.853-1.003,11.4-2.974c5.497-3.055,9.477-8.066,11.204-14.114C408.454,377.738,407.724,371.38,404.669,365.882z
			 M392.276,379.655c-1.272,4.461-6.06,7.126-10.527,5.85c-2.079-0.625-6.421-5.718-10.349-11.813
			c6.555-3.1,12.931-5.135,15.027-4.564C390.888,370.401,393.554,375.188,392.276,379.655z"/>
	</g>
</g>
<g>
</g>
<g>
</g>
<g>
</g>
<g>
</g>
<g>
</g>
<g>
</g>
<g>
</g>
<g>
</g>
<g>
</g>
<g>
</g>
<g>
</g>
<g>
</g>
<g>
</g>
<g>
</g>
<g>
</g>
</svg>
