<svg xmlns="http://www.w3.org/2000/svg" xmlns:xlink="http://www.w3.org/1999/xlink" version="1.1" x="0px" y="0px" viewBox="0 0 64 80" enable-background="new 0 0 64 64" xml:space="preserve"><g display="none"><g display="inline"><circle fill="#000000" cx="32" cy="32" r="28"/><path fill="#000000" d="M37,24l-3,4h-4l-3-4H3v5.008L5,29l0.81,6.885C6.489,41.653,11.377,46,17.185,46h0.18    c4.624,0,8.794-2.78,10.572-7.048L30,34h4l2.063,4.952C37.842,43.22,42.012,46,46.635,46h0.19c5.803,0,10.689-4.34,11.373-10.103    L59.018,29H61v-5H37z"/><path d="M46.826,47h-0.19c-5.043,0-9.555-3.008-11.495-7.663L33.333,35h-2.667l-1.807,4.337C26.92,43.992,22.408,47,17.365,47    h-0.18c-6.313,0-11.63-4.728-12.368-10.998l-0.706-5.999l-1.107,0.004c-0.277,0.04-0.521-0.104-0.709-0.292    C2.106,29.529,2,29.274,2,29.008V24c0-0.552,0.448-1,1-1h24c0.315,0,0.611,0.148,0.8,0.4l2.7,3.6h3l2.7-3.6    c0.188-0.252,0.485-0.4,0.8-0.4h7v2h-6.5l-2.7,3.6C34.611,28.852,34.315,29,34,29h-4c-0.315,0-0.611-0.148-0.8-0.4L26.5,25H4    v3.004L4.996,28c0.482,0.013,0.938,0.378,0.997,0.883l0.81,6.885C7.422,41.031,11.886,45,17.185,45h0.18    c4.233,0,8.021-2.525,9.649-6.433l2.063-4.952C29.232,33.243,29.596,33,30,33h4c0.404,0,0.768,0.243,0.923,0.615l2.063,4.952    C38.615,42.475,42.402,45,46.635,45h0.19c5.294,0,9.756-3.964,10.38-9.221l0.818-6.896C58.084,28.379,58.511,28,59.018,28H60v-3    H50v-2h11c0.552,0,1,0.448,1,1v5c0,0.552-0.448,1-1,1h-1.094l-0.713,6.014C58.449,42.277,53.132,47,46.826,47z"/><rect x="46" y="23" width="2" height="2"/><path fill="#000000" d="M17.36,42h-0.11c-3.586,0-6.627-2.637-7.134-6.187L9,28h16l2,3l-3.08,6.776    C22.751,40.348,20.186,42,17.36,42z"/><path fill="#000000" d="M46.64,42h0.11c3.586,0,6.627-2.637,7.134-6.187L55,28H39l-2,3l3.08,6.776    C41.249,40.348,43.814,42,46.64,42z"/><path fill="#000000" d="M17,28l-7,7l0.116,0.813c0.411,2.874,2.483,5.149,5.16,5.911L26.6,30.4L25,28H17z"/><path fill="#000000" d="M55,28h-8.906l-7.19,7.19l1.175,2.586c0.855,1.882,2.461,3.262,4.366,3.873L54.484,31.61L55,28z"/><path d="M32,61C16.009,61,3,47.991,3,32c0-1.037,0.055-2.081,0.165-3.104l1.988,0.212C5.051,30.061,5,31.034,5,32    c0,14.888,12.112,27,27,27s27-12.112,27-27c0-0.967-0.051-1.941-0.153-2.894l1.988-0.212C60.945,29.917,61,30.962,61,32    C61,47.991,47.991,61,32,61z"/><path d="M57.882,24.286C54.503,12.931,43.86,5,32,5C20.141,5,9.498,12.93,6.118,24.285l-1.917-0.57C7.831,11.518,19.263,3,32,3    c12.738,0,24.169,8.519,27.799,20.715L57.882,24.286z"/><path d="M32,54c-0.126,0-0.252-0.024-0.372-0.071l-5-2l0.743-1.857L32,51.923l4.628-1.852l0.743,1.857l-5,2    C32.252,53.976,32.126,54,32,54z"/><path d="M17.36,43h-0.11c-4.057,0-7.55-3.029-8.124-7.045L8.01,28.142c-0.041-0.287,0.044-0.578,0.234-0.797    C8.435,27.126,8.71,27,9,27h16c0.334,0,0.646,0.167,0.832,0.445l2,3c0.192,0.288,0.221,0.654,0.078,0.969l-3.08,6.776    C23.502,41.112,20.57,43,17.36,43z M10.153,29l0.953,6.671C11.54,38.709,14.182,41,17.25,41h0.11c2.428,0,4.646-1.428,5.649-3.638    l2.851-6.27L24.465,29H10.153z"/><path d="M46.75,43h-0.11c-3.21,0-6.143-1.888-7.47-4.811l-3.08-6.775c-0.143-0.315-0.114-0.681,0.078-0.969l2-3    C38.354,27.167,38.666,27,39,27h16c0.29,0,0.565,0.126,0.755,0.345c0.19,0.219,0.275,0.51,0.234,0.797l-1.116,7.813    C54.3,39.971,50.807,43,46.75,43z M38.14,31.092l2.85,6.27C41.995,39.572,44.212,41,46.64,41h0.11c3.068,0,5.71-2.291,6.144-5.329    L53.847,29H39.535L38.14,31.092z"/></g></g><g display="none"><g display="inline"><circle fill="#000000" cx="32" cy="32" r="29"/><path fill="#000000" d="M61,23H37c-0.315,0-0.611,0.148-0.8,0.4L33.5,27h-3l-2.7-3.6C27.611,23.148,27.315,23,27,23H3    c-0.552,0-1,0.448-1,1v5.008c0,0.266,0.106,0.521,0.294,0.708c0.189,0.188,0.433,0.332,0.709,0.292l1.107-0.004l0.706,5.999    C5.555,42.272,10.872,47,17.185,47h0.18c5.043,0,9.555-3.008,11.495-7.663L30.667,35h2.667l1.807,4.337    C37.08,43.992,41.592,47,46.635,47h0.19c6.307,0,11.623-4.723,12.367-10.986L59.906,30H61c0.552,0,1-0.448,1-1v-5    C62,23.448,61.552,23,61,23z"/><g><path fill="#000000" d="M25.832,27.445C25.646,27.167,25.334,27,25,27H9c-0.29,0-0.565,0.126-0.755,0.345     c-0.19,0.219-0.275,0.51-0.234,0.797l1.116,7.813C9.7,39.971,13.193,43,17.25,43h0.11c3.21,0,6.143-1.888,7.47-4.81l3.08-6.776     c0.143-0.315,0.114-0.681-0.078-0.969L25.832,27.445z"/><path fill="#000000" d="M55.755,27.345C55.565,27.126,55.29,27,55,27H39c-0.334,0-0.646,0.167-0.832,0.445l-2,3     c-0.192,0.288-0.221,0.654-0.078,0.969l3.08,6.775C40.498,41.112,43.43,43,46.64,43h0.11c4.057,0,7.55-3.029,8.124-7.045     l1.116-7.813C56.031,27.854,55.945,27.564,55.755,27.345z"/></g><path fill="#000000" d="M25,28h-8l-7,7l0.116,0.813c0.411,2.874,2.483,5.149,5.16,5.911L26.6,30.4L25,28z"/><path fill="#000000" d="M55,28h-8.906l-7.19,7.19l1.175,2.586c0.855,1.882,2.461,3.262,4.366,3.873L54.484,31.61L55,28z"/><path fill="#000000" d="M32,54c-0.126,0-0.252-0.024-0.372-0.071l-5-2l0.743-1.857L32,51.923l4.628-1.852l0.743,1.857l-5,2    C32.252,53.976,32.126,54,32,54z"/></g></g><g><g><path d="M61,23h-1.446C55.694,11.192,44.484,3,32,3C19.516,3,8.306,11.192,4.447,23H3c-0.552,0-1,0.448-1,1v5.008    c0,0.266,0.106,0.521,0.294,0.708c0.189,0.188,0.433,0.332,0.709,0.292l0.072,0C3.031,30.67,3,31.336,3,32    c0,15.991,13.009,29,29,29s29-13.009,29-29c0-0.667-0.031-1.335-0.076-2H61c0.552,0,1-0.448,1-1v-5C62,23.448,61.552,23,61,23z     M4,25h22.5l2.7,3.6c0.188,0.252,0.485,0.4,0.8,0.4h4c0.315,0,0.611-0.148,0.8-0.4l2.7-3.6H44v-2h-7c-0.315,0-0.611,0.148-0.8,0.4    L33.5,27h-3l-2.7-3.6C27.611,23.148,27.315,23,27,23H6.56C10.338,12.342,20.597,5,32,5c11.403,0,21.663,7.342,25.441,18H50v2h10v3    h-0.982c-0.507,0-0.933,0.379-0.993,0.882l-0.818,6.896C56.582,41.036,52.12,45,46.826,45h-0.19c-4.233,0-8.021-2.525-9.649-6.433    l-2.063-4.952C34.768,33.243,34.404,33,34,33h-4c-0.404,0-0.768,0.243-0.923,0.615l-2.063,4.952    C25.385,42.475,21.598,45,17.365,45h-0.18c-5.299,0-9.762-3.969-10.381-9.231l-0.81-6.885C5.934,28.378,5.478,28.013,4.996,28    L4,28.004V25z M32,59c-11.729,0-21.731-7.521-25.449-17.991C8.75,44.621,12.713,47,17.185,47h0.18    c5.043,0,9.555-3.008,11.495-7.663L30.667,35h2.667l1.807,4.337C37.08,43.992,41.592,47,46.635,47h0.19    c4.454,0,8.406-2.362,10.61-5.952C53.707,51.498,43.715,59,32,59z"/><rect x="46" y="23" width="2" height="2"/><path d="M17.25,43h0.11c3.21,0,6.143-1.888,7.47-4.81l3.08-6.776c0.143-0.315,0.114-0.681-0.078-0.969l-2-3    C25.646,27.167,25.334,27,25,27H9c-0.29,0-0.565,0.126-0.755,0.345c-0.19,0.219-0.275,0.51-0.234,0.797l1.116,7.813    C9.7,39.971,13.193,43,17.25,43z M23.009,37.362c-0.996,2.192-3.186,3.61-5.591,3.633l7.223-7.223L23.009,37.362z M25.313,30.273    L15.013,40.573c-2.035-0.797-3.584-2.64-3.907-4.902l-0.045-0.318L17.414,29h7.051L25.313,30.273z M14.586,29l-3.879,3.879    L10.153,29H14.586z"/><path d="M39.17,38.189C40.498,41.112,43.43,43,46.64,43h0.11c4.057,0,7.55-3.029,8.124-7.045l1.116-7.813    c0.041-0.287-0.044-0.578-0.234-0.797C55.565,27.126,55.29,27,55,27H39c-0.334,0-0.646,0.167-0.832,0.445l-2,3    c-0.192,0.288-0.221,0.654-0.078,0.969L39.17,38.189z M46.75,41h-0.11c-0.042,0-0.081-0.008-0.123-0.009l6.553-6.553l-0.176,1.233    C52.46,38.709,49.818,41,46.75,41z M53.542,31.139l-9.347,9.347c-1.393-0.6-2.554-1.694-3.204-3.124l-0.889-1.955L46.508,29h7.339    L53.542,31.139z M39.535,29h4.145l-4.463,4.463l-1.078-2.37L39.535,29z"/><path d="M32,51.923l-4.628-1.852l-0.743,1.857l5,2C31.748,53.976,31.874,54,32,54s0.252-0.024,0.372-0.071l5-2l-0.743-1.857    L32,51.923z"/></g></g><g display="none"><g display="inline"><g><path fill="none" stroke="#000000" stroke-width="2" stroke-linejoin="round" stroke-miterlimit="10" d="M50,24h11v5h-1.982     l-0.818,6.897C57.515,41.66,52.629,46,46.826,46h-0.19c-4.624,0-8.794-2.78-10.572-7.048L34,34h-4l-2.063,4.952     C26.158,43.22,21.988,46,17.365,46h-0.18C11.377,46,6.489,41.653,5.81,35.885L5,29l-2,0.008V24h24l3,4h4l3-4h7"/><line fill="none" stroke="#000000" stroke-width="2" stroke-linejoin="round" stroke-miterlimit="10" x1="46" y1="24" x2="47.999" y2="24"/><path fill="none" stroke="#000000" stroke-width="2" stroke-linejoin="round" stroke-miterlimit="10" d="M17.36,42h-0.11     c-3.586,0-6.627-2.637-7.134-6.187L9,28h16l2,3l-3.08,6.776C22.751,40.348,20.186,42,17.36,42z"/><path fill="none" stroke="#000000" stroke-width="2" stroke-linejoin="round" stroke-miterlimit="10" d="M46.64,42h0.11     c3.586,0,6.627-2.637,7.134-6.187L55,28H39l-2,3l3.08,6.776C41.249,40.348,43.814,42,46.64,42z"/><line fill="none" stroke="#000000" stroke-width="2" stroke-linejoin="round" stroke-miterlimit="10" x1="9.906" y1="35.094" x2="17" y2="28"/><line fill="none" stroke="#000000" stroke-width="2" stroke-linejoin="round" stroke-miterlimit="10" x1="15" y1="42" x2="27" y2="30"/><line fill="none" stroke="#000000" stroke-width="2" stroke-linejoin="round" stroke-miterlimit="10" x1="39" y1="35.094" x2="46.094" y2="28"/><line fill="none" stroke="#000000" stroke-width="2" stroke-linejoin="round" stroke-miterlimit="10" x1="44.094" y1="42" x2="54.29" y2="31.805"/></g><path fill="none" stroke="#000000" stroke-width="2" stroke-linejoin="round" stroke-miterlimit="10" d="M59.841,29    C59.946,29.986,60,30.986,60,32c0,15.464-12.536,28-28,28S4,47.464,4,32c0-1.013,0.054-2.013,0.159-2.998"/><path fill="none" stroke="#000000" stroke-width="2" stroke-linejoin="round" stroke-miterlimit="10" d="M5.16,23.999    C8.602,12.434,19.316,4,32,4c12.684,0,23.399,8.434,26.841,20.001"/><polyline fill="none" stroke="#000000" stroke-width="2" stroke-linejoin="round" stroke-miterlimit="10" points="27,51 32,53     37,51   "/></g></g><text x="0" y="79" fill="#000000" font-size="5px" font-weight="bold" font-family="'Helvetica Neue', Helvetica, Arial-Unicode, Arial, Sans-serif">Created by Petai Jantrapoon</text><text x="0" y="84" fill="#000000" font-size="5px" font-weight="bold" font-family="'Helvetica Neue', Helvetica, Arial-Unicode, Arial, Sans-serif">from the Noun Project</text></svg>