<?xml version="1.0" encoding="iso-8859-1"?>
<!-- Generator: Adobe Illustrator 21.0.0, SVG Export Plug-In . SVG Version: 6.00 Build 0)  -->
<svg version="1.1" id="Capa_1" xmlns="http://www.w3.org/2000/svg" xmlns:xlink="http://www.w3.org/1999/xlink" x="0px" y="0px"
	 viewBox="0 0 512 512" style="enable-background:new 0 0 512 512;" xml:space="preserve">
<path style="fill:#009100;" d="M507.281,69.819l-29.973,2.116c3.243,45.941-16.618,60.676-17.465,61.282
	c0.186-0.134,0.289-0.193,0.289-0.193l16.249,25.275c1.696-1.09,10.561-7.245,18.499-21.394
	C504.981,118.906,509.153,96.335,507.281,69.819z"/>
<path style="fill:#FF4F19;" d="M486.734,304.104c-15.815,27.744-36.868,51.291-56.549,67.646
	c-44.72,37.148-105.025,61.397-169.797,68.277c-13.511,1.432-27.333,2.153-41.395,2.153c-28.966,0-59.003-3.045-89.741-9.104
	c-38.631-7.622-78.804-17.758-108.36-49.989C4.466,365.17-5.791,340.522,3.544,321.071c1.613-3.385,3.816-6.6,6.691-9.605
	c21.444-22.415,58.762-18.289,88.75-14.974c9.725,1.082,18.91,2.103,25.68,1.973c57.811-1.052,100.298-19.06,133.7-56.669
	c8.774-9.886,16.917-20.302,25.55-31.329c9.365-11.979,18.89-24.148,29.296-35.606c12.329-13.591,25.901-26.201,41.956-36.347
	c42.276-26.722,87.007-27.073,119.648-0.941c22.525,18.018,35.676,43.729,37.028,72.394
	C513.435,243.559,502.779,275.99,486.734,304.104z"/>
<path style="fill:#DD2B19;" d="M486.734,304.104c-15.815,27.744-36.868,51.291-56.549,67.646
	c-44.72,37.148-105.025,61.397-169.797,68.277c-13.511,1.432-27.333,2.153-41.395,2.153c-28.966,0-59.003-3.045-89.741-9.104
	c-38.631-7.622-78.804-17.758-108.36-49.989C4.466,365.17-5.791,340.522,3.544,321.071c75.799,33.633,181.886,63.48,267.16,21.704
	c150.226-73.616,204.111-205.203,204.111-205.203c22.525,18.018,35.676,43.729,37.028,72.394
	C513.435,243.559,502.779,275.99,486.734,304.104z"/>
<path style="fill:#2DD729;" d="M486.734,304.104l-26.121-59.123l-81.658,22.966l-1.803,0.511l3.996-80.907l-67.937-12.69
	c12.329-13.591,25.901-26.201,41.956-36.347c42.276-26.722,87.007-27.073,119.648-0.941c22.525,18.018,35.676,43.729,37.028,72.394
	C513.435,243.559,502.779,275.99,486.734,304.104z"/>
<path style="fill:#00AD00;" d="M486.734,304.104l-26.121-59.123l-81.658,22.966c68.918-64.572,95.861-130.375,95.861-130.375
	c22.525,18.018,35.676,43.729,37.028,72.394C513.435,243.559,502.779,275.99,486.734,304.104z"/>
<g>
</g>
<g>
</g>
<g>
</g>
<g>
</g>
<g>
</g>
<g>
</g>
<g>
</g>
<g>
</g>
<g>
</g>
<g>
</g>
<g>
</g>
<g>
</g>
<g>
</g>
<g>
</g>
<g>
</g>
</svg>
