<svg xmlns="http://www.w3.org/2000/svg" viewBox="0 0 512 512"><path d="M507.281 69.819l-29.973 2.116c3.243 45.941-16.618 60.676-17.465 61.282a3.74 3.74 0 0 1 .289-.193l16.249 25.275c1.696-1.09 10.561-7.245 18.499-21.394 10.101-17.999 14.273-40.57 12.401-67.086z" fill="#009100"/><path d="M486.734 304.104c-15.815 27.744-36.868 51.291-56.549 67.646-44.72 37.148-105.025 61.397-169.797 68.277-13.511 1.432-27.333 2.153-41.395 2.153-28.966 0-59.003-3.045-89.741-9.104-38.631-7.622-78.804-17.758-108.36-49.989C4.466 365.17-5.791 340.522 3.544 321.071c1.613-3.385 3.816-6.6 6.691-9.605 21.444-22.415 58.762-18.289 88.75-14.974 9.725 1.082 18.91 2.103 25.68 1.973 57.811-1.052 100.298-19.06 133.7-56.669 8.774-9.886 16.917-20.302 25.55-31.329 9.365-11.979 18.89-24.148 29.296-35.606 12.329-13.591 25.901-26.201 41.956-36.347 42.276-26.722 87.007-27.073 119.648-.941 22.525 18.018 35.676 43.729 37.028 72.394 1.592 33.592-9.064 66.023-25.109 94.137z" fill="#ff4f19"/><path d="M486.734 304.104c-15.815 27.744-36.868 51.291-56.549 67.646-44.72 37.148-105.025 61.397-169.797 68.277-13.511 1.432-27.333 2.153-41.395 2.153-28.966 0-59.003-3.045-89.741-9.104-38.631-7.622-78.804-17.758-108.36-49.989C4.466 365.17-5.791 340.522 3.544 321.071c75.799 33.633 181.886 63.48 267.16 21.704 150.226-73.616 204.111-205.203 204.111-205.203 22.525 18.018 35.676 43.729 37.028 72.394 1.592 33.593-9.064 66.024-25.109 94.138z" fill="#dd2b19"/><path d="M486.734 304.104l-26.121-59.123-81.658 22.966-1.803.511 3.996-80.907-67.937-12.69c12.329-13.591 25.901-26.201 41.956-36.347 42.276-26.722 87.007-27.073 119.648-.941 22.525 18.018 35.676 43.729 37.028 72.394 1.592 33.592-9.064 66.023-25.109 94.137z" fill="#2dd729"/><path d="M486.734 304.104l-26.121-59.123-81.658 22.966c68.918-64.572 95.861-130.375 95.861-130.375 22.525 18.018 35.676 43.729 37.028 72.394 1.591 33.593-9.065 66.024-25.11 94.138z" fill="#00ad00"/></svg>