<svg xmlns="http://www.w3.org/2000/svg" viewBox="0 0 55.171 55.171"><path d="M10.328 7.986l1.417 1.629c1.401 2.111 3.872 2.715 6.089 1.489l2.009-.791-1.417-1.629c-1.401-2.111-3.872-2.715-6.089-1.489l-2.009.791zm2.815 10.263l2.138.296c2.443.671 4.703-.499 5.567-2.88l.994-1.917-2.138-.296c-2.443-.671-4.703.499-5.567 2.88l-.994 1.917zm6.817 5.619l2.017-.771c2.464-.59 3.881-2.703 3.491-5.206l-.053-2.158-2.017.771c-2.464.59-3.881 2.703-3.491 5.206l.053 2.158zm3.279 3.039l2.154-.144c2.528.16 4.504-1.444 4.866-3.951l.584-2.078-2.154.144c-2.528-.16-4.504 1.444-4.866 3.951l-.584 2.078zm.604 5.015l2.104.485c2.374.885 4.729-.078 5.802-2.374l1.16-1.821-2.104-.485c-2.374-.885-4.729.078-5.802 2.374l-1.16 1.821zm-1.661 6.06l1.944.938c2.119 1.388 4.629.969 6.183-1.032l1.534-1.519-1.944-.938c-2.119-1.388-4.629-.969-6.183 1.032l-1.534 1.519zM22.84 0l-1.041 1.891C20.3 3.934 20.585 6.462 22.5 8.12l1.435 1.613 1.041-1.891c1.499-2.042 1.215-4.571-.701-6.229L22.84 0zm9.935 2.989l-1.907 1.013c-2.373.888-3.519 3.16-2.825 5.596l.318 2.135 1.907-1.013c2.373-.888 3.519-3.16 2.825-5.596l-.318-2.135zm7.068 7.012l-2.153-.158c-2.481-.512-4.661.8-5.371 3.232l-.868 1.976 2.153.158c2.481.512 4.661-.8 5.371-3.232l.868-1.976zm3.815 6.898l-2.077-.589c-2.327-1.002-4.727-.156-5.912 2.083l-1.249 1.761 2.077.589c2.327 1.002 4.727.156 5.912-2.083l1.249-1.761z" fill="#f1b501"/><path d="M44.843 24.438l-1.719-1.306c-1.801-1.781-4.344-1.869-6.265-.217l-1.805 1.184 1.719 1.306c1.801 1.781 4.344 1.869 6.265.217l1.805-1.184zm-.129 8.182l-1.357-1.679c-1.324-2.16-3.772-2.853-6.032-1.706l-2.036.719 1.357 1.679c1.324 2.16 3.772 2.853 6.032 1.706l2.036-.719zm-2.255 9.113l-.588-2.077c-.368-2.507-2.346-4.107-4.874-3.941l-2.154-.14.588 2.077c.368 2.507 2.346 4.107 4.874 3.941l2.154.14zm-3.8 8l.1-2.156c.445-2.494-.925-4.638-3.375-5.282l-1.999-.815-.1 2.156c-.445 2.494.925 4.638 3.375 5.282l1.999.815z" fill="#f1b501"/><path d="M12.679 55.171a1 1 0 0 1-.186-1.983c12.534-2.393 20.825-12.461 20.631-25.056-.115-7.478-4.78-14.09-11.607-16.454a1 1 0 0 1 .654-1.89c7.619 2.64 12.825 9.999 12.953 18.313.21 13.6-8.734 24.471-22.256 27.052a1.024 1.024 0 0 1-.189.018z" fill="#f4c44e"/></svg>