<?xml version="1.0" encoding="iso-8859-1"?>
<!-- Generator: Adobe Illustrator 19.0.0, SVG Export Plug-In . SVG Version: 6.00 Build 0)  -->
<svg version="1.1" id="Capa_1" xmlns="http://www.w3.org/2000/svg" xmlns:xlink="http://www.w3.org/1999/xlink" x="0px" y="0px"
	 viewBox="0 0 512 512" style="enable-background:new 0 0 512 512;" xml:space="preserve">
<g>
	<g>
		<path d="M472.423,224.438c-12.026,0-26.314,2.48-38.919,4.667c-6.385,1.108-12.538,2.174-17.692,2.795v-40.026
			c0-4.151-3.365-7.515-7.515-7.515h-32.344c-8.162-15.357-19.009-28.809-32.284-40.034c0.002-0.182,0.002-0.364,0.002-0.545
			c0-27.803-12.994-53.573-35.059-70.113c1.991-5.781,2.997-11.831,2.997-18.059C311.609,24.946,286.663,0,256,0
			s-55.609,24.946-55.609,55.609c0,6.228,1.006,12.278,2.997,18.059c-22.065,16.54-35.059,42.31-35.059,70.113
			c0,0.181,0,0.363,0.002,0.545c-13.254,11.208-24.094,24.638-32.256,39.974c-0.011,0.02-0.018,0.041-0.028,0.061h-32.344
			c-4.15,0-7.515,3.364-7.515,7.515v40.026c-5.154-0.621-11.306-1.687-17.692-2.795c-12.605-2.188-26.893-4.668-38.919-4.668
			C19.91,224.438,0,235.28,0,256s19.91,31.562,39.577,31.562c12.026,0,26.314-2.48,38.919-4.667
			c6.385-1.108,12.537-2.174,17.692-2.795v40.026c0,4.151,3.365,7.515,7.515,7.515h42.69c0.243,0.63,0.57,1.239,0.996,1.807
			c6.49,8.639,13.982,16.473,22.316,23.343c-0.915,5.113-1.377,10.284-1.377,15.43c0,27.803,12.994,53.573,35.06,70.113
			c-1.99,5.781-2.996,11.831-2.996,18.059C200.391,487.054,225.337,512,256,512s55.609-24.946,55.609-55.609
			c0-6.228-1.006-12.278-2.997-18.059c22.065-16.54,35.059-42.31,35.059-70.113c0-5.147-0.462-10.318-1.377-15.43
			c8.443-6.959,16.02-14.908,22.569-23.681c0.347-0.465,0.625-0.959,0.851-1.468h42.583c4.15,0,7.515-3.364,7.515-7.515v-40.026
			c5.154,0.621,11.306,1.687,17.692,2.795c12.605,2.188,26.891,4.667,38.919,4.667C492.09,287.562,512,276.72,512,256
			S492.09,224.438,472.423,224.438z M96.188,264.969c-5.876,0.62-12.718,1.808-20.262,3.117
			c-12.007,2.084-25.617,4.446-36.349,4.446c-11.823,0-24.548-5.173-24.548-16.532s12.725-16.532,24.548-16.532
			c10.732,0,24.342,2.362,36.349,4.447c7.544,1.31,14.385,2.496,20.262,3.116V264.969z M329.426,343.824
			c-2.345,1.799-3.417,4.806-2.739,7.683c1.297,5.509,1.955,11.131,1.955,16.713c0,24.776-12.461,47.608-33.335,61.072
			c-3.182,2.053-4.339,6.153-2.701,9.567c2.636,5.493,3.973,11.392,3.973,17.533c0,22.376-18.204,40.579-40.579,40.579
			c-22.376,0-40.578-18.204-40.578-40.579c0-6.141,1.337-12.04,3.973-17.533c1.638-3.414,0.481-7.514-2.701-9.567
			c-20.873-13.464-33.334-36.296-33.334-61.072c0-5.581,0.657-11.204,1.955-16.713c0.677-2.877-0.395-5.883-2.739-7.684
			c-6.282-4.821-12.063-10.249-17.279-16.183h181.408C341.487,333.573,335.71,339.001,329.426,343.824z M400.783,312.611H111.217
			V199.389h173.339c4.15,0,7.515-3.364,7.515-7.515s-3.365-7.515-7.515-7.515H153.38c7.259-11.703,16.397-22.009,27.26-30.7
			c1.329-1.063,2.268-2.573,2.638-4.233c0.406-1.822,0.08-3.795,0.08-5.647c0-24.776,12.461-47.608,33.335-61.072
			c3.182-2.053,4.339-6.153,2.701-9.567c-2.637-5.492-3.974-11.391-3.974-17.532c0-22.376,18.204-40.579,40.579-40.579
			c22.376,0,40.579,18.204,40.579,40.579c0,6.141-1.337,12.041-3.973,17.533c-1.638,3.414-0.481,7.514,2.701,9.567
			c20.873,13.464,33.334,36.296,33.334,61.072c0,1.852-0.326,3.825,0.08,5.647c0.37,1.66,1.31,3.169,2.638,4.233
			c10.866,8.694,20.006,18.998,27.262,30.7h-36.994c-4.15,0-7.515,3.364-7.515,7.515c0,4.151,3.365,7.515,7.515,7.515h79.155
			V312.611z M472.423,272.532c-10.732,0-24.341-2.362-36.349-4.447c-7.544-1.31-14.385-2.496-20.262-3.116v-17.939
			c5.876-0.62,12.718-1.808,20.262-3.116c12.008-2.084,25.616-4.447,36.349-4.447c11.823,0,24.548,5.173,24.548,16.532
			S484.246,272.532,472.423,272.532z"/>
	</g>
</g>
<g>
</g>
<g>
</g>
<g>
</g>
<g>
</g>
<g>
</g>
<g>
</g>
<g>
</g>
<g>
</g>
<g>
</g>
<g>
</g>
<g>
</g>
<g>
</g>
<g>
</g>
<g>
</g>
<g>
</g>
</svg>
