<?xml version="1.0" encoding="iso-8859-1"?>
<!-- Generator: Adobe Illustrator 19.0.0, SVG Export Plug-In . SVG Version: 6.00 Build 0)  -->
<svg version="1.1" id="Capa_1" xmlns="http://www.w3.org/2000/svg" xmlns:xlink="http://www.w3.org/1999/xlink" x="0px" y="0px"
	 viewBox="0 0 512.002 512.002" style="enable-background:new 0 0 512.002 512.002;" xml:space="preserve">
<g>
	<path style="fill:#99D7C7;" d="M105.959,317.862c0,0,19.004-16.221,32.441-16.221c13.438,0,32.441,16.221,32.441,16.221
		s-19.004,16.221-32.441,16.221S105.959,317.862,105.959,317.862z"/>
	<path style="fill:#99D7C7;" d="M105.959,317.862c0,0-16.221-19.004-16.221-32.441c0-13.438,16.221-32.441,16.221-32.441
		s16.221,19.004,16.221,32.441C122.179,298.859,105.959,317.862,105.959,317.862z"/>
	<path style="fill:#99D7C7;" d="M105.959,317.862c0,0-19.004,16.221-32.441,16.221s-32.441-16.221-32.441-16.221
		s19.004-16.221,32.441-16.221S105.959,317.862,105.959,317.862z"/>
	<path style="fill:#99D7C7;" d="M105.959,317.862c0,0,16.221,19.004,16.221,32.441s-16.221,32.441-16.221,32.441
		s-16.221-19.004-16.221-32.441S105.959,317.862,105.959,317.862z"/>
</g>
<g>
	<path style="fill:#66C3AB;" d="M105.959,317.862c0,0,1.968-24.908,11.47-34.409c9.502-9.501,34.409-11.47,34.409-11.47
		s-1.968,24.908-11.47,34.409C130.866,315.894,105.959,317.862,105.959,317.862z"/>
	<path style="fill:#66C3AB;" d="M105.959,317.862c0,0-24.908-1.968-34.409-11.47c-9.502-9.502-11.47-34.409-11.47-34.409
		s24.908,1.968,34.409,11.47S105.959,317.862,105.959,317.862z"/>
	<path style="fill:#66C3AB;" d="M105.959,317.862c0,0-1.968,24.908-11.47,34.409c-9.502,9.501-34.409,11.47-34.409,11.47
		s1.968-24.908,11.47-34.409C81.051,319.83,105.959,317.862,105.959,317.862z"/>
	<path style="fill:#66C3AB;" d="M105.959,317.862c0,0,24.908,1.968,34.409,11.47c9.502,9.502,11.47,34.409,11.47,34.409
		s-24.908-1.968-34.409-11.47S105.959,317.862,105.959,317.862z"/>
</g>
<g>
	<path style="fill:#99D7C7;" d="M203.283,439.518c0,0,19.004-16.221,32.441-16.221c13.438,0,32.441,16.221,32.441,16.221
		s-19.004,16.221-32.441,16.221C222.287,455.738,203.283,439.518,203.283,439.518z"/>
	<path style="fill:#99D7C7;" d="M203.283,439.518c0,0-16.221-19.004-16.221-32.441s16.221-32.441,16.221-32.441
		s16.221,19.004,16.221,32.441S203.283,439.518,203.283,439.518z"/>
	<path style="fill:#99D7C7;" d="M203.283,439.518c0,0-19.004,16.221-32.441,16.221c-13.438,0-32.441-16.221-32.441-16.221
		s19.004-16.221,32.441-16.221C184.279,423.297,203.283,439.518,203.283,439.518z"/>
	<path style="fill:#99D7C7;" d="M203.283,439.518c0,0,16.221,19.004,16.221,32.441c0,13.438-16.221,32.441-16.221,32.441
		s-16.221-19.004-16.221-32.441C187.062,458.521,203.283,439.518,203.283,439.518z"/>
</g>
<g>
	<path style="fill:#66C3AB;" d="M203.283,439.518c0,0,1.968-24.908,11.47-34.409c9.502-9.502,34.409-11.47,34.409-11.47
		s-1.968,24.908-11.47,34.409C228.19,437.55,203.283,439.518,203.283,439.518z"/>
	<path style="fill:#66C3AB;" d="M203.283,439.518c0,0-24.908-1.968-34.409-11.47c-9.502-9.502-11.47-34.409-11.47-34.409
		s24.908,1.968,34.409,11.47C201.315,414.611,203.283,439.518,203.283,439.518z"/>
	<path style="fill:#66C3AB;" d="M203.283,439.518c0,0-1.968,24.908-11.47,34.409c-9.502,9.502-34.409,11.47-34.409,11.47
		s1.968-24.908,11.47-34.409C178.375,441.485,203.283,439.518,203.283,439.518z"/>
	<path style="fill:#66C3AB;" d="M203.283,439.518c0,0,24.908,1.968,34.409,11.47c9.502,9.502,11.47,34.409,11.47,34.409
		s-24.908-1.968-34.409-11.47C205.251,464.426,203.283,439.518,203.283,439.518z"/>
</g>
<g>
	<path style="fill:#99D7C7;" d="M406.042,366.524c0,0,19.004-16.221,32.441-16.221c13.438,0,32.441,16.221,32.441,16.221
		s-19.004,16.221-32.441,16.221C425.046,382.745,406.042,366.524,406.042,366.524z"/>
	<path style="fill:#99D7C7;" d="M406.042,366.524c0,0-16.221-19.004-16.221-32.441c0-13.438,16.221-32.441,16.221-32.441
		s16.221,19.004,16.221,32.441C422.263,347.521,406.042,366.524,406.042,366.524z"/>
	<path style="fill:#99D7C7;" d="M406.042,366.524c0,0-19.004,16.221-32.441,16.221s-32.441-16.221-32.441-16.221
		s19.004-16.221,32.441-16.221S406.042,366.524,406.042,366.524z"/>
	<path style="fill:#99D7C7;" d="M406.042,366.524c0,0,16.221,19.004,16.221,32.441s-16.221,32.441-16.221,32.441
		s-16.221-19.004-16.221-32.441S406.042,366.524,406.042,366.524z"/>
</g>
<g>
	<path style="fill:#66C3AB;" d="M406.042,366.524c0,0,1.968-24.908,11.47-34.409c9.502-9.501,34.409-11.47,34.409-11.47
		s-1.968,24.908-11.47,34.409C430.949,364.557,406.042,366.524,406.042,366.524z"/>
	<path style="fill:#66C3AB;" d="M406.042,366.524c0,0-24.908-1.968-34.409-11.47c-9.502-9.502-11.47-34.409-11.47-34.409
		s24.908,1.968,34.409,11.47C404.073,341.617,406.042,366.524,406.042,366.524z"/>
	<path style="fill:#66C3AB;" d="M406.042,366.524c0,0-1.968,24.908-11.47,34.409c-9.502,9.501-34.409,11.47-34.409,11.47
		s1.968-24.908,11.47-34.409C381.134,368.492,406.042,366.524,406.042,366.524z"/>
	<path style="fill:#66C3AB;" d="M406.042,366.524c0,0,24.908,1.968,34.409,11.47c9.502,9.502,11.47,34.409,11.47,34.409
		s-24.908-1.968-34.409-11.47C408.011,391.431,406.042,366.524,406.042,366.524z"/>
</g>
<path d="M312.786,390.496l15.217-97.246l49.398-22.822c3.812-1.761,5.474-6.278,3.714-10.091c-1.76-3.813-6.278-5.473-10.091-3.714
	l-40.195,18.57l5.952-38.033l49.399-22.822c3.812-1.761,5.474-6.278,3.714-10.091c-1.76-3.812-6.277-5.473-10.091-3.714
	l-40.195,18.57l5.952-38.035l49.398-22.822c3.812-1.761,5.474-6.278,3.714-10.091c-1.761-3.813-6.278-5.475-10.091-3.714
	l-40.195,18.57l5.952-38.033l49.398-22.822c3.812-1.761,5.474-6.278,3.714-10.091c-1.76-3.813-6.277-5.474-10.091-3.714
	l-40.195,18.57l5.952-38.034l49.399-22.822c3.812-1.761,5.474-6.278,3.714-10.091c-1.76-3.813-6.277-5.473-10.091-3.714
	l-40.195,18.57l6.579-42.053c0.649-4.148-2.188-8.038-6.337-8.687c-4.15-0.648-8.038,2.189-8.687,6.337l-6.581,42.052l-32.6-29.961
	c-3.093-2.843-7.902-2.638-10.744,0.453c-2.842,3.092-2.639,7.903,0.453,10.744l40.065,36.82l-5.952,38.034l-32.601-29.961
	c-3.094-2.842-7.9-2.637-10.744,0.453c-2.842,3.092-2.639,7.903,0.453,10.744l40.065,36.821l-5.952,38.033L300.757,130.7
	c-3.093-2.843-7.902-2.638-10.744,0.453c-2.842,3.092-2.639,7.903,0.453,10.744l40.065,36.821l-5.952,38.033l-32.6-29.961
	c-3.093-2.842-7.9-2.637-10.744,0.453c-2.842,3.092-2.639,7.903,0.453,10.744l40.065,36.82l-5.952,38.034l-32.601-29.962
	c-3.094-2.843-7.9-2.638-10.744,0.453c-2.842,3.092-2.639,7.903,0.453,10.744l40.065,36.821l-12.065,77.1l-24.773-46.95
	c-1.959-3.714-6.557-5.135-10.273-3.176c-3.715,1.96-5.136,6.559-3.176,10.273l34.293,64.983l-17.228,110.098
	c-0.622,3.984,2.096,7.868,6.056,8.639c4.176,0.812,8.311-2.085,8.968-6.288l14.077-89.951l48.637,92.164
	c2.063,3.912,7.177,5.225,10.882,2.816c3.249-2.112,4.372-6.49,2.566-9.913L312.786,390.496z"/>
<path d="M97.071,111.318l54.131,5.564l17.967,34.046l-44.046-4.528c-4.193-0.425-7.913,2.608-8.341,6.786
	c-0.429,4.177,2.608,7.912,6.786,8.341l54.131,5.564l17.966,34.045l-44.046-4.528c-4.189-0.425-7.913,2.608-8.342,6.786
	c-0.429,4.177,2.608,7.912,6.786,8.342l54.131,5.564l17.966,34.045l-44.046-4.528c-4.192-0.424-7.913,2.609-8.342,6.786
	c-0.429,4.177,2.608,7.912,6.786,8.342l54.131,5.564l15.604,29.569c2.063,3.912,7.177,5.225,10.882,2.816
	c3.249-2.112,4.372-6.49,2.566-9.913l-15.604-29.57l25.955-47.827c2.003-3.691,0.635-8.306-3.057-10.309
	c-3.694-2.005-8.307-0.635-10.309,3.057l-21.12,38.917l-17.966-34.046l25.956-47.827c2.003-3.691,0.635-8.306-3.057-10.309
	c-3.693-2.006-8.307-0.635-10.309,3.057l-21.116,38.917l-17.967-34.046l25.955-47.828c2.003-3.691,0.635-8.306-3.057-10.309
	c-3.693-2.005-8.307-0.635-10.309,3.057l-21.119,38.917l-17.966-34.046l25.956-47.827c2.003-3.691,0.635-8.306-3.057-10.309
	c-3.694-2.005-8.308-0.635-10.309,3.057l-21.12,38.917l-19.865-37.645c-1.959-3.714-6.557-5.135-10.273-3.176
	c-3.715,1.96-5.136,6.559-3.176,10.273l19.866,37.645L98.626,96.19c-4.189-0.424-7.913,2.608-8.341,6.786
	C89.856,107.153,92.893,110.888,97.071,111.318z"/>
<path d="M151.239,371.322c4.59,0.364,8.541-3.589,8.178-8.178c-0.152-1.93-1.264-14.222-5.48-25.395
	c11.269-5.138,21.358-13.689,21.84-14.102c3.501-2.991,3.503-8.577,0-11.566c-0.492-0.421-10.568-8.956-21.841-14.098
	c4.216-11.173,5.329-23.468,5.482-25.4c0.362-4.585-3.588-8.549-8.178-8.178c-1.931,0.152-14.227,1.265-25.402,5.483
	c-5.145-11.28-13.665-21.338-14.096-21.842c-2.989-3.503-8.577-3.501-11.565,0c-0.407,0.476-8.965,10.575-14.101,21.84
	c-11.173-4.216-23.466-5.327-25.397-5.481c-4.59-0.349-8.542,3.58-8.178,8.178c0.152,1.931,1.265,14.226,5.482,25.401
	c-11.278,5.144-21.34,13.668-21.842,14.097c-3.502,2.99-3.502,8.576,0,11.565c0.522,0.445,10.554,8.94,21.844,14.09
	c-4.219,11.176-5.332,23.476-5.484,25.408c-0.363,4.589,3.588,8.542,8.178,8.178c1.93-0.152,14.224-1.265,25.397-5.481
	c5.138,11.269,13.686,21.357,14.101,21.84c2.99,3.502,8.576,3.502,11.565,0c0.425-0.497,8.957-10.565,14.1-21.84
	C137.014,370.056,149.308,371.169,151.239,371.322z M122.805,346.896c-3.753-3.753-6.403-12.33-7.917-20.104
	c7.774,1.513,16.35,4.163,20.103,7.916c3.753,3.753,6.404,12.331,7.918,20.104C135.134,353.299,126.557,350.648,122.805,346.896z
	 M158.175,317.861c-3.462,2.347-7.706,4.902-11.914,6.643c-0.172-0.184-0.341-0.373-0.517-0.549
	c-2.428-2.428-5.52-4.435-8.901-6.093c3.381-1.659,6.473-3.666,8.902-6.094c0.175-0.175,0.342-0.363,0.512-0.545
	C150.463,312.962,154.71,315.512,158.175,317.861z M134.992,301.016c-3.753,3.753-12.33,6.403-20.104,7.917
	c1.513-7.774,4.163-16.35,7.916-20.103c3.753-3.753,12.331-6.404,20.104-7.918C141.396,288.687,138.745,297.264,134.992,301.016z
	 M105.961,265.645c2.353,3.467,4.907,7.716,6.64,11.915c-0.184,0.171-0.373,0.34-0.549,0.516c-2.428,2.428-4.434,5.52-6.093,8.901
	c-1.659-3.381-3.666-6.474-6.094-8.902c-0.177-0.177-0.369-0.347-0.554-0.52C101.055,273.346,103.615,269.105,105.961,265.645z
	 M89.112,288.828c3.753,3.753,6.403,12.33,7.917,20.104c-7.774-1.513-16.35-4.163-20.103-7.916
	c-3.753-3.753-6.404-12.331-7.918-20.104C76.783,282.425,85.359,285.076,89.112,288.828z M53.744,317.859
	c3.466-2.352,7.714-4.903,11.914-6.638c0.171,0.184,0.339,0.372,0.515,0.548c2.428,2.428,5.52,4.435,8.901,6.093
	c-3.381,1.659-6.473,3.666-8.902,6.094c-0.175,0.175-0.342,0.364-0.513,0.546C61.585,322.807,57.335,320.281,53.744,317.859z
	 M76.925,334.708c3.753-3.753,12.33-6.403,20.104-7.917c-1.513,7.774-4.163,16.35-7.916,20.103
	c-3.753,3.753-12.331,6.404-20.104,7.918C70.521,347.037,73.173,338.46,76.925,334.708z M105.96,370.08
	c-2.348-3.463-4.902-7.708-6.643-11.915c0.184-0.172,0.373-0.34,0.549-0.516c2.428-2.428,4.434-5.52,6.093-8.901
	c1.659,3.381,3.666,6.474,6.094,8.902c0.175,0.175,0.364,0.342,0.546,0.513C110.861,362.366,108.311,366.614,105.96,370.08z"/>
<path d="M273.102,433.735c-0.492-0.421-10.568-8.956-21.841-14.098c4.216-11.173,5.329-23.468,5.482-25.4
	c0.362-4.588-3.588-8.544-8.178-8.178c-1.931,0.152-14.227,1.265-25.402,5.483c-5.145-11.281-13.665-21.338-14.096-21.842
	c-2.989-3.503-8.577-3.501-11.565,0c-0.407,0.477-8.965,10.575-14.101,21.84c-11.173-4.216-23.466-5.328-25.397-5.481
	c-4.59-0.365-8.541,3.591-8.178,8.178c0.152,1.931,1.265,14.226,5.482,25.401c-11.278,5.144-21.34,13.668-21.842,14.097
	c-3.502,2.99-3.502,8.576,0,11.565c0.522,0.445,10.554,8.94,21.844,14.09c-4.219,11.176-5.332,23.476-5.484,25.408
	c-0.363,4.589,3.588,8.542,8.178,8.178c1.93-0.152,14.224-1.265,25.397-5.481c5.138,11.269,13.686,21.357,14.101,21.84
	c2.99,3.502,8.576,3.502,11.565,0c0.425-0.497,8.957-10.565,14.1-21.84c11.173,4.215,23.467,5.328,25.398,5.481
	c4.59,0.364,8.541-3.589,8.178-8.178c-0.152-1.93-1.264-14.221-5.48-25.395c11.269-5.138,21.358-13.689,21.84-14.102
	C276.603,442.311,276.605,436.725,273.102,433.735z M232.316,422.671c-3.753,3.753-12.33,6.403-20.104,7.917
	c1.513-7.774,4.163-16.35,7.916-20.103c3.753-3.753,12.331-6.404,20.104-7.918C238.72,410.343,236.069,418.919,232.316,422.671z
	 M203.285,387.3c2.353,3.467,4.907,7.716,6.64,11.915c-0.184,0.171-0.373,0.34-0.549,0.516c-2.428,2.428-4.434,5.52-6.093,8.901
	c-1.659-3.381-3.666-6.474-6.094-8.902c-0.177-0.177-0.369-0.347-0.554-0.52C198.379,395.002,200.939,390.76,203.285,387.3z
	 M186.437,410.484c3.753,3.753,6.403,12.33,7.917,20.104c-7.774-1.513-16.35-4.163-20.103-7.916
	c-3.753-3.753-6.404-12.331-7.918-20.104C174.107,404.08,182.684,406.731,186.437,410.484z M151.069,439.515
	c3.466-2.352,7.714-4.903,11.914-6.638c0.171,0.184,0.339,0.372,0.515,0.548c2.428,2.428,5.52,4.435,8.901,6.093
	c-3.381,1.659-6.473,3.666-8.902,6.094c-0.175,0.175-0.342,0.364-0.513,0.546C158.909,444.463,154.659,441.937,151.069,439.515z
	 M174.249,456.364c3.753-3.753,12.33-6.403,20.104-7.917c-1.513,7.774-4.163,16.35-7.916,20.103
	c-3.753,3.753-12.331,6.404-20.104,7.918C167.846,468.693,170.497,460.116,174.249,456.364z M203.284,491.735
	c-2.348-3.463-4.902-7.708-6.643-11.915c0.183-0.172,0.373-0.34,0.549-0.516c2.428-2.428,4.434-5.52,6.093-8.901
	c1.659,3.381,3.666,6.474,6.094,8.902c0.175,0.175,0.364,0.342,0.546,0.513C208.186,484.021,205.635,488.269,203.284,491.735z
	 M220.129,468.552c-3.753-3.753-6.403-12.33-7.917-20.104c7.774,1.513,16.35,4.163,20.103,7.916
	c3.753,3.753,6.404,12.331,7.918,20.104C232.458,474.955,223.881,472.304,220.129,468.552z M243.585,446.16
	c-0.172-0.184-0.341-0.373-0.517-0.549c-2.428-2.428-5.52-4.435-8.901-6.093c3.381-1.659,6.473-3.666,8.902-6.094
	c0.175-0.175,0.342-0.363,0.512-0.545c4.206,1.738,8.453,4.288,11.918,6.637C252.037,441.864,247.793,444.419,243.585,446.16z"/>
<path d="M475.861,360.742c-0.492-0.421-10.568-8.956-21.841-14.098c4.216-11.173,5.329-23.468,5.482-25.4
	c0.175-2.218-0.63-4.402-2.203-5.976c-1.574-1.572-3.761-2.385-5.976-2.203c-1.931,0.152-14.227,1.265-25.402,5.483
	c-5.145-11.281-13.665-21.338-14.096-21.842c-2.989-3.503-8.577-3.501-11.565,0c-0.407,0.477-8.965,10.575-14.101,21.84
	c-11.173-4.216-23.466-5.327-25.397-5.481c-4.59-0.355-8.541,3.585-8.178,8.178c0.152,1.931,1.265,14.226,5.482,25.401
	c-11.278,5.144-21.34,13.668-21.842,14.097c-3.502,2.99-3.502,8.576,0,11.565c0.522,0.445,10.554,8.94,21.844,14.09
	c-4.219,11.176-5.332,23.476-5.484,25.408c-0.363,4.589,3.588,8.542,8.178,8.178c1.93-0.152,14.224-1.265,25.397-5.481
	c5.138,11.269,13.686,21.357,14.101,21.84c2.99,3.502,8.576,3.502,11.565,0c0.425-0.497,8.957-10.565,14.1-21.84
	c11.173,4.215,23.467,5.327,25.398,5.481c4.59,0.364,8.541-3.589,8.178-8.178c-0.152-1.93-1.264-14.222-5.48-25.395
	c11.269-5.138,21.358-13.689,21.84-14.102C479.362,369.317,479.364,363.731,475.861,360.742z M435.075,349.678
	c-3.753,3.753-12.33,6.403-20.104,7.917c1.513-7.774,4.163-16.35,7.916-20.103c3.753-3.753,12.331-6.404,20.104-7.918
	C441.479,337.349,438.828,345.926,435.075,349.678z M406.044,314.307c2.353,3.467,4.907,7.716,6.64,11.915
	c-0.184,0.171-0.373,0.34-0.549,0.516c-2.428,2.428-4.434,5.52-6.093,8.901c-1.659-3.381-3.666-6.474-6.094-8.902
	c-0.177-0.177-0.369-0.347-0.554-0.52C401.138,322.009,403.698,317.767,406.044,314.307z M389.196,337.49
	c3.753,3.753,6.403,12.33,7.917,20.104c-7.774-1.513-16.35-4.163-20.103-7.916c-3.753-3.753-6.404-12.331-7.918-20.104
	C376.866,331.087,385.443,333.738,389.196,337.49z M353.828,366.521c3.466-2.352,7.714-4.903,11.914-6.638
	c0.171,0.184,0.339,0.372,0.515,0.548c2.428,2.428,5.52,4.435,8.901,6.093c-3.381,1.659-6.473,3.666-8.902,6.094
	c-0.175,0.175-0.342,0.364-0.513,0.546C361.668,371.47,357.418,368.943,353.828,366.521z M377.008,383.371
	c3.753-3.753,12.33-6.403,20.104-7.917c-1.513,7.774-4.163,16.35-7.916,20.103c-3.753,3.753-12.331,6.404-20.104,7.918
	C370.605,395.699,373.256,387.123,377.008,383.371z M406.043,418.742c-2.347-3.463-4.902-7.708-6.643-11.915
	c0.184-0.172,0.373-0.34,0.549-0.516c2.428-2.428,4.434-5.52,6.093-8.901c1.659,3.381,3.666,6.474,6.094,8.902
	c0.175,0.175,0.364,0.342,0.546,0.513C410.945,411.028,408.394,415.276,406.043,418.742z M422.888,395.558
	c-3.753-3.753-6.403-12.33-7.917-20.104c7.774,1.513,16.35,4.163,20.103,7.916c3.753,3.753,6.404,12.331,7.918,20.104
	C435.217,401.962,426.64,399.311,422.888,395.558z M446.344,373.167c-0.172-0.183-0.34-0.373-0.517-0.549
	c-2.428-2.428-5.52-4.435-8.901-6.093c3.381-1.659,6.473-3.666,8.902-6.094c0.175-0.175,0.342-0.363,0.512-0.545
	c4.206,1.738,8.453,4.288,11.918,6.637C454.796,368.87,450.553,371.426,446.344,373.167z"/>
<g>
</g>
<g>
</g>
<g>
</g>
<g>
</g>
<g>
</g>
<g>
</g>
<g>
</g>
<g>
</g>
<g>
</g>
<g>
</g>
<g>
</g>
<g>
</g>
<g>
</g>
<g>
</g>
<g>
</g>
</svg>
