<?xml version="1.0" encoding="iso-8859-1"?>
<!-- Generator: Adobe Illustrator 19.0.0, SVG Export Plug-In . SVG Version: 6.00 Build 0)  -->
<svg version="1.1" id="Capa_1" xmlns="http://www.w3.org/2000/svg" xmlns:xlink="http://www.w3.org/1999/xlink" x="0px" y="0px"
	 viewBox="0 0 512 512" style="enable-background:new 0 0 512 512;" xml:space="preserve">
<rect x="239.969" y="79.656" style="fill:#967883;" width="32.063" height="40.078"/>
<path style="fill:#EA9174;" d="M368.219,79.656H143.781c-26.562,0-48.094-21.532-48.094-48.094V7.515h320.626v24.047
	C416.313,58.124,394.781,79.656,368.219,79.656z"/>
<path style="fill:#E67F5D;" d="M400.282,55.609H175.843c-26.562,0-48.094-21.532-48.094-48.094H95.687v24.047
	c0,26.562,21.532,48.094,48.094,48.094h224.438c18.251,0,34.127-10.166,42.275-25.144C407.201,55.224,403.788,55.609,400.282,55.609
	z"/>
<g>
	<polygon style="fill:#967883;" points="344.172,504.485 376.235,504.485 384.25,472.423 336.157,472.423 	"/>
	<polygon style="fill:#967883;" points="135.765,504.485 167.828,504.485 175.843,472.423 127.75,472.423 	"/>
</g>
<path style="fill:#EA9174;" d="M432.344,472.423H79.656V239.969c0-44.269,35.887-80.157,80.157-80.157h192.376
	c44.269,0,80.157,35.887,80.157,80.157V472.423z"/>
<path style="fill:#E67F5D;" d="M191.875,159.812h-32.063c-44.269,0-80.157,35.887-80.157,80.157v232.454h32.063V239.969
	C111.718,195.699,147.605,159.812,191.875,159.812z"/>
<circle style="fill:#F0ECED;" cx="256" cy="320.125" r="112.219"/>
<path style="fill:#E1D8DC;" d="M280.047,416.313c-61.977,0-112.219-50.242-112.219-112.219c0-33.77,14.919-64.053,38.523-84.626
	c-37.071,18.321-62.57,56.508-62.57,100.658c0,61.977,50.242,112.219,112.219,112.219c28.207,0,53.98-10.409,73.696-27.593
	C314.727,412.149,297.875,416.313,280.047,416.313z"/>
<circle style="fill:#FFEA7E;" cx="256" cy="320.125" r="24.047"/>
<path d="M432.344,392.099c4.15,0,7.515-3.365,7.515-7.515V239.969c0-48.342-39.329-87.671-87.671-87.671h-88.673v-25.049h8.517
	c4.15,0,7.515-3.365,7.515-7.515V87.17h88.673c30.663,0,55.609-24.946,55.609-55.609V7.515c0-4.15-3.365-7.515-7.515-7.515H95.687
	c-4.15,0-7.515,3.365-7.515,7.515v24.047c0,30.663,24.946,55.609,55.609,55.609h88.673v32.564c0,4.15,3.365,7.515,7.515,7.515h8.517
	v25.049h-88.673c-48.342,0-87.671,39.329-87.671,87.671v232.454c0,4.15,3.365,7.515,7.515,7.515h42.226l6.593,26.371
	c0.836,3.346,3.841,5.692,7.29,5.692h32.063c3.448,0,6.454-2.347,7.29-5.692l6.593-26.371H330.29l6.593,26.371
	c0.836,3.346,3.842,5.692,7.29,5.692h32.063c3.448,0,6.454-2.347,7.29-5.692l6.593-26.371h42.225c4.15,0,7.515-3.365,7.515-7.515
	v-52.435c0-4.15-3.365-7.515-7.515-7.515s-7.515,3.365-7.515,7.515v44.921H87.17V239.969c0-40.055,32.587-72.642,72.642-72.642
	h192.376c40.055,0,72.642,32.587,72.642,72.642v144.615C424.83,388.735,428.194,392.099,432.344,392.099z M103.202,31.562V15.029
	h305.597v16.532c0,22.376-18.204,40.579-40.579,40.579H143.781C121.405,72.141,103.202,53.937,103.202,31.562z M247.483,87.17
	h17.033v25.049h-17.033V87.17z M374.626,479.937l-4.258,17.033H350.04l-4.258-17.033H374.626z M166.219,479.937l-4.258,17.033
	h-20.328l-4.258-17.033H166.219z"/>
<path d="M327.046,223.809c-0.21-0.193-0.431-0.379-0.667-0.551c-0.229-0.167-0.467-0.316-0.708-0.453
	c-19.641-14.101-43.702-22.414-69.67-22.414c-25.969,0-50.03,8.314-69.67,22.415c-0.24,0.137-0.478,0.286-0.707,0.453
	c-0.236,0.172-0.457,0.358-0.667,0.551c-29.514,21.827-48.689,56.872-48.689,96.315s19.175,74.488,48.689,96.316
	c0.21,0.193,0.431,0.379,0.667,0.551c0.172,0.125,0.357,0.218,0.536,0.328c19.671,14.175,43.797,22.539,69.841,22.539
	s50.17-8.364,69.841-22.54c0.179-0.108,0.364-0.202,0.536-0.328c0.236-0.172,0.457-0.358,0.667-0.551
	c29.515-21.827,48.689-56.872,48.689-96.315S356.559,245.637,327.046,223.809z M323.434,400.155l-9.528-13.114
	c-2.439-3.358-7.138-4.102-10.497-1.662c-3.358,2.44-4.102,7.139-1.663,10.497l9.539,13.13
	c-14.054,8.774-30.327,14.31-47.771,15.553v-16.261c0-4.15-3.365-7.515-7.515-7.515c-4.15,0-7.515,3.365-7.515,7.515v16.26
	c-17.443-1.243-33.716-6.779-47.771-15.553l9.539-13.13c2.44-3.358,1.694-8.057-1.663-10.497c-3.359-2.441-8.058-1.695-10.496,1.662
	l-9.528,13.114c-12.877-10.867-23.103-24.777-29.562-40.612l15.46-5.024c3.947-1.283,6.108-5.522,4.824-9.469
	c-1.283-3.948-5.525-6.109-9.468-4.824l-15.471,5.027c-1.988-8.053-3.052-16.467-3.052-25.126s1.064-17.073,3.055-25.126
	l15.471,5.027c4.056,1.32,8.493-1.117,9.587-5.229c1.012-3.803-1.204-7.849-4.943-9.064l-15.46-5.024
	c6.459-15.835,16.685-29.745,29.562-40.612l9.528,13.114c2.596,3.574,7.877,4.111,11.146,1.133c2.792-2.544,3.231-6.913,1.013-9.966
	l-9.539-13.13c14.054-8.774,30.327-14.31,47.771-15.553v16.259c0,4.15,3.365,7.515,7.515,7.515c4.15,0,7.515-3.365,7.515-7.515
	v-16.26c17.443,1.243,33.716,6.779,47.771,15.553l-9.539,13.13c-2.218,3.054-1.78,7.423,1.013,9.966
	c3.269,2.978,8.55,2.441,11.146-1.133l9.528-13.114c12.877,10.867,23.103,24.777,29.562,40.612l-15.46,5.024
	c-3.744,1.216-5.946,5.259-4.943,9.064c1.085,4.115,5.537,6.548,9.587,5.229l15.471-5.027c1.989,8.054,3.053,16.468,3.053,25.127
	s-1.064,17.073-3.055,25.126l-15.471-5.027c-3.947-1.285-8.186,0.877-9.469,4.824c-1.283,3.947,0.878,8.186,4.824,9.469l15.46,5.024
	C346.537,375.377,336.31,389.287,323.434,400.155z"/>
<path d="M263.515,289.474V256c0-4.15-3.365-7.515-7.515-7.515c-4.15,0-7.515,3.365-7.515,7.515v33.474
	c-13.786,3.381-24.047,15.837-24.047,30.651c0,17.403,14.159,31.562,31.562,31.562s31.562-14.159,31.562-31.562
	C287.562,305.311,277.301,292.856,263.515,289.474z M256,336.658c-9.116,0-16.532-7.417-16.532-16.532s7.416-16.532,16.532-16.532
	s16.532,7.417,16.532,16.532S265.116,336.658,256,336.658z"/>
<g>
</g>
<g>
</g>
<g>
</g>
<g>
</g>
<g>
</g>
<g>
</g>
<g>
</g>
<g>
</g>
<g>
</g>
<g>
</g>
<g>
</g>
<g>
</g>
<g>
</g>
<g>
</g>
<g>
</g>
</svg>
