<?xml version="1.0" encoding="iso-8859-1"?>
<!-- Generator: Adobe Illustrator 19.0.0, SVG Export Plug-In . SVG Version: 6.00 Build 0)  -->
<svg version="1.1" id="Capa_1" xmlns="http://www.w3.org/2000/svg" xmlns:xlink="http://www.w3.org/1999/xlink" x="0px" y="0px"
	 viewBox="0 0 512 512" style="enable-background:new 0 0 512 512;" xml:space="preserve">
<rect x="179.851" y="7.515" style="fill:#FFD29A;" width="64.125" height="72.141"/>
<rect x="179.851" y="7.515" style="fill:#FFBC68;" width="24.047" height="72.141"/>
<path style="fill:#F0ECED;" d="M460.399,247.984c0-53.123-43.065-96.188-96.188-96.188c-35.453,0-66.422,19.184-83.104,47.735
	c-11.667-5.591-24.11-9.819-37.131-12.462V55.609h-64.125v131.461c-73.174,14.854-128.25,79.545-128.25,157.103
	c0,88.538,71.775,160.313,160.313,160.313s160.313-71.775,160.313-160.313c0-0.112-0.003-0.223-0.004-0.335
	C421.596,339.766,460.399,298.409,460.399,247.984z M368.977,311.915c-7.94-38.866-29.944-72.611-60.465-95.689
	c11.045-19.33,31.843-32.367,55.7-32.367c35.415,0,64.125,28.71,64.125,64.125C428.337,281.795,402.163,309.474,368.977,311.915z"/>
<path style="fill:#E1D8DC;" d="M83.663,352.188c0-77.557,55.077-142.249,128.25-157.103v-91.382h32.063V55.609h-64.125v131.461
	c-73.174,14.854-128.25,79.545-128.25,157.103c0,80.797,59.775,147.621,137.513,158.692
	C127.594,480.458,83.663,421.454,83.663,352.188z"/>
<rect x="155.804" y="55.609" style="fill:#F0ECED;" width="112.219" height="24.047"/>
<path style="fill:#FFEF9F;" d="M58.945,296.078c-4.769,15.183-7.344,31.337-7.344,48.094c0,88.538,71.775,160.313,160.313,160.313
	s160.313-71.775,160.313-160.313c0-16.757-2.575-32.911-7.344-48.094H58.945z"/>
<path style="fill:#FFEA7E;" d="M83.663,352.188c0-19.742,3.575-38.645,10.102-56.11h-34.82c-4.769,15.183-7.344,31.337-7.344,48.094
	c0,80.797,59.775,147.621,137.513,158.692C127.594,480.458,83.663,421.454,83.663,352.188z"/>
<path d="M364.211,144.282c-34.44,0-66.78,17.349-85.965,45.695c-8.658-3.73-17.616-6.721-26.755-8.933V87.17h16.532
	c4.151,0,7.515-3.365,7.515-7.515V55.609c0-4.15-3.364-7.515-7.515-7.515h-16.532V7.515c0-4.15-3.364-7.515-7.515-7.515h-64.125
	c-4.15,0-7.515,3.365-7.515,7.515v40.579h-16.532c-4.15,0-7.515,3.365-7.515,7.515v24.047c0,4.15,3.365,7.515,7.515,7.515h16.532
	v26.051c0,4.15,3.365,7.515,7.515,7.515s7.515-3.365,7.515-7.515V87.17h49.096v99.899c0,3.574,2.518,6.654,6.02,7.364
	c12.202,2.477,24.105,6.473,35.378,11.875c3.529,1.692,7.761,0.391,9.736-2.985c15.861-27.148,45.219-44.013,76.616-44.013
	c48.895,0,88.673,39.779,88.673,88.673c0,45.79-35.703,84.604-81.279,88.364c-3.899,0.322-6.897,3.578-6.897,7.49l0.004,0.335
	c0,84.254-68.545,152.798-152.798,152.798S59.115,428.426,59.115,344.172c0-13.972,1.923-27.59,5.523-40.579H359.26
	c0.89,3.24,1.677,6.516,2.354,9.826c0.719,3.52,3.816,6.011,7.357,6.011c0.185,0,0.371-0.006,0.557-0.02
	c37.191-2.735,66.324-34.11,66.324-71.426c0-39.502-32.138-71.64-71.64-71.64c-25.639,0-49.483,13.853-62.226,36.154
	c-1.875,3.28-1.022,7.444,1.992,9.723c22.761,17.211,40.082,40.219,50.289,66.344H69.658c18.525-47.14,59.916-83.62,111.688-94.13
	c3.503-0.71,6.02-3.79,6.02-7.364v-39.282c0-4.15-3.365-7.515-7.515-7.515s-7.515,3.365-7.515,7.515v33.256
	c-35.006,8.483-66.724,28.305-89.842,56.275c-24.768,29.964-38.408,67.912-38.408,106.853C44.086,436.713,119.373,512,211.914,512
	c90.406,0,164.344-71.859,167.709-161.457c23.24-3.465,44.598-14.725,60.72-32.146c17.781-19.212,27.572-44.218,27.572-70.413
	C467.914,190.803,421.393,144.282,364.211,144.282z M187.366,15.029h49.096v33.065h-49.096V15.029z M163.319,63.123h97.19v9.018
	h-97.19V63.123z M318.535,214.565c10.595-14.444,27.57-23.191,45.676-23.191c31.215,0,56.611,25.396,56.611,56.611
	c0,27.319-19.756,50.606-46.028,55.6C366.132,268.707,346.421,237.519,318.535,214.565z"/>
<path d="M108.211,352.188c0,12.983,10.563,23.546,23.546,23.546s23.546-10.563,23.546-23.546s-10.563-23.546-23.546-23.546
	S108.211,339.204,108.211,352.188z M140.274,352.188c0,4.696-3.82,8.517-8.517,8.517s-8.517-3.82-8.517-8.517
	c0-4.696,3.82-8.517,8.517-8.517S140.274,347.492,140.274,352.188z"/>
<path d="M172.337,432.344c0,12.983,10.563,23.546,23.546,23.546s23.546-10.563,23.546-23.546s-10.563-23.546-23.546-23.546
	S172.337,419.361,172.337,432.344z M204.399,432.344c0,4.696-3.82,8.517-8.517,8.517s-8.517-3.82-8.517-8.517
	c0-4.696,3.82-8.517,8.517-8.517S204.399,427.648,204.399,432.344z"/>
<path d="M252.493,344.172c0,12.983,10.563,23.546,23.546,23.546c12.983,0,23.546-10.563,23.546-23.546s-10.563-23.546-23.546-23.546
	C263.056,320.626,252.493,331.189,252.493,344.172z M284.556,344.172c0,4.696-3.82,8.517-8.517,8.517
	c-4.696,0-8.517-3.82-8.517-8.517c0-4.696,3.82-8.517,8.517-8.517C280.735,335.656,284.556,339.476,284.556,344.172z"/>
<g>
</g>
<g>
</g>
<g>
</g>
<g>
</g>
<g>
</g>
<g>
</g>
<g>
</g>
<g>
</g>
<g>
</g>
<g>
</g>
<g>
</g>
<g>
</g>
<g>
</g>
<g>
</g>
<g>
</g>
</svg>
