<?xml version="1.0" encoding="iso-8859-1"?>
<!-- Generator: Adobe Illustrator 19.0.0, SVG Export Plug-In . SVG Version: 6.00 Build 0)  -->
<svg version="1.1" id="Capa_1" xmlns="http://www.w3.org/2000/svg" xmlns:xlink="http://www.w3.org/1999/xlink" x="0px" y="0px"
	 viewBox="0 0 512 512" style="enable-background:new 0 0 512 512;" xml:space="preserve">
<path style="fill:#8BE081;" d="M400.282,31.562H256v208.407h144.282c57.55,0,104.204-46.654,104.204-104.204
	S457.832,31.562,400.282,31.562z"/>
<path style="fill:#65D557;" d="M400.282,207.906H256v32.063h144.282c57.55,0,104.204-46.654,104.204-104.204
	c0-5.452-0.421-10.805-1.227-16.031C495.547,169.672,452.38,207.906,400.282,207.906z"/>
<circle style="fill:#B2EAAB;" cx="256" cy="135.765" r="104.204"/>
<circle style="fill:#ECFAEA;" cx="256" cy="135.765" r="72.141"/>
<circle style="fill:#B2EAAB;" cx="360.204" cy="376.235" r="104.204"/>
<circle style="fill:#ECFAEA;" cx="360.204" cy="376.235" r="72.141"/>
<circle style="fill:#B2EAAB;" cx="239.969" cy="376.235" r="104.204"/>
<circle style="fill:#ECFAEA;" cx="239.969" cy="376.235" r="72.141"/>
<circle style="fill:#B2EAAB;" cx="111.718" cy="376.235" r="104.204"/>
<circle style="fill:#ECFAEA;" cx="111.718" cy="376.235" r="72.141"/>
<path d="M400.282,24.047h-16.365c-4.15,0-7.515,3.364-7.515,7.515s3.365,7.515,7.515,7.515h16.365
	c53.314,0,96.689,43.375,96.689,96.689s-43.375,96.689-96.689,96.689h-88.368c33.336-19.353,55.804-55.445,55.804-96.689
	s-22.468-77.336-55.804-96.689h36.6c4.15,0,7.515-3.364,7.515-7.515s-3.365-7.515-7.515-7.515H256
	c-61.601,0-111.718,50.117-111.718,111.718S194.399,247.483,256,247.483h144.282c61.601,0,111.718-50.117,111.718-111.718
	S461.883,24.047,400.282,24.047z M159.311,135.765c0-53.314,43.375-96.689,96.689-96.689s96.689,43.375,96.689,96.689
	S309.314,232.454,256,232.454S159.311,189.079,159.311,135.765z"/>
<path d="M335.656,135.765c0-43.923-35.734-79.656-79.656-79.656s-79.656,35.733-79.656,79.656s35.734,79.656,79.656,79.656
	S335.656,179.688,335.656,135.765z M191.374,135.765c0-35.635,28.992-64.626,64.626-64.626s64.626,28.992,64.626,64.626
	S291.635,200.391,256,200.391S191.374,171.4,191.374,135.765z"/>
<circle cx="256" cy="95.687" r="7.515"/>
<circle cx="235.961" cy="101.057" r="7.515"/>
<circle cx="221.292" cy="115.726" r="7.515"/>
<circle cx="215.922" cy="135.765" r="7.515"/>
<circle cx="221.292" cy="155.804" r="7.515"/>
<circle cx="235.961" cy="170.473" r="7.515"/>
<circle cx="256" cy="175.843" r="7.515"/>
<circle cx="276.039" cy="170.473" r="7.515"/>
<circle cx="290.708" cy="155.804" r="7.515"/>
<circle cx="296.078" cy="135.765" r="7.515"/>
<circle cx="290.708" cy="115.726" r="7.515"/>
<circle cx="276.039" cy="101.057" r="7.515"/>
<path d="M360.204,264.517c-21.438,0-42.186,6.082-60.141,17.576c-17.362-11.122-37.988-17.576-60.093-17.576
	c-23.192,0-45.303,7.011-64.153,20.27c-18.157-12.765-40.266-20.27-64.097-20.27C50.117,264.517,0,314.634,0,376.235
	s50.117,111.718,111.718,111.718c23.83,0,45.938-7.505,64.094-20.268c18.849,13.261,40.953,20.268,64.156,20.268
	c22.105,0,42.73-6.454,60.092-17.575c17.958,11.497,38.686,17.575,60.142,17.575c61.601,0,111.718-50.117,111.718-111.718
	S421.805,264.517,360.204,264.517z M15.029,376.235c0-53.314,43.375-96.689,96.689-96.689s96.689,43.375,96.689,96.689
	s-43.375,96.689-96.689,96.689S15.029,429.549,15.029,376.235z M215.683,417.136c0.159,0.109,0.319,0.218,0.489,0.316
	c3.594,2.075,8.19,0.844,10.265-2.75c2.075-3.594,0.844-8.19-2.75-10.265c-1.138-0.657-2.378-0.981-3.605-1.004
	c2.187-8.71,3.355-17.819,3.355-27.197s-1.167-18.487-3.355-27.196c1.227-0.024,2.467-0.347,3.605-1.004
	c3.594-2.075,4.825-6.671,2.75-10.265c-2.075-3.594-6.671-4.825-10.265-2.75c-0.17,0.098-0.33,0.207-0.489,0.316
	c-2.108-5.34-4.623-10.477-7.495-15.381c9.662-5.471,20.547-8.344,31.779-8.344c35.635,0,64.626,28.992,64.626,64.626
	s-28.991,64.625-64.625,64.625c-11.241,0-22.117-2.877-31.777-8.348C211.062,427.61,213.576,422.475,215.683,417.136z
	 M187.999,457.776c4.226-3.956,8.148-8.231,11.721-12.794c12.178,7.149,25.978,10.908,40.249,10.908
	c43.922,0,79.656-35.733,79.656-79.656s-35.734-79.656-79.656-79.656c-14.259,0-28.067,3.765-40.246,10.913
	c-3.573-4.564-7.496-8.84-11.722-12.796c15.508-9.924,33.333-15.151,51.967-15.151c53.314,0,96.689,43.375,96.689,96.689
	s-43.375,96.689-96.689,96.689C221.326,472.924,203.504,467.701,187.999,457.776z M334.579,316.891
	c8.044-3.469,16.794-5.282,25.624-5.282c35.635,0,64.626,28.992,64.626,64.626s-28.992,64.626-64.626,64.626
	c-8.838,0-17.575-1.819-25.621-5.287c10.829-17.205,17.104-37.551,17.104-59.339C351.687,354.445,345.411,334.097,334.579,316.891z
	 M360.204,472.924c-16.65,0-32.788-4.226-47.144-12.264c4.49-3.893,8.662-8.141,12.483-12.692
	c10.753,5.194,22.636,7.922,34.661,7.922c43.922,0,79.656-35.733,79.656-79.656s-35.734-79.656-79.656-79.656
	c-12.014,0-23.909,2.736-34.657,7.927c-3.824-4.556-8.001-8.808-12.494-12.703c14.358-8.038,30.515-12.258,47.151-12.258
	c53.314,0,96.689,43.375,96.689,96.689S413.518,472.924,360.204,472.924z"/>
<circle cx="360.204" cy="336.157" r="7.515"/>
<circle cx="360.204" cy="416.313" r="7.515"/>
<circle cx="380.243" cy="410.943" r="7.515"/>
<circle cx="394.911" cy="396.274" r="7.515"/>
<circle cx="400.282" cy="376.235" r="7.515"/>
<circle cx="394.911" cy="356.196" r="7.515"/>
<circle cx="380.243" cy="341.527" r="7.515"/>
<circle cx="239.969" cy="336.157" r="7.515"/>
<circle cx="239.969" cy="416.313" r="7.515"/>
<circle cx="260.008" cy="410.943" r="7.515"/>
<circle cx="274.676" cy="396.274" r="7.515"/>
<circle cx="280.047" cy="376.235" r="7.515"/>
<circle cx="274.676" cy="356.196" r="7.515"/>
<circle cx="260.008" cy="341.527" r="7.515"/>
<path d="M111.718,296.579c-43.922,0-79.656,35.733-79.656,79.656s35.734,79.656,79.656,79.656s79.656-35.733,79.656-79.656
	S155.64,296.579,111.718,296.579z M111.718,440.861c-35.635,0-64.626-28.992-64.626-64.626s28.992-64.626,64.626-64.626
	s64.626,28.992,64.626,64.626S147.353,440.861,111.718,440.861z"/>
<circle cx="111.718" cy="336.157" r="7.515"/>
<circle cx="91.679" cy="341.527" r="7.515"/>
<circle cx="77.009" cy="356.196" r="7.515"/>
<circle cx="71.64" cy="376.235" r="7.515"/>
<circle cx="77.009" cy="396.274" r="7.515"/>
<circle cx="91.679" cy="410.943" r="7.515"/>
<circle cx="111.718" cy="416.313" r="7.515"/>
<circle cx="131.757" cy="410.943" r="7.515"/>
<circle cx="146.426" cy="396.274" r="7.515"/>
<circle cx="151.796" cy="376.235" r="7.515"/>
<circle cx="146.426" cy="356.196" r="7.515"/>
<circle cx="131.757" cy="341.527" r="7.515"/>
<g>
</g>
<g>
</g>
<g>
</g>
<g>
</g>
<g>
</g>
<g>
</g>
<g>
</g>
<g>
</g>
<g>
</g>
<g>
</g>
<g>
</g>
<g>
</g>
<g>
</g>
<g>
</g>
<g>
</g>
</svg>
