<?xml version="1.0" encoding="iso-8859-1"?>
<!-- Generator: Adobe Illustrator 19.0.0, SVG Export Plug-In . SVG Version: 6.00 Build 0)  -->
<svg version="1.1" id="Capa_1" xmlns="http://www.w3.org/2000/svg" xmlns:xlink="http://www.w3.org/1999/xlink" x="0px" y="0px"
	 viewBox="0 0 512 512" style="enable-background:new 0 0 512 512;" xml:space="preserve">
<rect x="79.656" y="183.859" style="fill:#66C3AB;" width="224.438" height="320.626"/>
<rect x="79.656" y="183.859" style="fill:#33AF8F;" width="32.063" height="320.626"/>
<polygon style="fill:#F0ECED;" points="304.094,183.859 368.219,95.687 143.781,95.687 79.656,183.859 "/>
<g>
	<polygon style="fill:#E1D8DC;" points="143.781,95.687 79.656,183.859 111.718,183.859 175.843,95.687 	"/>
	<polygon style="fill:#E1D8DC;" points="368.219,95.687 432.344,183.859 432.344,504.485 304.094,504.485 304.094,183.859 	"/>
</g>
<path style="fill:#66C3AB;" d="M368.219,95.687H143.781V31.562c0-13.281,10.766-24.047,24.047-24.047h176.344
	c13.281,0,24.047,10.766,24.047,24.047V95.687z"/>
<path style="fill:#33AF8F;" d="M191.875,7.515h-24.047c-13.281,0-24.047,10.766-24.047,24.047v64.125h24.047V31.562
	C167.828,18.281,178.594,7.515,191.875,7.515z"/>
<path style="fill:#FFFFFF;" d="M254.683,273.498c-5.686-2.616-12.376-1.681-17.132,2.393l-45.676,39.151l-45.676-39.151
	c-4.754-4.074-11.443-5.009-17.132-2.393c-5.688,2.616-9.332,8.304-9.332,14.564v96.188c0,8.853,7.177,16.031,16.031,16.031
	s16.031-7.178,16.031-16.031v-61.332l29.645,25.41c6.004,5.146,14.863,5.146,20.867,0l29.645-25.41v61.332
	c0,8.853,7.177,16.031,16.031,16.031c8.854,0,16.031-7.178,16.031-16.031v-96.188C264.016,281.801,260.371,276.114,254.683,273.498z
	"/>
<path d="M438.421,179.439l-62.687-86.195V31.562C375.734,14.159,361.575,0,344.172,0H167.828c-17.403,0-31.562,14.159-31.562,31.562
	v61.682l-62.687,86.195c-0.923,1.272-1.438,2.847-1.438,4.42v234.458c0,4.15,3.364,7.515,7.515,7.515
	c4.151,0,7.515-3.365,7.515-7.515V191.374h209.409v305.597H87.17v-44.587c0-4.15-3.364-7.515-7.515-7.515
	c-4.151,0-7.515,3.365-7.515,7.515v52.102c0,4.15,3.364,7.515,7.515,7.515h352.689c4.151,0,7.515-3.365,7.515-7.515V183.859
	C439.859,182.271,439.356,180.724,438.421,179.439z M151.296,31.562c0-9.116,7.416-16.532,16.532-16.532h176.344
	c9.116,0,16.532,7.416,16.532,16.532v56.611H151.296V31.562z M94.413,176.344l53.195-73.143h205.854l-53.195,73.143H94.413z
	 M424.83,496.971H311.609V186.303l56.611-77.84l56.611,77.84V496.971z"/>
<path d="M247.984,407.796c12.983,0,23.546-10.563,23.546-23.546v-96.188c0-9.165-5.38-17.562-13.708-21.392
	c-8.324-3.828-18.201-2.45-25.162,3.515l-40.786,34.959l-40.787-34.96c-6.958-5.962-16.835-7.341-25.161-3.514
	c-8.327,3.829-13.708,12.227-13.708,21.392v96.188c0,12.983,10.563,23.546,23.546,23.546s23.546-10.563,23.546-23.546v-44.994
	l17.24,14.778c8.878,7.61,21.77,7.61,30.648,0l17.24-14.778v44.994C224.438,397.234,235.001,407.796,247.984,407.796z
	 M197.418,342.622c-3.211,2.753-7.874,2.753-11.086,0l-29.645-25.41c-4.781-4.099-12.405-0.579-12.405,5.705v61.333
	c0,4.696-3.82,8.517-8.517,8.517s-8.517-3.82-8.517-8.517v-96.188c0-7.119,8.644-11.107,14.059-6.467l45.676,39.151
	c2.814,2.412,6.967,2.412,9.781,0l45.674-39.149c5.42-4.643,14.061-0.66,14.061,6.465v96.188c0,4.696-3.82,8.517-8.517,8.517
	s-8.517-3.82-8.517-8.517v-61.332c0-6.269-7.618-9.811-12.405-5.705L197.418,342.622z"/>
<g>
</g>
<g>
</g>
<g>
</g>
<g>
</g>
<g>
</g>
<g>
</g>
<g>
</g>
<g>
</g>
<g>
</g>
<g>
</g>
<g>
</g>
<g>
</g>
<g>
</g>
<g>
</g>
<g>
</g>
</svg>
