<?xml version="1.0" encoding="iso-8859-1"?>
<!-- Generator: Adobe Illustrator 19.0.0, SVG Export Plug-In . SVG Version: 6.00 Build 0)  -->
<svg version="1.1" id="Capa_1" xmlns="http://www.w3.org/2000/svg" xmlns:xlink="http://www.w3.org/1999/xlink" x="0px" y="0px"
	 viewBox="0 0 512 512" style="enable-background:new 0 0 512 512;" xml:space="preserve">
<path style="fill:#F0ECED;" d="M352.188,7.515C119.734,7.515,7.515,216.924,7.515,352.188c0,84.111,36.124,152.297,120.235,152.297
	c114.223,0,96.188-168.329,224.438-192.376c87.019-16.316,152.297-68.186,152.297-152.297S436.299,7.515,352.188,7.515z"/>
<path style="fill:#E1D8DC;" d="M159.812,488.454c-84.111,0-120.235-68.186-120.235-152.297c0-97.438,58.235-233.347,177.695-301.741
	C76.157,95.262,7.515,246.399,7.515,352.188c0,84.111,36.124,152.297,120.235,152.297c23.701,0,41.705-7.252,56.506-18.955
	C176.824,487.43,168.721,488.454,159.812,488.454z"/>
<path style="fill:#EA9174;" d="M127.75,456.391c-23.996,0-40.655-7.732-52.428-24.334c-12.712-17.925-19.712-46.289-19.712-79.87
	c0-49.555,19.487-126.138,74.178-192.464c39.167-47.497,109.543-104.115,222.401-104.115c57.458,0,104.204,46.745,104.204,104.204
	c0,26.858-9.268,48.612-28.332,66.501c-19.725,18.509-49.025,31.831-84.734,38.526c-86.005,16.126-123.227,81.174-150.405,128.668
	c-11.351,19.837-22.073,38.574-33.744,50.081C149.832,452.802,141.02,456.391,127.75,456.391z"/>
<g>
	<path style="fill:#E67F5D;" d="M349.329,263.631c8.16-1.736,15.948-3.839,23.351-6.27
		C364.457,259.02,356.682,261.128,349.329,263.631z"/>
	<path style="fill:#E67F5D;" d="M107.384,424.042c-12.712-17.925-19.713-46.289-19.713-79.87
		c0-49.555,19.487-126.138,74.178-192.464c27.525-33.379,70.464-71.262,132.728-90.834c-79.891,15.104-132.773,60.022-164.791,98.85
		c-54.691,66.326-74.178,142.909-74.178,192.464c0,33.581,7.001,61.945,19.712,79.87c11.773,16.601,28.433,24.334,52.428,24.334
		c10.783,0,18.621-2.37,26.194-8.2C133.074,446.995,118.169,439.251,107.384,424.042z"/>
</g>
<circle style="fill:#F0ECED;" cx="352.188" cy="151.796" r="48.094"/>
<path d="M352.188,0c-56.064,0-108.315,11.989-155.3,35.636c-41.803,21.037-78.813,50.883-110.005,88.71
	C33.292,189.338,0,276.642,0,352.188c0,45.656,10.36,84.399,29.961,112.037C52.125,495.48,85.94,512,127.75,512
	c27.754,0,50.804-9.424,70.469-28.812c17.105-16.865,29.668-38.819,42.968-62.061c25.387-44.365,51.638-90.239,112.388-101.63
	c46.152-8.654,85.067-26.853,112.538-52.632C496.132,238.694,512,201.675,512,159.812C512,71.692,440.309,0,352.188,0z
	 M350.803,304.724c-67.575,12.671-96.841,63.814-122.662,108.938c-25.58,44.702-47.672,83.309-100.392,83.309
	c-37.254,0-66.03-13.942-85.529-41.439c-17.789-25.084-27.191-60.82-27.191-103.344c0-72.217,31.976-155.857,83.45-218.28
	C143.198,79.677,223.515,15.029,352.188,15.029c79.834,0,144.783,64.949,144.783,144.783
	C496.971,233.391,442.328,287.563,350.803,304.724z"/>
<path d="M352.188,48.094c-115.787,0-188.005,58.104-228.199,106.85c-6.177,7.491-12.108,15.356-17.63,23.378
	c-2.354,3.419-1.49,8.098,1.929,10.451c3.419,2.355,8.098,1.488,10.45-1.929c5.277-7.666,10.944-15.182,16.846-22.339
	c38.137-46.25,106.674-101.382,216.604-101.382c53.314,0,96.689,43.375,96.689,96.689c0,24.669-8.492,44.63-25.96,61.021
	c-18.677,17.525-46.678,30.189-80.977,36.621c-89.418,16.765-127.635,83.554-155.548,132.331
	c-11.086,19.373-21.557,37.672-32.492,48.452c-7.967,7.855-14.81,10.639-26.151,10.639c-21.639,0-35.918-6.528-46.298-21.166
	c-11.818-16.664-18.327-43.485-18.327-75.522c0-19.784,3.584-72.488,36.78-134.437c1.961-3.657,0.584-8.212-3.074-10.172
	c-3.656-1.96-8.212-0.583-10.173,3.074c-24.507,45.733-38.562,97.32-38.562,141.534c0,35.125,7.493,65.033,21.097,84.217
	c13.123,18.504,32.278,27.501,58.558,27.501c15.288,0,25.922-4.335,36.703-14.966c12.403-12.229,23.373-31.397,34.991-51.702
	c26.45-46.223,62.674-109.527,145.267-125.014c37.121-6.96,67.721-20.941,88.491-40.433c20.661-19.386,30.705-42.931,30.705-71.979
	C463.906,98.211,413.789,48.094,352.188,48.094z"/>
<path d="M407.796,151.796c0-30.663-24.946-55.609-55.609-55.609s-55.609,24.946-55.609,55.609s24.946,55.609,55.609,55.609
	S407.796,182.459,407.796,151.796z M311.609,151.796c0-22.376,18.204-40.579,40.579-40.579s40.579,18.204,40.579,40.579
	s-18.204,40.579-40.579,40.579S311.609,174.172,311.609,151.796z"/>
<g>
</g>
<g>
</g>
<g>
</g>
<g>
</g>
<g>
</g>
<g>
</g>
<g>
</g>
<g>
</g>
<g>
</g>
<g>
</g>
<g>
</g>
<g>
</g>
<g>
</g>
<g>
</g>
<g>
</g>
</svg>
