<?xml version="1.0" encoding="iso-8859-1"?>
<!-- Generator: Adobe Illustrator 19.0.0, SVG Export Plug-In . SVG Version: 6.00 Build 0)  -->
<svg version="1.1" id="Capa_1" xmlns="http://www.w3.org/2000/svg" xmlns:xlink="http://www.w3.org/1999/xlink" x="0px" y="0px"
	 viewBox="0 0 512 512" style="enable-background:new 0 0 512 512;" xml:space="preserve">
<path style="fill:#FFEA7E;" d="M464.407,119.734h-28.821C416.145,55.482,339.537,7.515,247.984,7.515S79.824,55.482,60.383,119.734
	H31.562c-13.281,0-24.047,10.766-24.047,24.047v16.031c0,13.281,10.766,24.047,24.047,24.047h28.821
	c19.441,64.251,96.049,112.219,187.601,112.219s168.16-47.968,187.601-112.219h28.821c13.281,0,24.047-10.766,24.047-24.047v-16.031
	C488.454,130.5,477.688,119.734,464.407,119.734z"/>
<g>
	<path style="fill:#FFE45E;" d="M272.031,272.031c-91.553,0-168.16-47.968-187.601-112.219H55.609
		c-13.281,0-24.047-10.766-24.047-24.047v-16.031c-13.281,0-24.047,10.766-24.047,24.047v16.031
		c0,13.281,10.766,24.047,24.047,24.047h28.821c19.441,64.251,96.049,112.219,187.601,112.219
		c70.174,0,131.565-28.181,165.166-70.276C378.016,254.235,327.796,272.031,272.031,272.031z"/>
	<path style="fill:#FFE45E;" d="M264.016,504.485c91.553,0,168.16-47.968,187.601-112.219h28.821
		c13.281,0,24.047-10.766,24.047-24.047v-16.031c0-13.281-10.766-24.047-24.047-24.047h-28.821
		c-19.441-64.251-96.049-112.219-187.601-112.219"/>
</g>
<circle style="fill:#FFFADF;" cx="264.016" cy="360.204" r="144.282"/>
<g>
	<path style="fill:#FFEA7E;" d="M292.118,259.839c-8.94-2.498-18.365-3.839-28.102-3.839s-19.161,1.34-28.102,3.839l28.102,76.318
		L292.118,259.839z"/>
	<path style="fill:#FFEA7E;" d="M191.147,285.684c-6.634,6.494-12.506,13.985-17.375,22.418c-4.869,8.432-8.42,17.265-10.727,26.256
		l80.145,13.822L191.147,285.684z"/>
	<path style="fill:#FFEA7E;" d="M163.045,386.049c2.307,8.992,5.858,17.823,10.727,26.256c4.868,8.433,10.741,15.924,17.375,22.418
		l52.043-62.496L163.045,386.049z"/>
	<path style="fill:#FFEA7E;" d="M235.914,460.569c8.94,2.498,18.365,3.839,28.102,3.839c9.737,0,19.161-1.34,28.102-3.839
		l-28.102-76.318L235.914,460.569z"/>
	<path style="fill:#FFEA7E;" d="M336.884,434.723c6.634-6.494,12.506-13.985,17.375-22.418c4.869-8.432,8.42-17.265,10.727-26.256
		l-80.145-13.822L336.884,434.723z"/>
	<path style="fill:#FFEA7E;" d="M364.986,334.358c-2.307-8.992-5.858-17.823-10.727-26.256
		c-4.868-8.433-10.741-15.924-17.375-22.418l-52.043,62.496L364.986,334.358z"/>
</g>
<circle cx="223.937" cy="63.624" r="7.515"/>
<circle cx="168.329" cy="151.296" r="7.515"/>
<circle cx="120.235" cy="119.233" r="7.515"/>
<circle cx="167.327" cy="87.17" r="7.515"/>
<circle cx="223.436" cy="127.249" r="7.515"/>
<circle cx="279.546" cy="95.186" r="7.515"/>
<path d="M480.438,320.626h-23.382c-9.596-27.084-29.151-51.807-56.082-71.062c18.786-16.95,32.496-36.841,40.051-58.191h23.381
	c17.403,0,31.562-14.159,31.562-31.562v-16.031c0-17.403-14.159-31.562-31.562-31.562h-23.382
	c-11.201-31.63-35.908-59.95-70.127-80.209c-3.567-2.113-8.179-0.935-10.294,2.639c-2.114,3.57-0.933,8.18,2.639,10.294
	c32.886,19.469,56.023,46.802,65.149,76.965c0.959,3.17,3.881,5.338,7.193,5.338h28.821c9.116,0,16.532,7.415,16.532,16.532v16.031
	c0,9.116-7.417,16.532-16.532,16.532h-28.822c-3.312,0-6.234,2.168-7.193,5.338c-6.61,21.846-20.566,42.283-40.455,59.344
	c-35.56-21.339-78.384-32.619-123.921-32.619c-47.928,0-90.731,22.334-118.571,57.134c-39.319-19.494-67.582-49.858-77.868-83.858
	c-0.959-3.17-3.881-5.338-7.193-5.338H31.562c-9.117,0-16.532-7.416-16.532-16.532v-16.031c0-9.116,7.415-16.532,16.532-16.532
	h28.822c3.312,0,6.234-2.168,7.193-5.338c18.738-61.931,94.61-106.881,180.407-106.881c29.923,0,58.481,5.142,84.881,15.284
	c3.876,1.487,8.221-0.446,9.709-4.32c1.488-3.875-0.445-8.221-4.32-9.709C310.129,5.479,279.757,0,247.984,0
	C202.1,0,158.966,11.447,123.247,33.104c-33.25,20.158-57.31,48.089-68.303,79.116H31.562C14.159,112.219,0,126.378,0,143.781
	v16.031c0,17.403,14.159,31.562,31.562,31.562h23.383c12.457,35.12,41.738,66.143,81.597,86.503
	c-15.379,23.731-24.322,52.003-24.322,82.327c0,83.7,68.096,151.796,151.796,151.796c45.885,0,89.018-11.447,124.738-33.104
	c33.25-20.158,57.31-48.089,68.303-79.116h23.382c17.403,0,31.562-14.159,31.562-31.562v-16.031
	C512,334.785,497.841,320.626,480.438,320.626z M127.249,360.204c0-75.414,61.353-136.767,136.767-136.767
	s136.767,61.353,136.767,136.767S339.43,496.971,264.016,496.971S127.249,435.618,127.249,360.204z M496.971,368.219
	c0,9.116-7.417,16.532-16.532,16.532h-28.822c-3.312,0-6.234,2.168-7.193,5.338c-10.956,36.211-41.45,66.61-82.034,85.619
	c32.669-27.863,53.423-69.303,53.423-115.506s-20.755-87.642-53.423-115.506c40.584,19.009,71.079,49.41,82.034,85.619
	c0.959,3.17,3.881,5.338,7.193,5.338h28.822c9.116,0,16.532,7.417,16.532,16.532V368.219z"/>
<path d="M256.964,338.754c1.076,2.923,3.939,4.918,7.052,4.918s5.976-1.996,7.052-4.918l28.102-76.319
	c1.496-4.062-0.871-8.672-5.031-9.834c-19.55-5.46-40.697-5.46-60.247,0c-4.159,1.162-6.527,5.772-5.031,9.834L256.964,338.754z
	 M282.13,265.212l-18.114,49.197l-18.114-49.197C257.803,262.956,270.228,262.956,282.13,265.212z"/>
<path d="M161.768,341.764l80.146,13.822c6.732,1.171,11.424-6.963,7.052-12.214l-52.043-62.496
	c-2.768-3.323-7.941-3.586-11.032-0.562c-7.25,7.097-13.517,15.182-18.626,24.031c-5.109,8.848-8.978,18.318-11.499,28.146
	C154.691,336.681,157.511,341.03,161.768,341.764z M180.281,311.859c3.051-5.283,6.576-10.251,10.528-14.84l33.549,40.287
	l-51.664-8.91C174.691,322.68,177.23,317.142,180.281,311.859z"/>
<path d="M249.699,368.47c-1.573-2.727-4.681-4.184-7.785-3.648l-80.146,13.822c-4.258,0.733-7.078,5.082-6.002,9.273
	c2.522,9.828,6.39,19.298,11.499,28.146c5.109,8.849,11.376,16.934,18.626,24.031c3.091,3.024,8.265,2.758,11.032-0.562
	l52.043-62.496C250.98,374.617,251.273,371.197,249.699,368.47z M190.809,423.388c-3.951-4.588-7.477-9.556-10.528-14.84
	c-3.051-5.284-5.59-10.821-7.588-16.537l51.664-8.91L190.809,423.388z"/>
<path d="M294.139,467.808c4.16-1.162,6.526-5.773,5.03-9.834l-28.102-76.319c-1.076-2.923-3.939-4.918-7.052-4.918
	s-5.976,1.996-7.052,4.918l-28.103,76.318c-1.496,4.062,0.87,8.672,5.03,9.834c9.775,2.73,19.911,4.115,30.125,4.115
	C274.233,471.922,284.368,470.537,294.139,467.808z M264.016,405.998l18.115,49.198c-11.899,2.254-24.33,2.255-36.231-0.001
	L264.016,405.998z"/>
<path d="M366.263,378.644l-80.146-13.822c-6.731-1.167-11.425,6.962-7.052,12.214l52.043,62.496c2.765,3.32,7.94,3.586,11.032,0.562
	c7.25-7.097,13.517-15.182,18.626-24.031c5.109-8.848,8.978-18.318,11.499-28.146C373.34,383.726,370.521,379.377,366.263,378.644z
	 M347.75,408.548c-3.051,5.283-6.576,10.251-10.528,14.84l-33.549-40.287l51.664,8.91
	C353.34,397.727,350.801,403.265,347.75,408.548z"/>
<path d="M278.333,351.937c1.556,2.696,4.715,4.181,7.785,3.648l80.146-13.822c4.258-0.733,7.078-5.082,6.002-9.273
	c-2.522-9.828-6.39-19.298-11.499-28.146c-5.109-8.849-11.376-16.934-18.626-24.031c-3.09-3.024-8.263-2.76-11.032,0.562
	l-52.042,62.495C277.051,345.79,276.759,349.21,278.333,351.937z M337.223,297.019c3.951,4.588,7.477,9.556,10.528,14.84
	s5.59,10.821,7.588,16.537l-51.664,8.91L337.223,297.019z"/>
<g>
</g>
<g>
</g>
<g>
</g>
<g>
</g>
<g>
</g>
<g>
</g>
<g>
</g>
<g>
</g>
<g>
</g>
<g>
</g>
<g>
</g>
<g>
</g>
<g>
</g>
<g>
</g>
<g>
</g>
</svg>
