<?xml version="1.0" encoding="iso-8859-1"?>
<!-- Generator: Adobe Illustrator 19.0.0, SVG Export Plug-In . SVG Version: 6.00 Build 0)  -->
<svg version="1.1" id="Capa_1" xmlns="http://www.w3.org/2000/svg" xmlns:xlink="http://www.w3.org/1999/xlink" x="0px" y="0px"
	 viewBox="0 0 512 512" style="enable-background:new 0 0 512 512;" xml:space="preserve">
<g>
	<g>
		<path d="M135.765,272.532c-26.242,0-47.593,21.351-47.593,47.593s21.351,47.593,47.593,47.593
			c26.242,0,47.593-21.351,47.593-47.593S162.007,272.532,135.765,272.532z M135.765,352.689c-17.956,0-32.564-14.609-32.564-32.564
			s14.608-32.564,32.564-32.564c17.956,0,32.564,14.609,32.564,32.564S153.721,352.689,135.765,352.689z"/>
	</g>
</g>
<g>
	<g>
		<path d="M231.953,368.72c-17.403,0-31.562,14.159-31.562,31.562s14.159,31.562,31.562,31.562
			c17.403,0,31.562-14.159,31.562-31.562S249.356,368.72,231.953,368.72z M231.953,416.814c-9.116,0-16.532-7.417-16.532-16.532
			s7.417-16.532,16.532-16.532c9.116,0,16.532,7.417,16.532,16.532S241.069,416.814,231.953,416.814z"/>
	</g>
</g>
<g>
	<g>
		<path d="M312.11,264.517c-17.403,0-31.562,14.159-31.562,31.562c0,17.403,14.159,31.562,31.562,31.562
			c17.403,0,31.562-14.159,31.562-31.562C343.671,278.675,329.513,264.517,312.11,264.517z M312.11,312.61
			c-9.116,0-16.532-7.416-16.532-16.532c0-9.116,7.417-16.532,16.532-16.532c9.116,0,16.532,7.417,16.532,16.532
			C328.642,305.194,321.225,312.61,312.11,312.61z"/>
	</g>
</g>
<g>
	<g>
		<path d="M456.391,296.579c-17.403,0-31.562,14.159-31.562,31.562c0,17.403,14.159,31.562,31.562,31.562
			c17.403,0,31.562-14.159,31.562-31.562C487.953,310.738,473.794,296.579,456.391,296.579z M456.391,344.673
			c-9.116,0-16.532-7.416-16.532-16.532c0-9.116,7.417-16.532,16.532-16.532c9.116,0,16.532,7.417,16.532,16.532
			C472.924,337.257,465.507,344.673,456.391,344.673z"/>
	</g>
</g>
<g>
	<g>
		<path d="M511.828,238.37c-6.467-29.717-21.737-73.885-57.769-115.538c-36.419-42.101-78.443-63.628-107.285-74.274
			c-2.039-0.751-4.303-0.586-6.211,0.459L3.906,233.378c-2.655,1.454-4.076,4.277-3.881,7.111C0.014,240.649,0,240.808,0,240.971
			v215.421c0,4.15,3.364,7.515,7.515,7.515h496.971c4.151,0,7.515-3.365,7.515-7.515V240.971
			C512,240.1,512.014,239.228,511.828,238.37z M49.971,448.877c3.402-14.345,16.319-25.049,31.689-25.049
			s28.287,10.704,31.689,25.049H49.971z M416.556,448.877h-64.61c-5.357-7.038-8.274-15.639-8.274-24.548
			c0-22.376,18.204-40.579,40.579-40.579c22.376,0,40.579,18.204,40.579,40.579C424.83,433.238,421.913,441.839,416.556,448.877z
			 M496.971,448.877h-62.824c3.73-7.575,5.712-15.956,5.712-24.548c0-30.663-24.946-55.609-55.609-55.609
			s-55.609,24.946-55.609,55.609c0,8.592,1.982,16.973,5.712,24.548H128.653c-3.614-22.684-23.309-40.078-46.994-40.078
			s-43.38,17.394-46.994,40.078H15.029V248.485h397.61c4.151,0,7.515-3.365,7.515-7.515s-3.364-7.515-7.515-7.515H35.052
			L344.751,63.859c27.034,10.419,64.931,30.646,97.941,68.807c30.819,35.629,45.523,73.208,52.536,100.79h-46.519
			c-4.151,0-7.515,3.365-7.515,7.515s3.364,7.515,7.515,7.515h48.261V448.877z"/>
	</g>
</g>
<g>
</g>
<g>
</g>
<g>
</g>
<g>
</g>
<g>
</g>
<g>
</g>
<g>
</g>
<g>
</g>
<g>
</g>
<g>
</g>
<g>
</g>
<g>
</g>
<g>
</g>
<g>
</g>
<g>
</g>
</svg>
