<?xml version="1.0" encoding="iso-8859-1"?>
<!-- Generator: Adobe Illustrator 19.0.0, SVG Export Plug-In . SVG Version: 6.00 Build 0)  -->
<svg version="1.1" id="Capa_1" xmlns="http://www.w3.org/2000/svg" xmlns:xlink="http://www.w3.org/1999/xlink" x="0px" y="0px"
	 viewBox="0 0 512 512" style="enable-background:new 0 0 512 512;" xml:space="preserve">
<rect x="15.515" y="240.985" style="fill:#FFFADF;" width="496.485" height="215.21"/>
<rect x="15.515" y="240.985" style="fill:#FFF4BF;" width="24.023" height="215.21"/>
<g>
	<circle style="fill:#FFEF9F;" cx="135.632" cy="320.062" r="40.039"/>
	<circle style="fill:#FFEF9F;" cx="231.726" cy="400.141" r="24.023"/>
	<circle style="fill:#FFEF9F;" cx="311.805" cy="296.039" r="24.023"/>
	<circle style="fill:#FFEF9F;" cx="455.945" cy="328.07" r="24.023"/>
	<path style="fill:#FFEF9F;" d="M431.922,424.164c0-26.536-21.511-48.047-48.047-48.047s-48.047,21.511-48.047,48.047
		c0,12.308,4.634,23.53,12.244,32.031h71.606C427.288,447.694,431.922,436.472,431.922,424.164z"/>
	<path style="fill:#FFEF9F;" d="M81.58,416.156c-22.113,0-40.039,17.927-40.039,40.039h80.078
		C121.619,434.083,103.692,416.156,81.58,416.156z"/>
</g>
<path style="fill:#E67F5D;" d="M7.507,239.984h496.485c-4.822-22.156-17.906-68.008-56.055-112.109
	c-38.638-44.667-82.812-64.212-104.102-72.07C231.726,117.197,119.617,178.591,7.507,239.984z"/>
<path d="M135.632,272.516c-26.217,0-47.546,21.33-47.546,47.546s21.33,47.546,47.546,47.546s47.546-21.33,47.546-47.546
	S161.849,272.516,135.632,272.516z M135.632,352.594c-17.939,0-32.532-14.594-32.532-32.532s14.593-32.532,32.532-32.532
	s32.532,14.594,32.532,32.532S153.571,352.594,135.632,352.594z"/>
<path d="M231.726,368.61c-17.386,0-31.531,14.145-31.531,31.531c0,17.386,14.145,31.531,31.531,31.531s31.531-14.145,31.531-31.531
	C263.257,382.755,249.112,368.61,231.726,368.61z M231.726,416.657c-9.107,0-16.516-7.409-16.516-16.516
	c0-9.107,7.409-16.516,16.516-16.516c9.107,0,16.516,7.409,16.516,16.516C248.242,409.247,240.833,416.657,231.726,416.657z"/>
<path d="M311.805,264.508c-17.386,0-31.531,14.145-31.531,31.531c0,17.386,14.145,31.531,31.531,31.531
	c17.386,0,31.531-14.145,31.531-31.531C343.335,278.653,329.19,264.508,311.805,264.508z M311.805,312.555
	c-9.107,0-16.516-7.409-16.516-16.516c0-9.107,7.409-16.516,16.516-16.516c9.107,0,16.516,7.409,16.516,16.516
	C328.321,305.146,320.911,312.555,311.805,312.555z"/>
<path d="M424.414,328.07c0,17.386,14.145,31.531,31.531,31.531c17.386,0,31.531-14.145,31.531-31.531
	c0-17.386-14.145-31.531-31.531-31.531C438.559,296.539,424.414,310.684,424.414,328.07z M455.945,311.554
	c9.107,0,16.516,7.409,16.516,16.516c0,9.107-7.409,16.516-16.516,16.516c-9.107,0-16.516-7.409-16.516-16.516
	C439.429,318.963,446.838,311.554,455.945,311.554z"/>
<path d="M511.327,238.388c-6.46-29.688-21.716-73.813-57.712-115.425c-36.384-42.06-78.367-63.566-107.18-74.201
	c-2.037-0.751-4.299-0.586-6.205,0.458L3.902,233.4c-2.653,1.452-4.072,4.273-3.877,7.104C0.014,240.664,0,240.823,0,240.985v215.21
	c0,4.146,3.36,7.507,7.507,7.507h496.485c4.147,0,7.507-3.361,7.507-7.507v-215.21C511.5,240.115,511.514,239.244,511.327,238.388z
	 M49.922,448.688c3.398-14.331,16.303-25.024,31.658-25.024s28.26,10.693,31.658,25.024H49.922z M351.601,448.688
	c-5.352-7.031-8.266-15.623-8.266-24.524c0-22.354,18.186-40.54,40.54-40.54s40.54,18.186,40.54,40.54
	c0,8.901-2.914,17.493-8.266,24.524H351.601z M496.485,448.688h-62.762c3.727-7.567,5.707-15.941,5.707-24.524
	c0-30.633-24.921-55.554-55.554-55.554s-55.554,24.921-55.554,55.554c0,8.583,1.98,16.957,5.707,24.524h-205.5
	c-3.611-22.662-23.286-40.039-46.948-40.039s-43.337,17.377-46.948,40.039H15.015V248.492h397.221c4.147,0,7.507-3.361,7.507-7.507
	c0-4.146-3.36-7.507-7.507-7.507H35.018L344.414,64.046c27.007,10.409,64.867,30.616,97.846,68.74
	c30.789,35.594,45.478,73.136,52.484,100.691h-46.473c-4.147,0-7.507,3.361-7.507,7.507c0,4.146,3.36,7.507,7.507,7.507h48.214
	V448.688z"/>
<g>
</g>
<g>
</g>
<g>
</g>
<g>
</g>
<g>
</g>
<g>
</g>
<g>
</g>
<g>
</g>
<g>
</g>
<g>
</g>
<g>
</g>
<g>
</g>
<g>
</g>
<g>
</g>
<g>
</g>
</svg>
