<svg xmlns="http://www.w3.org/2000/svg" xmlns:xlink="http://www.w3.org/1999/xlink" version="1.1" x="0px" y="0px" viewBox="0 0 64 80" enable-background="new 0 0 64 64" xml:space="preserve"><g display="none"><g display="inline"><path fill="#000000" d="M3,13.04v-0.08C3,10.773,4.773,9,6.96,9h4.08C13.227,9,15,10.773,15,12.96v0.08    c0,2.187-1.773,3.96-3.96,3.96H6.96C4.773,17,3,15.227,3,13.04z"/><path d="M11,14H9c-0.553,0-1-0.448-1-1s0.447-1,1-1h2c0.553,0,1,0.448,1,1S11.553,14,11,14z"/><g><circle fill="#000000" cx="32" cy="50" r="5"/><path d="M32,56c-3.309,0-6-2.691-6-6s2.691-6,6-6s6,2.691,6,6S35.309,56,32,56z M32,46c-2.206,0-4,1.794-4,4s1.794,4,4,4     s4-1.794,4-4S34.206,46,32,46z"/></g><rect x="31" y="49" width="2" height="2"/><g><circle fill="#000000" cx="48" cy="50" r="5"/><path d="M48,56c-3.309,0-6-2.691-6-6s2.691-6,6-6s6,2.691,6,6S51.309,56,48,56z M48,46c-2.206,0-4,1.794-4,4s1.794,4,4,4     s4-1.794,4-4S50.206,46,48,46z"/></g><rect x="47" y="49" width="2" height="2"/><path d="M61.775,16.369C61.586,16.136,61.301,16,61,16H20.658l-0.681-3.17c-0.099-0.461-0.506-0.79-0.978-0.79h-3.093    C15.474,9.744,13.46,8,11.04,8H6.96C4.225,8,2,10.225,2,13.04C2,15.775,4.225,18,6.96,18h4.08c2.374,0,4.357-1.678,4.842-3.96    h2.309l5.831,27.17C24.121,41.671,24.528,42,25,42h31c0.474,0,0.883-0.333,0.979-0.796l5-24    C62.04,16.909,61.966,16.603,61.775,16.369z M11.04,16H6.96C5.328,16,4,14.672,4,12.96C4,11.328,5.328,10,6.96,10h4.08    c1.632,0,2.96,1.328,2.96,3.04C14,14.672,12.672,16,11.04,16z M58.937,22H52.18l0.667-4h6.923L58.937,22z M23.662,30h5.491    l0.667,4h-5.299L23.662,30z M41,22v-4h9.82l-0.667,4H41z M49.82,24l-0.667,4H41v-4H49.82z M39,22h-9.153l-0.667-4H39V22z M39,24v4    h-8.153l-0.667-4H39z M28.82,28h-5.586l-0.859-4h5.778L28.82,28z M31.18,30H39v4h-7.153L31.18,30z M39,36v4h-6.153l-0.667-4H39z     M41,36h6.82l-0.667,4H41V36z M41,34v-4h7.82l-0.667,4H41z M50.847,30h6.423l-0.833,4H50.18L50.847,30z M51.18,28l0.667-4h6.673    l-0.833,4H51.18z M27.153,18l0.667,4h-5.874l-0.858-4H27.153z M24.95,36h5.203l0.667,4h-5.011L24.95,36z M55.187,40H49.18l0.667-4    h6.173L55.187,40z"/><rect x="6" y="23" width="8" height="2"/><rect x="16" y="23" width="2" height="2"/><rect x="6" y="35" width="2" height="2"/><rect x="10" y="35" width="8" height="2"/><rect x="9" y="29" width="5" height="2"/><rect x="4" y="29" width="3" height="2"/><rect x="16" y="29" width="2" height="2"/></g></g><g display="none"><g display="inline"><path fill="#000000" d="M33,54c-2.757,0-5-2.243-5-5s2.243-5,5-5s5,2.243,5,5S35.757,54,33,54z M33,45.667    c-1.838,0-3.333,1.495-3.333,3.333s1.495,3.333,3.333,3.333s3.333-1.495,3.333-3.333S34.838,45.667,33,45.667z"/><path fill="#000000" d="M47,54c-2.757,0-5-2.243-5-5s2.243-5,5-5s5,2.243,5,5S49.757,54,47,54z M47,45.667    c-1.838,0-3.333,1.495-3.333,3.333s1.495,3.333,3.333,3.333s3.333-1.495,3.333-3.333S48.838,45.667,47,45.667z"/><path fill="#000000" d="M61.775,16.369C61.586,16.136,61.301,16,61,16H20.658l-0.681-3.17c-0.099-0.461-0.506-0.79-0.978-0.79h-4    v2h3.191l5.831,27.17C24.121,41.671,24.528,42,25,42h31c0.474,0,0.883-0.333,0.979-0.796l5-24    C62.04,16.909,61.966,16.603,61.775,16.369z M58.937,22H52.18l0.667-4h6.923L58.937,22z M23.662,30h5.491l0.667,4h-5.299    L23.662,30z M41,22v-4h9.82l-0.667,4H41z M49.82,24l-0.667,4H41v-4H49.82z M39,22h-9.153l-0.667-4H39V22z M39,24v4h-8.153    l-0.667-4H39z M28.82,28h-5.586l-0.859-4h5.778L28.82,28z M31.18,30H39v4h-7.153L31.18,30z M39,36v4h-6.153l-0.667-4H39z M41,36    h6.82l-0.667,4H41V36z M41,34v-4h7.82l-0.667,4H41z M50.847,30h6.423l-0.833,4H50.18L50.847,30z M51.18,28l0.667-4h6.673l-0.833,4    H51.18z M27.153,18l0.667,4h-5.874l-0.858-4H27.153z M24.95,36h5.203l0.667,4h-5.011L24.95,36z M55.187,40H49.18l0.667-4h6.173    L55.187,40z"/><rect x="6" y="23" fill="#000000" width="8" height="2"/><rect x="16" y="23" fill="#000000" width="2" height="2"/><rect x="6" y="35" fill="#000000" width="2" height="2"/><rect x="10" y="35" fill="#000000" width="8" height="2"/><rect x="9" y="29" fill="#000000" width="5" height="2"/><rect x="4" y="29" fill="#000000" width="3" height="2"/><rect x="16" y="29" fill="#000000" width="2" height="2"/><path fill="#000000" d="M11.04,8H6.96C4.225,8,2,10.225,2,13.04C2,15.775,4.225,18,6.96,18h4.08c2.735,0,4.96-2.225,4.96-5.04    C16,10.225,13.775,8,11.04,8z"/><path fill="#000000" d="M11,14H9c-0.553,0-1-0.448-1-1s0.447-1,1-1h2c0.553,0,1,0.448,1,1S11.553,14,11,14z"/></g></g><g><g><path d="M11,12H9c-0.553,0-1,0.448-1,1s0.447,1,1,1h2c0.553,0,1-0.448,1-1S11.553,12,11,12z"/><path d="M61.775,16.369C61.586,16.136,61.301,16,61,16H20.658l-0.681-3.17c-0.099-0.461-0.506-0.79-0.978-0.79h-3.093    C15.474,9.744,13.46,8,11.04,8H6.96C4.225,8,2,10.225,2,13.04C2,15.775,4.225,18,6.96,18h4.08c2.374,0,4.357-1.678,4.842-3.96    h2.309l5.831,27.17C24.121,41.671,24.528,42,25,42h31c0.474,0,0.883-0.333,0.979-0.796l5-24    C62.04,16.909,61.966,16.603,61.775,16.369z M11.04,16H6.96C5.328,16,4,14.672,4,12.96C4,11.328,5.328,10,6.96,10h4.08    c1.632,0,2.96,1.328,2.96,3.04C14,14.672,12.672,16,11.04,16z M58.937,22H52.18l0.667-4h6.923L58.937,22z M23.662,30h5.491    l0.667,4h-5.299L23.662,30z M41,22v-4h9.82l-0.667,4H41z M49.82,24l-0.667,4H41v-4H49.82z M39,22h-9.153l-0.667-4H39V22z M39,24v4    h-8.153l-0.667-4H39z M28.82,28h-5.586l-0.859-4h5.778L28.82,28z M31.18,30H39v4h-7.153L31.18,30z M39,36v4h-6.153l-0.667-4H39z     M41,36h6.82l-0.667,4H41V36z M41,34v-4h7.82l-0.667,4H41z M50.847,30h6.423l-0.833,4H50.18L50.847,30z M51.18,28l0.667-4h6.673    l-0.833,4H51.18z M27.153,18l0.667,4h-5.874l-0.858-4H27.153z M24.95,36h5.203l0.667,4h-5.011L24.95,36z M55.187,40H49.18l0.667-4    h6.173L55.187,40z"/><path d="M32,44c-3.309,0-6,2.691-6,6s2.691,6,6,6s6-2.691,6-6S35.309,44,32,44z M32,54c-2.206,0-4-1.794-4-4s1.794-4,4-4    s4,1.794,4,4S34.206,54,32,54z"/><rect x="31" y="49" width="2" height="2"/><path d="M48,44c-3.309,0-6,2.691-6,6s2.691,6,6,6s6-2.691,6-6S51.309,44,48,44z M48,54c-2.206,0-4-1.794-4-4s1.794-4,4-4    s4,1.794,4,4S50.206,54,48,54z"/><rect x="47" y="49" width="2" height="2"/><rect x="6" y="23" width="8" height="2"/><rect x="16" y="23" width="2" height="2"/><rect x="6" y="35" width="2" height="2"/><rect x="10" y="35" width="8" height="2"/><rect x="9" y="29" width="5" height="2"/><rect x="4" y="29" width="3" height="2"/><rect x="16" y="29" width="2" height="2"/></g></g><g display="none"><g display="inline"><path fill="none" stroke="#000000" stroke-width="2" stroke-linejoin="round" stroke-miterlimit="10" d="M3,13.04v-0.08    C3,10.773,4.773,9,6.96,9h4.08C13.227,9,15,10.773,15,12.96v0.08c0,2.187-1.773,3.96-3.96,3.96H6.96C4.773,17,3,15.227,3,13.04z"/><line fill="none" stroke="#000000" stroke-width="2" stroke-linecap="round" stroke-miterlimit="10" x1="11" y1="13" x2="9" y2="13"/><polyline fill="none" stroke="#000000" stroke-width="2" stroke-linejoin="round" stroke-miterlimit="10" points="15,13.04     19,13.04 25,41 56,41 61,17 20,17   "/><circle fill="none" stroke="#000000" stroke-width="2" stroke-linejoin="round" stroke-miterlimit="10" cx="32" cy="50" r="5"/><line fill="none" stroke="#000000" stroke-width="2" stroke-linejoin="round" stroke-miterlimit="10" x1="31" y1="50" x2="33" y2="50"/><circle fill="none" stroke="#000000" stroke-width="2" stroke-linejoin="round" stroke-miterlimit="10" cx="48" cy="50" r="5"/><line fill="none" stroke="#000000" stroke-width="2" stroke-linejoin="round" stroke-miterlimit="10" x1="47" y1="50" x2="49" y2="50"/><line fill="none" stroke="#000000" stroke-width="2" stroke-miterlimit="10" x1="21" y1="23" x2="60" y2="23"/><line fill="none" stroke="#000000" stroke-width="2" stroke-miterlimit="10" x1="22" y1="29" x2="58.5" y2="29"/><line fill="none" stroke="#000000" stroke-width="2" stroke-miterlimit="10" x1="24" y1="35" x2="57" y2="35"/><line fill="none" stroke="#000000" stroke-width="2" stroke-miterlimit="10" x1="40" y1="41" x2="40" y2="17"/><line fill="none" stroke="#000000" stroke-width="2" stroke-miterlimit="10" x1="48" y1="41" x2="52" y2="17"/><line fill="none" stroke="#000000" stroke-width="2" stroke-miterlimit="10" x1="32" y1="41" x2="28" y2="17"/><line fill="none" stroke="#000000" stroke-width="2" stroke-miterlimit="10" x1="6" y1="24" x2="14" y2="24"/><line fill="none" stroke="#000000" stroke-width="2" stroke-miterlimit="10" x1="16" y1="24" x2="18" y2="24"/><line fill="none" stroke="#000000" stroke-width="2" stroke-miterlimit="10" x1="6" y1="36" x2="8" y2="36"/><line fill="none" stroke="#000000" stroke-width="2" stroke-miterlimit="10" x1="10" y1="36" x2="18" y2="36"/><line fill="none" stroke="#000000" stroke-width="2" stroke-miterlimit="10" x1="9" y1="30" x2="14" y2="30"/><line fill="none" stroke="#000000" stroke-width="2" stroke-miterlimit="10" x1="4" y1="30" x2="7" y2="30"/><line fill="none" stroke="#000000" stroke-width="2" stroke-miterlimit="10" x1="16" y1="30" x2="18" y2="30"/></g></g><text x="0" y="79" fill="#000000" font-size="5px" font-weight="bold" font-family="'Helvetica Neue', Helvetica, Arial-Unicode, Arial, Sans-serif">Created by Petai Jantrapoon</text><text x="0" y="84" fill="#000000" font-size="5px" font-weight="bold" font-family="'Helvetica Neue', Helvetica, Arial-Unicode, Arial, Sans-serif">from the Noun Project</text></svg>