<svg xmlns="http://www.w3.org/2000/svg" xmlns:xlink="http://www.w3.org/1999/xlink" version="1.1" x="0px" y="0px" viewBox="0 0 42 52.5" style="enable-background:new 0 0 42 42;" xml:space="preserve"><path d="M35.3,8H6.7C5.7,8,5,8.7,5,9.7v16.7C5,27.3,5.7,28,6.7,28h28.7c0.9,0,1.7-0.7,1.7-1.7V9.7  C37,8.7,36.3,8,35.3,8z M31.1,26H10.9c-0.2-2.5-1.4-3.7-3.9-3.9v-8.1c2.5-0.2,3.7-1.4,3.9-3.9h20.1c0.2,2.5,1.4,3.7,3.9,3.9v8.1  C32.5,22.3,31.3,23.5,31.1,26z M35,11.9c-1.3-0.1-1.8-0.6-1.9-1.9H35V11.9z M8.9,10c-0.1,1.3-0.7,1.8-1.9,1.9V10H8.9z M7,24.1  c1.3,0.1,1.8,0.7,1.9,1.9H7V24.1z M33.1,26c0.1-1.3,0.6-1.8,1.9-1.9V26H33.1z"/><path d="M24,16c0.6,0,1-0.4,1-1s-0.4-1-1-1h-2v-1c0-0.6-0.4-1-1-1s-1,0.4-1,1v1h-1c-1.1,0-2,0.9-2,2v1  c0,1.1,0.9,2,2,2h4v1h-5c-0.6,0-1,0.4-1,1s0.4,1,1,1h2v1c0,0.6,0.4,1,1,1s1-0.4,1-1v-1h1c1.1,0,2-0.9,2-2v-1c0-1.1-0.9-2-2-2h-4v-1  H24z"/><path d="M36,29H6c-0.6,0-1,0.4-1,1s0.4,1,1,1h30c0.6,0,1-0.4,1-1S36.6,29,36,29z"/><path d="M36,32H6c-0.6,0-1,0.4-1,1s0.4,1,1,1h30c0.6,0,1-0.4,1-1S36.6,32,36,32z"/><text x="0" y="57" fill="#000000" font-size="5px" font-weight="bold" font-family="'Helvetica Neue', Helvetica, Arial-Unicode, Arial, Sans-serif">Created by Josy Dom Alexis</text><text x="0" y="62" fill="#000000" font-size="5px" font-weight="bold" font-family="'Helvetica Neue', Helvetica, Arial-Unicode, Arial, Sans-serif">from the Noun Project</text></svg>