<svg xmlns="http://www.w3.org/2000/svg" xmlns:xlink="http://www.w3.org/1999/xlink" version="1.1" x="0px" y="0px" viewBox="0 0 100 125" enable-background="new 0 0 100 100" xml:space="preserve"><path d="M61.5,39.5h-22c-2.758,0-5,2.243-5,5v13c0,2.757,2.242,5,5,5h22c2.758,0,5-2.243,5-5v-13C66.5,41.743,64.258,39.5,61.5,39.5  z M36.5,46.5h28v2h-28V46.5z M39.5,41.5h22c1.654,0,3,1.346,3,3h-28C36.5,42.846,37.846,41.5,39.5,41.5z M61.5,60.5h-22  c-1.654,0-3-1.346-3-3v-7h28v7C64.5,59.154,63.154,60.5,61.5,60.5z"/><text x="0" y="115" fill="#000000" font-size="5px" font-weight="bold" font-family="'Helvetica Neue', Helvetica, Arial-Unicode, Arial, Sans-serif">Created by Sergey Demushkin</text><text x="0" y="120" fill="#000000" font-size="5px" font-weight="bold" font-family="'Helvetica Neue', Helvetica, Arial-Unicode, Arial, Sans-serif">from the Noun Project</text></svg>