<svg xmlns="http://www.w3.org/2000/svg" xmlns:xlink="http://www.w3.org/1999/xlink" version="1.1" x="0px" y="0px" viewBox="0 0 100 125" style="enable-background:new 0 0 100 100;" xml:space="preserve"><path d="M60.8418,61.5166c5.97363,0,11.59082-2.32715,15.81543-6.55273c8.7207-8.72266,8.7207-22.91553,0-31.63818  c-4.22461-4.22559-9.8418-6.55273-15.81543-6.55273s-11.59082,2.32715-15.81543,6.55273c-8.7207,8.72266-8.7207,22.91553,0,31.63818  C49.25098,59.18945,54.86816,61.5166,60.8418,61.5166z M46.44043,24.73975c3.84668-3.84766,8.96191-5.9668,14.40137-5.9668  s10.55469,2.11914,14.40137,5.9668c7.94043,7.94287,7.94043,20.86719,0,28.81006c-3.84668,3.84766-8.96191,5.9668-14.40137,5.9668  s-10.55469-2.11914-14.40137-5.9668C38.5,45.60693,38.5,32.68262,46.44043,24.73975z"/><path d="M12.15723,87.84326C13.54785,89.23389,15.40234,90,17.38086,90s3.83301-0.76611,5.22363-2.15674l16.8457-16.85059  c1.08618-1.08685,1.39624-2.64502,0.9657-4.01855l3.85571-3.85693c4.83313,3.35785,10.56049,5.17236,16.57019,5.17236  c7.78223,0,15.09961-3.03174,20.60254-8.53662c11.3623-11.36328,11.3623-29.85303,0-41.2168  C75.94141,13.03174,68.62402,10,60.8418,10c-7.7832,0-15.09961,3.03174-20.60254,8.53613  C30.14093,28.63666,29.02655,44.36279,36.8797,55.71466l-3.86053,3.86176c-1.37323-0.43024-2.93042-0.11932-4.01721,0.96606  L12.15723,77.39307C9.27637,80.27441,9.27637,84.96191,12.15723,87.84326z M41.65332,19.9502  C46.77832,14.82373,53.59277,12,60.8418,12c7.24805,0,14.0625,2.82373,19.18848,7.9502  c10.58203,10.58398,10.58203,27.80518,0,38.38867c-5.12598,5.12695-11.94043,7.95068-19.18848,7.95068  c-7.24902,0-14.06348-2.82373-19.18848-7.95068C31.07227,47.75537,31.07227,30.53418,41.65332,19.9502z M40.23926,59.75293  c0.76892,0.76923,1.57666,1.48474,2.41272,2.15582l-3.32007,3.32111l-4.5686-4.56958l3.32098-3.32196  C38.75171,58.1723,39.4668,58.98035,40.23926,59.75293z M13.57129,78.80713l16.84473-16.85059  c0.38867-0.38818,0.89746-0.58203,1.4082-0.58203c0.50879,0,1.01953,0.19385,1.40723,0.58203l4.80469,4.80566  c0.77637,0.77637,0.77637,2.03955,0,2.81641L21.19043,86.4292C20.17773,87.44189,18.8252,88,17.38086,88  s-2.79688-0.55811-3.80957-1.5708C11.4707,84.32764,11.4707,80.90869,13.57129,78.80713z"/><path d="M52.04395,38.01709c-2.39355,0.57715-3.87109,2.99463-3.29395,5.38916l1.78613,7.41162  c0.2793,1.16016,0.99414,2.1416,2.01172,2.76416c0.70996,0.43457,1.50879,0.65771,2.32129,0.65771  c0.35156,0,0.70508-0.0415,1.05469-0.12598c1.15918-0.27979,2.14062-0.99414,2.76367-2.01221  c0.62207-1.01807,0.81055-2.21729,0.53125-3.37646l-1.78711-7.4126C56.85449,38.91943,54.44043,37.43945,52.04395,38.01709z   M55.4873,41.78125l1.78711,7.41309c0.1543,0.64014,0.0498,1.30225-0.29395,1.86426s-0.88574,0.95654-1.52539,1.11084  c-0.6416,0.15527-1.30273,0.0498-1.86328-0.29346c-0.5625-0.34375-0.95703-0.88574-1.11133-1.52637l-1.78613-7.41162  c-0.31934-1.32275,0.49707-2.65771,1.81836-2.97656c0.19336-0.04639,0.38672-0.06885,0.57715-0.06885  C54.20312,39.89258,55.21582,40.65283,55.4873,41.78125z"/><path d="M61.89941,37.25c0.75293,0.92578,1.82031,1.50244,3.00684,1.62451c0.15527,0.01611,0.31055,0.02393,0.46484,0.02393  c1.02246,0,2.00586-0.34863,2.81055-1.00293h-0.00098c1.91016-1.5542,2.2002-4.37256,0.64551-6.28271l-4.81055-5.91455  c-1.55371-1.91016-4.37207-2.19971-6.2832-0.64551c-1.9082,1.55371-2.19824,4.37256-0.64453,6.28271L61.89941,37.25z   M58.99512,26.604c0.45703-0.37158,1.00781-0.55225,1.55469-0.55225c0.7168,0,1.42773,0.31055,1.91504,0.9082l4.81055,5.91455  c0.85742,1.05518,0.69824,2.61182-0.35645,3.47021c0,0,0,0-0.00098,0c-0.50977,0.41602-1.15723,0.60742-1.80664,0.54004  c-0.65527-0.06738-1.24512-0.38574-1.66113-0.89648l-4.81055-5.91455C57.78125,29.01855,57.94141,27.46191,58.99512,26.604z"/><path d="M70.30078,45.06543h-6.6543c-0.55273,0-1,0.44775-1,1s0.44727,1,1,1h6.6543c0.55273,0,1-0.44775,1-1  S70.85352,45.06543,70.30078,45.06543z"/><path d="M70.9834,42.44824h3.34961c0.55273,0,1-0.44775,1-1s-0.44727-1-1-1H70.9834c-0.55273,0-1,0.44775-1,1  S70.43066,42.44824,70.9834,42.44824z"/><path d="M49.625,34.45557h3.34863c0.55273,0,1-0.44775,1-1s-0.44727-1-1-1H49.625c-0.55273,0-1,0.44775-1,1  S49.07227,34.45557,49.625,34.45557z"/><text x="0" y="115" fill="#000000" font-size="5px" font-weight="bold" font-family="'Helvetica Neue', Helvetica, Arial-Unicode, Arial, Sans-serif">Created by Made by Made</text><text x="0" y="120" fill="#000000" font-size="5px" font-weight="bold" font-family="'Helvetica Neue', Helvetica, Arial-Unicode, Arial, Sans-serif">from the Noun Project</text></svg>