<svg xmlns="http://www.w3.org/2000/svg" xmlns:xlink="http://www.w3.org/1999/xlink" version="1.1" x="0px" y="0px" viewBox="0 0 48 60" enable-background="new 0 0 48 48" xml:space="preserve"><g><path fill="none" stroke="#000000" stroke-width="2" stroke-linecap="round" stroke-linejoin="round" stroke-miterlimit="10" d="   M36.536,32.154c-1.297,0-2.372-1.146-2.372-2.549V19.27c0-1.403,1.147-2.551,2.549-2.551h7.738c1.402,0,2.549,1.148,2.549,2.551   v10.336c0,1.402-1.146,2.549-2.549,2.549h-0.799"/><path fill="none" stroke="#000000" stroke-width="2" stroke-linecap="round" stroke-linejoin="round" stroke-miterlimit="10" d="   M5.34,32.154H3.552C2.15,32.154,1,31.008,1,29.605V14.837c0-1.403,1.15-2.55,2.552-2.55h28.063c1.399,0,2.549,1.146,2.549,2.55   v14.768c0,1.402-1.149,2.549-2.549,2.549H20.502"/><circle fill="none" stroke="#000000" stroke-width="2" stroke-linecap="round" stroke-linejoin="round" stroke-miterlimit="10" cx="40.094" cy="32.154" r="3.558"/><circle fill="none" stroke="#000000" stroke-width="2" stroke-linecap="round" stroke-linejoin="round" stroke-miterlimit="10" cx="9.019" cy="32.154" r="3.557"/><circle fill="none" stroke="#000000" stroke-width="2" stroke-linecap="round" stroke-linejoin="round" stroke-miterlimit="10" cx="16.944" cy="32.154" r="3.558"/><polyline fill="none" stroke="#000000" stroke-width="2" stroke-linecap="round" stroke-linejoin="round" stroke-miterlimit="10" points="   38.717,16.718 38.717,24.282 46.497,24.282  "/></g><text x="0" y="63" fill="#000000" font-size="5px" font-weight="bold" font-family="'Helvetica Neue', Helvetica, Arial-Unicode, Arial, Sans-serif">Created by Creative Stall</text><text x="0" y="68" fill="#000000" font-size="5px" font-weight="bold" font-family="'Helvetica Neue', Helvetica, Arial-Unicode, Arial, Sans-serif">from the Noun Project</text></svg>