<svg xmlns="http://www.w3.org/2000/svg" xmlns:xlink="http://www.w3.org/1999/xlink" version="1.1" x="0px" y="0px" viewBox="0 0 100 125" enable-background="new 0 0 100 100" xml:space="preserve"><g><path d="M67.248,60.914H53.271v13.977h13.977V60.914z M64.919,72.562h-9.318v-9.318h9.318V72.562z"/><path d="M98.47,56.671c0-10.335-2.556-20.799-7.442-20.799c-4.886,0-7.441,10.463-7.441,20.799c0,9.377,2.099,12.138,5.792,12.677   v12.531H75.401V55.912l4.757,2.609l1.118-2.044L47.713,38.074l-0.126,0.068l-0.139-0.077l-6.545,3.65l-10.926,5.842v-8.773h-6.988   v12.51l-9.686,5.179l1.098,2.054l5.094-2.724v26.076H7.847V74.44c3.36-0.28,4.629-2.76,4.629-8.811   c0-6.805-1.662-14.131-5.31-14.131c-3.648,0-5.31,7.326-5.31,14.131c0,5.425,1.027,7.972,3.66,8.645v7.604H3.188v2.329h16.306   h10.482H42.79h32.612h19.801v-2.329h-3.493V69.436C96.001,69.224,98.47,66.835,98.47,56.671z M5.518,71.766   c-0.78-0.591-1.331-2.127-1.331-6.136c0-7.785,2.088-11.802,2.98-11.802c0.892,0,2.98,4.017,2.98,11.802   c0,5.529-1.046,6.358-2.3,6.483v-6.54h-2.33V71.766z M25.318,41.113h2.329v7.689l-2.329,1.246V41.113z M40.459,81.879h-8.153   V66.738h8.153V81.879z M40.459,64.409h-8.153v-2.331h8.153V64.409z M73.072,81.879H42.79V66.738v-6.989H29.977v6.989v15.141h-8.153   V55.021l1.165-0.648v0.001l5.241-2.925l13.774-7.682l5.559-2.972l25.509,14.227V81.879z M89.378,56.255v10.752   c-1.886-0.398-3.463-2.191-3.463-10.336c0-11.273,3.029-18.469,5.112-18.469c2.085,0,5.113,7.195,5.113,18.469   c0,9.512-2.15,10.368-4.432,10.445V56.255H89.378z"/><path d="M60.261,38.784h10.482c1.842-0.02,3.484-0.92,4.918-1.89c0.754,0.398,1.623,0.606,2.555,0.606   c2.943,0,5.339-2.413,5.339-5.377c0-2.018-1.169-3.873-2.926-4.776c-0.296-5.411-4.791-9.723-10.275-9.723   c-4.288,0-8.099,2.675-9.603,6.62c-4.012-0.319-7.48,3.082-7.479,7.117C53.271,35.315,56.538,38.784,60.261,38.784z M60.261,26.555   c0.322,0,0.66,0.041,1.034,0.126l1.093,0.247l0.29-1.081c0.932-3.47,4.089-5.893,7.676-5.893c4.39,0,7.96,3.571,7.958,7.994   l-0.036,1.022l0.842,0.266c1.241,0.391,2.108,1.579,2.108,2.887c0,1.68-1.351,3.047-3.01,3.047c-0.738,0-1.362-0.199-1.854-0.59   l-0.687-0.545l-0.714,0.507c-1.361,0.968-2.81,1.912-4.277,1.912H60.261c-2.482,0-4.66-2.381-4.66-5.093   C55.601,28.755,57.735,26.555,60.261,26.555z"/><path d="M23.897,33.475c0.079,2.149,1.646,3.562,1.824,3.716l1.529-1.757c-0.01-0.009-0.991-0.895-1.026-2.06   c-0.021-0.729,0.343-1.471,1.082-2.21c1.074-1.074,1.613-2.317,1.601-3.696c-0.023-2.696-2.233-4.863-2.326-4.954l-1.62,1.674   c0.016,0.016,1.603,1.597,1.617,3.298c0.006,0.741-0.294,1.405-0.919,2.03C24.439,30.737,23.846,32.068,23.897,33.475z"/></g><text x="0" y="115" fill="#000000" font-size="5px" font-weight="bold" font-family="'Helvetica Neue', Helvetica, Arial-Unicode, Arial, Sans-serif">Created by Iconic</text><text x="0" y="120" fill="#000000" font-size="5px" font-weight="bold" font-family="'Helvetica Neue', Helvetica, Arial-Unicode, Arial, Sans-serif">from the Noun Project</text></svg>