<svg xmlns="http://www.w3.org/2000/svg" xmlns:xlink="http://www.w3.org/1999/xlink" version="1.1" x="0px" y="0px" viewBox="0 0 100 125" style="enable-background:new 0 0 100 100;" xml:space="preserve"><path d="M89.0917969,46.5224609h-6.4221191c-1.6853027-5.6463013-7.2623901-9.6008911-13.8952637-9.9573975V33.68396  c0.6018677,0.2109985,1.234314,0.3311768,1.8876953,0.3311768c3.1699219,0,5.7490234-2.5791016,5.7490234-5.7495117  c0-1.2749023-0.4306641-2.5112305-1.2041016-3.5117188c0.7734375-1,1.2041016-2.2363281,1.2041016-3.5117188  c0-2.3168945-1.3730469-4.359375-3.4375-5.2607422c0.0341797-0.2421875,0.0517578-0.4858398,0.0517578-0.7299805  C73.0253906,12.355957,70.6699219,10,67.7744141,10s-5.2519531,2.355957-5.2519531,5.2514648  c0,0.2441406,0.0175781,0.487793,0.0517578,0.7299805c-2.0644531,0.9018555-3.4375,2.9443359-3.4375,5.2607422  c0,1.2749023,0.4306641,2.5112305,1.2041016,3.5117188c-0.7734375,1.0009766-1.2041016,2.2373047-1.2041016,3.5117188  c0,3.1704102,2.5791016,5.7495117,5.75,5.7495117c0.6533813,0,1.2858276-0.1201782,1.8876953-0.3311768v2.87146  c-6.59729,0.3618774-12.2288208,4.432373-13.8988647,9.967041H47.213501  c-1.6867676-5.6464233-7.2613525-9.6010132-13.8961182-9.9573975V33.68396  c0.6018677,0.2109985,1.234314,0.3311768,1.8876953,0.3311768c3.1699219,0,5.7490234-2.5791016,5.7490234-5.7495117  c0-1.2749023-0.4306641-2.5112305-1.2041016-3.5117188c0.7734375-1,1.2041016-2.2363281,1.2041016-3.5117188  c0-2.3164062-1.3730469-4.3588867-3.4365234-5.2607422c0.0341797-0.2421875,0.0517578-0.4858398,0.0517578-0.7299805  C37.5693359,12.355957,35.2128906,10,32.3173828,10s-5.2519531,2.355957-5.2519531,5.2514648  c0,0.2436523,0.0175781,0.4873047,0.0527344,0.7299805c-2.0644531,0.9013672-3.4375,2.9438477-3.4375,5.2607422  c0,1.2753906,0.4306641,2.5117188,1.2041016,3.5117188c-0.7734375,1.0004883-1.2041016,2.2368164-1.2041016,3.5117188  c0,3.1704102,2.5791016,5.7495117,5.7490234,5.7495117c0.6533813,0,1.2858276-0.1201782,1.8876953-0.3311768v2.87146  c-6.5974731,0.3619385-12.229187,4.4326172-13.8990479,9.967041H11c-0.5527344,0-1,0.4477539-1,1v16.3364258  c0,0.5522461,0.4472656,1,1,1h2.1806641v6.8041992H11c-0.5527344,0-1,0.4477539-1,1V89c0,0.5522461,0.4472656,1,1,1h78.0917969  c0.5527344,0,1-0.4477539,1-1V72.6630859c0-0.5522461-0.4472656-1-1-1h-2.2255859v-6.8041992h2.2255859c0.5527344,0,1-0.4477539,1-1  V47.5224609C90.0917969,46.9702148,89.6445312,46.5224609,89.0917969,46.5224609z M64.8867188,32.0151367  c-2.0673828,0-3.75-1.6821289-3.75-3.7495117c0-1.0488281,0.4492188-2.059082,1.2333984-2.7719727  c0.2080078-0.1894531,0.3271484-0.4580078,0.3271484-0.7397461s-0.1191406-0.5507812-0.3271484-0.7402344  c-0.7841797-0.7119141-1.2333984-1.722168-1.2333984-2.7714844c0-1.7299805,1.1748047-3.2255859,2.8574219-3.637207  c0.2734375-0.0664062,0.5058594-0.2451172,0.640625-0.4921875c0.1347656-0.246582,0.1591797-0.5390625,0.0673828-0.8046875  c-0.1191406-0.3461914-0.1796875-0.7016602-0.1796875-1.0566406C64.5224609,13.4584961,65.9814453,12,67.7744141,12  s3.2509766,1.4584961,3.2509766,3.2514648c0,0.3549805-0.0605469,0.7104492-0.1796875,1.0566406  c-0.0917969,0.265625-0.0673828,0.5581055,0.0673828,0.8046875c0.1347656,0.2470703,0.3671875,0.4257812,0.640625,0.4921875  c1.6826172,0.4116211,2.8574219,1.9072266,2.8574219,3.637207c0,1.0498047-0.4492188,2.0600586-1.2324219,2.7714844  c-0.2080078,0.1894531-0.3271484,0.4584961-0.3271484,0.7402344s0.1191406,0.550293,0.3271484,0.7397461  c0.7949219,0.7226562,1.2324219,1.7070312,1.2324219,2.7719727c0,2.0673828-1.6816406,3.7495117-3.7490234,3.7495117  c-0.6722412,0-1.314209-0.185791-1.8876953-0.5247192V19.8100586c0-0.5522461-0.4472656-1-1-1s-1,0.4477539-1,1v11.6803589  C66.2009277,31.8293457,65.55896,32.0151367,64.8867188,32.0151367z M66.90625,38.550293  c6.1831665-0.3370972,11.8519897,3.0387573,13.6697998,7.972168h-3.7425537  c-0.9193115-1.7533569-2.4816895-3.2042847-4.4458008-4.1000977c-0.5039062-0.2304688-1.0957031-0.0073242-1.3251953,0.4946289  c-0.2285156,0.5024414-0.0068359,1.0957031,0.4951172,1.324707c1.1896362,0.5424194,2.1828003,1.3346558,2.9078369,2.2807617  H54.9716187C56.6132202,42.0713501,61.3675537,38.8463135,66.90625,38.550293z M29.4296875,32.0151367  c-2.0673828,0-3.7490234-1.6821289-3.7490234-3.7495117c0-1.0649414,0.4375-2.0493164,1.2324219-2.7719727  c0.2080078-0.1894531,0.3271484-0.4580078,0.3271484-0.7397461s-0.1191406-0.5507812-0.3271484-0.7402344  c-0.7832031-0.7114258-1.2324219-1.7216797-1.2324219-2.7714844c0-1.7299805,1.1748047-3.2255859,2.8564453-3.637207  c0.2734375-0.0664062,0.5048828-0.2451172,0.6396484-0.4912109c0.1347656-0.246582,0.1601562-0.5380859,0.0693359-0.8037109  c-0.1201172-0.3500977-0.1806641-0.7060547-0.1806641-1.0585938C29.0654297,13.4584961,30.5244141,12,32.3173828,12  s3.2519531,1.4584961,3.2519531,3.2514648c0,0.3549805-0.0605469,0.7104492-0.1796875,1.0566406  c-0.0917969,0.265625-0.0673828,0.5581055,0.0673828,0.8046875c0.1347656,0.2470703,0.3671875,0.4257812,0.640625,0.4921875  c1.6816406,0.4116211,2.8564453,1.9072266,2.8564453,3.637207c0,1.0498047-0.4492188,2.0600586-1.2324219,2.7714844  c-0.2080078,0.1894531-0.3271484,0.4584961-0.3271484,0.7402344s0.1191406,0.550293,0.3271484,0.7397461  c0.7949219,0.7226562,1.2324219,1.7070312,1.2324219,2.7719727c0,2.0673828-1.6816406,3.7495117-3.7490234,3.7495117  c-0.6722412,0-1.314209-0.185791-1.8876953-0.5247192V19.8100586c0-0.5522461-0.4472656-1-1-1s-1,0.4477539-1,1v11.6803589  C30.7438965,31.8293457,30.1019287,32.0151367,29.4296875,32.0151367z M31.4492188,38.550293  c6.1722412-0.3412476,11.850647,3.038208,13.6704712,7.972168h-3.7432861  c-0.9192505-1.7528687-2.4806519-3.2038574-4.4447632-4.1000977c-0.5039062-0.2304688-1.0957031-0.0078125-1.3251953,0.4946289  c-0.2285156,0.5024414-0.0078125,1.0957031,0.4951172,1.324707c1.1889038,0.5424194,2.1818237,1.3346558,2.9068604,2.2807617  H19.5145874C21.1567383,42.071167,25.9102783,38.8463745,31.4492188,38.550293z M88.0917969,73.6630859V88H12V73.6630859H88.0917969  z M15.1806641,71.6630859v-6.8041992h69.6855469v6.8041992H15.1806641z M88.0917969,62.8588867H12V48.5224609h76.0917969V62.8588867  z"/><text x="0" y="115" fill="#000000" font-size="5px" font-weight="bold" font-family="'Helvetica Neue', Helvetica, Arial-Unicode, Arial, Sans-serif">Created by Made</text><text x="0" y="120" fill="#000000" font-size="5px" font-weight="bold" font-family="'Helvetica Neue', Helvetica, Arial-Unicode, Arial, Sans-serif">from the Noun Project</text></svg>