<svg xmlns="http://www.w3.org/2000/svg" xmlns:xlink="http://www.w3.org/1999/xlink" version="1.1" x="0px" y="0px" viewBox="0 0 100 125" style="enable-background:new 0 0 100 100;" xml:space="preserve"><path d="M52.3447266,22.4521484c0.375-0.2441406,0.5424805-0.7080078,0.409668-1.1352539s-0.5292969-0.7133789-0.9814453-0.7026367  c-1.7285156,0.0405273-3.3710938-0.7421875-4.3457031-2.109375c-0.8950195-1.2553711-1.1015625-2.7939453-0.5668945-4.2202148  c0.1547852-0.4140625,0.0200195-0.8808594-0.3320312-1.1479492c-0.3520508-0.2661133-0.8369141-0.2714844-1.1948242-0.0102539  c-1.3642578,0.9970703-3.152832,1.2700195-4.7851562,0.7314453c-1.5566406-0.5146484-2.7143555-1.6645508-3.1767578-3.1542969  C37.2416992,10.2851562,36.8544922,10,36.4165039,10s-0.8251953,0.2851562-0.9550781,0.7036133  c-0.4619141,1.4897461-1.6196289,2.6391602-3.1762695,3.1542969c-1.6313477,0.5380859-3.4213867,0.265625-4.7851562-0.7314453  c-0.3569336-0.2612305-0.8417969-0.2558594-1.1948242,0.0102539c-0.3520508,0.2670898-0.4868164,0.7338867-0.3320312,1.1479492  c0.534668,1.4262695,0.328125,2.9648438-0.5668945,4.2202148c-0.9741211,1.3671875-2.6035156,2.1474609-4.3461914,2.109375  c-0.4370117-0.0107422-0.8481445,0.2753906-0.9814453,0.7026367c-0.1328125,0.4272461,0.034668,0.8911133,0.409668,1.1352539  c1.3852539,0.9008789,2.1801758,2.3256836,2.1801758,3.9082031c0,1.5820312-0.7949219,3.0068359-2.1801758,3.9077148  c-0.375,0.2441406-0.5424805,0.7080078-0.409668,1.1352539c0.1333008,0.4277344,0.5444336,0.7412109,0.9814453,0.7026367  c1.7441406-0.0263672,3.3720703,0.7426758,4.3461914,2.109375c0.8950195,1.2553711,1.1015625,2.7939453,0.5668945,4.2207031  c-0.1547852,0.4135742-0.0200195,0.8803711,0.3320312,1.1474609C26.6582031,39.8510742,27.1430664,39.8554688,27.5,39.59375  c1.3642578-0.9975586,3.1518555-1.2714844,4.7851562-0.7314453c1.5566406,0.5151367,2.7143555,1.6645508,3.1762695,3.1542969  c0.1298828,0.418457,0.5170898,0.7036133,0.9550781,0.7036133s0.8251953-0.2851562,0.9550781-0.7036133  c0.4624023-1.4897461,1.6201172-2.6396484,3.1767578-3.1542969c1.6313477-0.5400391,3.4204102-0.2661133,4.7851562,0.7314453  c0.3579102,0.2617188,0.8427734,0.2573242,1.1948242-0.0102539c0.3520508-0.2670898,0.4868164-0.7338867,0.3320312-1.1474609  c-0.534668-1.4267578-0.328125-2.965332,0.5668945-4.2207031c0.9746094-1.3666992,2.6396484-2.1333008,4.3457031-2.109375  c0.4521484,0.0385742,0.8486328-0.2749023,0.9814453-0.7026367c0.1328125-0.4272461-0.034668-0.8911133-0.409668-1.1352539  c-1.3852539-0.9008789-2.1796875-2.3256836-2.1796875-3.9077148C50.1650391,24.777832,50.9594727,23.3530273,52.3447266,22.4521484z   M49.5639648,30.3974609c-1.512207,0.4414062-2.8432617,1.3637695-3.7651367,2.6567383  c-0.8432617,1.1831055-1.2607422,2.5419922-1.2319336,3.9179688c-1.4819336-0.4990234-3.1157227-0.5141602-4.6459961-0.0087891  c-1.4570312,0.4819336-2.6665039,1.3691406-3.5043945,2.5361328c-0.8374023-1.1669922-2.046875-2.0541992-3.503418-2.5356445  c-0.7563477-0.2504883-1.5371094-0.3730469-2.3129883-0.3730469c-0.7944336,0-1.5834961,0.1289062-2.3334961,0.3813477  c0.0288086-1.3759766-0.3886719-2.7348633-1.2319336-3.9179688c-0.921875-1.2929688-2.2529297-2.215332-3.765625-2.6567383  c0.8969727-1.1503906,1.3994141-2.5610352,1.3994141-4.0371094c0-1.4765625-0.5024414-2.887207-1.3994141-4.0375977  c1.5126953-0.4414062,2.84375-1.3642578,3.765625-2.6567383c0.8432617-1.1831055,1.2607422-2.5419922,1.2319336-3.9179688  c1.4819336,0.4990234,3.1162109,0.5146484,4.6464844,0.0083008c1.456543-0.4814453,2.6660156-1.3686523,3.503418-2.5356445  c0.8378906,1.1669922,2.0473633,2.0541992,3.5043945,2.5361328c1.5307617,0.5068359,3.1645508,0.4907227,4.6459961-0.0087891  c-0.0288086,1.3759766,0.3886719,2.7348633,1.2319336,3.9179688c0.921875,1.2929688,2.2524414,2.2158203,3.7651367,2.6567383  c-0.8964844,1.1503906-1.3989258,2.5610352-1.3989258,4.0375977C48.1650391,27.8364258,48.6674805,29.2470703,49.5639648,30.3974609  z"/><path d="M36.4165039,17.4511719c-4.9121094,0-8.9086914,3.996582-8.9086914,8.9091797  c0,4.9121094,3.996582,8.9086914,8.9086914,8.9086914c4.9125977,0,8.9091797-3.996582,8.9091797-8.9086914  C45.3256836,21.4477539,41.3291016,17.4511719,36.4165039,17.4511719z M36.4165039,33.269043  c-3.8095703,0-6.9086914-3.0991211-6.9086914-6.9086914s3.0991211-6.9091797,6.9086914-6.9091797  s6.9091797,3.0996094,6.9091797,6.9091797S40.2260742,33.269043,36.4165039,33.269043z"/><path d="M67.4223633,53.5512695h15.0419922c0.5522461,0,1-0.4477539,1-1v-4.2705078  c0-7.3613281-5.9794922-13.3505859-13.3291016-13.3505859h-2.7128906c-0.5522461,0-1,0.4477539-1,1v16.6210938  C66.4223633,53.1035156,66.8701172,53.5512695,67.4223633,53.5512695z M68.4223633,36.9301758h1.7128906  c6.2470703,0,11.3291016,5.0917969,11.3291016,11.3505859v3.2705078H68.4223633V36.9301758z"/><path d="M11,66.5332031h3.0527344v13.2866211c0,0.5522461,0.4477539,1,1,1h4.4091797  C19.9398804,85.9608154,24.2678223,90,29.5234375,90c5.2561035,0,9.5840454-4.0391846,10.0620117-9.1801758H63.921875  C64.3998413,85.9608154,68.7277832,90,73.9833984,90s9.5835571-4.0391846,10.0615234-9.1801758H89c0.5522461,0,1-0.4477539,1-1  V47.9018555c0-10.2905273-8.3583984-18.6625977-18.6318359-18.6625977H62c-0.5522461,0-1,0.4477539-1,1v12.2143555h-5.9916992  c-0.5522461,0-1,0.4477539-1,1v6.1992188H18.9916992v-6.1992188c0-0.5522461-0.4477539-1-1-1H11c-0.5522461,0-1,0.4477539-1,1  v22.0795898C10,66.0854492,10.4477539,66.5332031,11,66.5332031z M29.5234375,88  c-4.4716797,0-8.109375-3.6450195-8.109375-8.1254883c0-4.4799805,3.6376953-8.125,8.109375-8.125  s8.1098633,3.6450195,8.1098633,8.125C37.6333008,84.3549805,33.9951172,88,29.5234375,88z M73.9833984,88  c-4.4716797,0-8.109375-3.6450195-8.109375-8.1254883c0-4.4799805,3.6376953-8.125,8.109375-8.125  s8.109375,3.6450195,8.109375,8.125C82.0927734,84.3549805,78.4550781,88,73.9833984,88z M63,31.2392578h8.3681641  C80.5390625,31.2392578,88,38.7138672,88,47.9018555v30.9179688h-3.9627075  c-0.5285034-5.0891113-4.8353271-9.0703125-10.053894-9.0703125s-9.5253906,3.9812012-10.053894,9.0703125H39.5778198  c-0.5285034-5.0891113-4.8353882-9.0703125-10.0543823-9.0703125c-5.2185669,0-9.5253906,3.9812012-10.053894,9.0703125h-3.4168091  V66.5332031H62c0.5522461,0,1-0.4477539,1-1V31.2392578z M54.0083008,64.5332031H18.9916992v-5.6806641h35.0166016V64.5332031z   M61,44.4536133v20.0795898h-4.9916992V44.4536133H61z M54.0083008,51.652832v5.199707H18.9916992v-5.199707H54.0083008z   M12,44.4536133h4.9916992v20.0795898H12V44.4536133z"/><text x="0" y="115" fill="#000000" font-size="5px" font-weight="bold" font-family="'Helvetica Neue', Helvetica, Arial-Unicode, Arial, Sans-serif">Created by Made</text><text x="0" y="120" fill="#000000" font-size="5px" font-weight="bold" font-family="'Helvetica Neue', Helvetica, Arial-Unicode, Arial, Sans-serif">from the Noun Project</text></svg>