<svg xmlns="http://www.w3.org/2000/svg" xmlns:xlink="http://www.w3.org/1999/xlink" version="1.1" x="0px" y="0px" viewBox="0 0 100 125" style="enable-background:new 0 0 100 100;" xml:space="preserve"><style type="text/css">
	.st0{fill:none;stroke:#000000;stroke-width:2;stroke-linecap:round;stroke-linejoin:round;stroke-miterlimit:10;}
	.st1{fill:none;stroke:#000000;stroke-width:2;stroke-miterlimit:10;}
	.st2{fill:none;stroke:#000000;stroke-width:2;stroke-linecap:round;stroke-miterlimit:10;}
</style><g><circle cx="51.385" cy="77.197" r="0.94"/></g><path d="M30.041,35.996v11.873c0,0.553,0.447,1,1,1h7.457c0.553,0,1-0.447,1-1V35.996c0-0.553-0.447-1-1-1h-7.457  C30.489,34.996,30.041,35.443,30.041,35.996z M37.498,36.996v3.937h-5.457v-3.937H37.498z M32.041,46.869v-3.937h5.457v3.937H32.041  z"/><path d="M45.253,35.996v11.873c0,0.553,0.447,1,1,1h7.457c0.553,0,1-0.447,1-1V35.996c0-0.553-0.447-1-1-1h-7.457  C45.7,34.996,45.253,35.443,45.253,35.996z M52.71,36.996v3.937h-5.457v-3.937H52.71z M47.253,46.869v-3.937h5.457v3.937H47.253z"/><path d="M60.663,35.996v11.873c0,0.553,0.447,1,1,1h7.458c0.553,0,1-0.447,1-1V35.996c0-0.553-0.447-1-1-1h-7.458  C61.111,34.996,60.663,35.443,60.663,35.996z M68.121,36.996v3.937h-5.458v-3.937H68.121z M62.663,46.869v-3.937h5.458v3.937H62.663  z"/><path d="M30.041,55.12v11.874c0,0.553,0.447,1,1,1h7.457c0.553,0,1-0.447,1-1V55.12c0-0.553-0.447-1-1-1h-7.457  C30.489,54.12,30.041,54.567,30.041,55.12z M37.498,56.12v3.938h-5.457V56.12H37.498z M32.041,65.994v-3.937h5.457v3.937H32.041z"/><path d="M60.663,55.12v11.874c0,0.553,0.447,1,1,1h7.458c0.553,0,1-0.447,1-1V55.12c0-0.553-0.447-1-1-1h-7.458  C61.111,54.12,60.663,54.567,60.663,55.12z M68.121,56.12v3.938h-5.458V56.12H68.121z M62.663,65.994v-3.937h5.458v3.937H62.663z"/><g><path d="M65.964,83.794v-5.018c0-0.553,0.447-1,1-1h4.704c0.553,0,1,0.447,1,1v5.018c0,0.553-0.447,1-1,1h-4.704   C66.411,84.794,65.964,84.347,65.964,83.794z M70.668,79.776h-2.704v3.018h2.704V79.776z"/></g><g><path d="M57.989,83.794v-5.018c0-0.553,0.447-1,1-1h4.703c0.553,0,1,0.447,1,1v5.018c0,0.553-0.447,1-1,1h-4.703   C58.436,84.794,57.989,84.347,57.989,83.794z M62.692,79.776h-2.703v3.018h2.703V79.776z"/></g><g><path d="M35.214,83.794v-5.018c0-0.553,0.447-1,1-1h4.704c0.553,0,1,0.447,1,1v5.018c0,0.553-0.447,1-1,1h-4.704   C35.661,84.794,35.214,84.347,35.214,83.794z M39.918,79.776h-2.704v3.018h2.704V79.776z"/></g><g><path d="M27.239,83.794v-5.018c0-0.553,0.447-1,1-1h4.703c0.553,0,1,0.447,1,1v5.018c0,0.553-0.447,1-1,1h-4.703   C27.686,84.794,27.239,84.347,27.239,83.794z M31.942,79.776h-2.703v3.018h2.703V79.776z"/></g><path d="M23.536,24.636v63.166c0,0.553,0.447,1,1,1h50.658c0.553,0,1-0.447,1-1V24.636c0-0.058-0.005-0.116-0.015-0.173l-2-11.385  c-0.084-0.479-0.5-0.827-0.985-0.827h-5.422c-0.067,0-0.126,0.026-0.189,0.038V9.776c0-0.553-0.447-1-1-1h-5.108  c-0.553,0-1,0.447-1,1v2.513c-0.064-0.013-0.123-0.039-0.191-0.039H39.255V9.776c0-0.553-0.447-1-1-1h-5.107c-0.553,0-1,0.447-1,1  v2.5c-0.043-0.006-0.081-0.025-0.125-0.025h-5.486c-0.485,0-0.901,0.349-0.985,0.827l-2,11.385  C23.541,24.52,23.536,24.578,23.536,24.636z M32.148,16.475h-5.162l0.391-2.224h4.646c0.044,0,0.082-0.02,0.125-0.025V16.475z   M32.148,20.922h-5.944l0.43-2.447h5.514V20.922z M37.255,20.922h-3.107V10.776h3.107V20.922z M60.475,16.475h-21.22v-2.224h21.028  c0.068,0,0.127-0.026,0.191-0.039V16.475z M60.475,20.922h-21.22v-2.447h21.22V20.922z M65.583,20.922h-3.108V10.776h3.108V20.922z   M72.745,16.475h-5.162v-2.262c0.063,0.013,0.122,0.038,0.189,0.038h4.582L72.745,16.475z M73.527,20.922h-5.944v-2.447h5.514  L73.527,20.922z M74.195,86.802H56.324v-11.4h17.871V86.802z M45.408,62.058h8.916v24.744h-8.916V62.058z M25.536,75.401h17.871  v11.4H25.536V75.401z M25.536,27.37h48.658v46.031H56.324V61.058c0-0.553-0.447-1-1-1H44.408c-0.553,0-1,0.447-1,1v12.344H25.536  V27.37z M25.536,24.723l0.318-1.807c0.011,0,0.021,0.006,0.032,0.006h7.262h5.107h23.22h5.108h7.295l0.316,1.801v0.647H25.536  V24.723z"/><text x="0" y="115" fill="#000000" font-size="5px" font-weight="bold" font-family="'Helvetica Neue', Helvetica, Arial-Unicode, Arial, Sans-serif">Created by Made by Made</text><text x="0" y="120" fill="#000000" font-size="5px" font-weight="bold" font-family="'Helvetica Neue', Helvetica, Arial-Unicode, Arial, Sans-serif">from the Noun Project</text></svg>