<svg xmlns="http://www.w3.org/2000/svg" xmlns:xlink="http://www.w3.org/1999/xlink" version="1.1" x="0px" y="0px" viewBox="0 0 100 125" style="enable-background:new 0 0 100 100;" xml:space="preserve"><style type="text/css">
	.st0{fill:none;stroke:#000000;stroke-width:2;stroke-linecap:round;stroke-linejoin:round;stroke-miterlimit:10;}
</style><path d="M11,90h78c0.553,0,1-0.447,1-1s-0.447-1-1-1h-3.797v-7.724c2.484-0.471,4.371-2.651,4.371-5.27  c0-2.027-1.141-3.774-2.803-4.688c0.964-0.763,1.595-1.929,1.595-3.252c0-2.296-1.867-4.163-4.163-4.163s-4.163,1.867-4.163,4.163  c0,1.322,0.631,2.488,1.595,3.252c-1.662,0.914-2.803,2.661-2.803,4.688c0,2.619,1.887,4.799,4.371,5.27V88h-6.515V52.676  c0-0.553-0.447-1-1-1h-5.582v-28.44c0-0.553-0.447-1-1-1H45.833c-0.553,0-1,0.447-1,1v16.432h-3.792V11.173c0-0.553-0.447-1-1-1  H16.163c-0.553,0-1,0.447-1,1v51.866C13.351,63.489,12,65.117,12,67.066c0,1.322,0.631,2.488,1.595,3.252  c-1.662,0.914-2.803,2.661-2.803,4.688c0,2.619,1.887,4.799,4.371,5.27V88H11c-0.553,0-1,0.447-1,1S10.447,90,11,90z M84.203,64.903  c1.192,0,2.163,0.971,2.163,2.163s-0.971,2.163-2.163,2.163s-2.163-0.971-2.163-2.163S83.011,64.903,84.203,64.903z M80.832,75.006  c0-1.858,1.513-3.371,3.371-3.371s3.371,1.513,3.371,3.371s-1.513,3.371-3.371,3.371S80.832,76.864,80.832,75.006z M60.662,41.667  V88H38.784V41.667H60.662z M36.784,88H25.062V59.925h11.723V88z M74.688,88H62.662V53.676h12.026V88z M46.833,24.235h21.273v27.44  h-5.444V40.667c0-0.553-0.447-1-1-1H46.833V24.235z M16.163,64.903c1.192,0,2.163,0.971,2.163,2.163s-0.971,2.163-2.163,2.163  S14,68.259,14,67.066S14.971,64.903,16.163,64.903z M12.792,75.006c0-1.858,1.513-3.371,3.371-3.371s3.371,1.513,3.371,3.371  s-1.513,3.371-3.371,3.371S12.792,76.864,12.792,75.006z M17.163,80.276c2.484-0.471,4.371-2.651,4.371-5.27  c0-2.027-1.141-3.774-2.803-4.688c0.964-0.763,1.595-1.929,1.595-3.252c0-1.949-1.351-3.577-3.163-4.028V12.173h21.878v27.494  h-1.257c-0.553,0-1,0.447-1,1v17.258H24.062c-0.553,0-1,0.447-1,1V88h-5.898V80.276z"/><path d="M43.062,54.346h4.168c0.553,0,1-0.447,1-1V46.21c0-0.553-0.447-1-1-1h-4.168c-0.553,0-1,0.447-1,1v7.136  C42.062,53.898,42.51,54.346,43.062,54.346z M44.062,47.21h2.168v5.136h-2.168V47.21z"/><path d="M52.216,54.346h4.168c0.553,0,1-0.447,1-1V46.21c0-0.553-0.447-1-1-1h-4.168c-0.553,0-1,0.447-1,1v7.136  C51.216,53.898,51.663,54.346,52.216,54.346z M53.216,47.21h2.168v5.136h-2.168V47.21z"/><path d="M54.978,27.814H50.81c-0.553,0-1,0.447-1,1v7.136c0,0.553,0.447,1,1,1h4.168c0.553,0,1-0.447,1-1v-7.136  C55.978,28.262,55.53,27.814,54.978,27.814z M53.978,34.95H51.81v-5.136h2.168V34.95z"/><path d="M65.131,35.95v-7.136c0-0.553-0.447-1-1-1h-4.169c-0.553,0-1,0.447-1,1v7.136c0,0.553,0.447,1,1,1h4.169  C64.684,36.95,65.131,36.503,65.131,35.95z M63.131,34.95h-2.169v-5.136h2.169V34.95z"/><path d="M43.062,67.061h4.168c0.553,0,1-0.447,1-1v-7.136c0-0.553-0.447-1-1-1h-4.168c-0.553,0-1,0.447-1,1v7.136  C42.062,66.613,42.51,67.061,43.062,67.061z M44.062,59.925h2.168v5.136h-2.168V59.925z"/><path d="M52.216,67.061h4.168c0.553,0,1-0.447,1-1v-7.136c0-0.553-0.447-1-1-1h-4.168c-0.553,0-1,0.447-1,1v7.136  C51.216,66.613,51.663,67.061,52.216,67.061z M53.216,59.925h2.168v5.136h-2.168V59.925z"/><path d="M43.062,79.776h4.168c0.553,0,1-0.447,1-1V71.64c0-0.553-0.447-1-1-1h-4.168c-0.553,0-1,0.447-1,1v7.137  C42.062,79.329,42.51,79.776,43.062,79.776z M44.062,72.64h2.168v5.137h-2.168V72.64z"/><path d="M52.216,79.776h4.168c0.553,0,1-0.447,1-1V71.64c0-0.553-0.447-1-1-1h-4.168c-0.553,0-1,0.447-1,1v7.137  C51.216,79.329,51.663,79.776,52.216,79.776z M53.216,72.64h2.168v5.137h-2.168V72.64z"/><path d="M21.441,28.235h4.168c0.553,0,1-0.447,1-1V20.1c0-0.553-0.447-1-1-1h-4.168c-0.553,0-1,0.447-1,1v7.136  C20.441,27.788,20.889,28.235,21.441,28.235z M22.441,21.1h2.168v5.136h-2.168V21.1z"/><path d="M30.595,28.235h4.168c0.553,0,1-0.447,1-1V20.1c0-0.553-0.447-1-1-1h-4.168c-0.553,0-1,0.447-1,1v7.136  C29.595,27.788,30.042,28.235,30.595,28.235z M31.595,21.1h2.168v5.136h-2.168V21.1z"/><path d="M21.441,40.95h4.168c0.553,0,1-0.447,1-1v-7.136c0-0.553-0.447-1-1-1h-4.168c-0.553,0-1,0.447-1,1v7.136  C20.441,40.503,20.889,40.95,21.441,40.95z M22.441,33.814h2.168v5.136h-2.168V33.814z"/><path d="M30.595,40.95h4.168c0.553,0,1-0.447,1-1v-7.136c0-0.553-0.447-1-1-1h-4.168c-0.553,0-1,0.447-1,1v7.136  C29.595,40.503,30.042,40.95,30.595,40.95z M31.595,33.814h2.168v5.136h-2.168V33.814z"/><path d="M26.609,53.568v-7.137c0-0.553-0.447-1-1-1h-4.168c-0.553,0-1,0.447-1,1v7.137c0,0.553,0.447,1,1,1h4.168  C26.162,54.568,26.609,54.121,26.609,53.568z M24.609,52.568h-2.168v-5.137h2.168V52.568z"/><path d="M30.595,54.568h4.168c0.553,0,1-0.447,1-1v-7.137c0-0.553-0.447-1-1-1h-4.168c-0.553,0-1,0.447-1,1v7.137  C29.595,54.121,30.042,54.568,30.595,54.568z M31.595,47.432h2.168v5.137h-2.168V47.432z"/><path d="M66.521,67.061h4.168c0.553,0,1-0.447,1-1v-7.136c0-0.553-0.447-1-1-1h-4.168c-0.553,0-1,0.447-1,1v7.136  C65.521,66.613,65.969,67.061,66.521,67.061z M67.521,59.925h2.168v5.136h-2.168V59.925z"/><path d="M66.521,79.776h4.168c0.553,0,1-0.447,1-1V71.64c0-0.553-0.447-1-1-1h-4.168c-0.553,0-1,0.447-1,1v7.137  C65.521,79.329,65.969,79.776,66.521,79.776z M67.521,72.64h2.168v5.137h-2.168V72.64z"/><path d="M29.027,79.776h4.168c0.553,0,1-0.447,1-1V71.64c0-0.553-0.447-1-1-1h-4.168c-0.553,0-1,0.447-1,1v7.137  C28.027,79.329,28.475,79.776,29.027,79.776z M30.027,72.64h2.168v5.137h-2.168V72.64z"/><text x="0" y="115" fill="#000000" font-size="5px" font-weight="bold" font-family="'Helvetica Neue', Helvetica, Arial-Unicode, Arial, Sans-serif">Created by Made by Made</text><text x="0" y="120" fill="#000000" font-size="5px" font-weight="bold" font-family="'Helvetica Neue', Helvetica, Arial-Unicode, Arial, Sans-serif">from the Noun Project</text></svg>