<svg xmlns="http://www.w3.org/2000/svg" xmlns:xlink="http://www.w3.org/1999/xlink" version="1.1" x="0px" y="0px" viewBox="0 0 100 125" style="enable-background:new 0 0 100 100;" xml:space="preserve"><path d="M89.2290039,17.7207031c0.5522461,0,1-0.4472656,1-1s-0.4477539-1-1-1  c-2.4223633,0-4.5691528,1.1791992-5.9144897,2.9882812c-0.5418091-2.6546631-1.4309692-5.4282227-2.3862915-6.7929688  C80.0761719,10.6982422,78.7431641,10,77.2709961,10s-2.8051758,0.6982422-3.6572266,1.9160156  c-0.9553833,1.3648682-1.8447876,4.1384277-2.3867188,6.7930908c-1.3453369-1.80896-3.4921265-2.9884033-5.9145508-2.9884033  c-0.5522461,0-1,0.4472656-1,1s0.4477539,1,1,1c2.9638672,0,5.375,2.4111328,5.375,5.375  c0,0.0021973,0.0012207,0.0039062,0.0012207,0.0061035c-0.000061,0.0151367-0.0012207,0.0324707-0.0012207,0.0476074  c0,6.5548096,2.7279053,9.3233643,5.5834961,9.8317871v8.0400391c-1.3466187-1.4371338-3.2550659-2.3415527-5.375-2.3415527  c-0.5522461,0-1,0.4472656-1,1s0.4477539,1,1,1c2.9638672,0,5.375,2.4111328,5.375,5.375v5.5319824  c-1.3466187-1.4371338-3.2550659-2.3415527-5.375-2.3415527c-0.5522461,0-1,0.4472656-1,1s0.4477539,1,1,1  c2.9638672,0,5.375,2.4111328,5.375,5.375v5.5319824c-1.3466187-1.4371338-3.2550659-2.3415527-5.375-2.3415527  c-0.5522461,0-1,0.4472656-1,1s0.4477539,1,1,1c2.9638672,0,5.375,2.4111328,5.375,5.375v5.5319824  c-1.3466187-1.4371338-3.2550659-2.3415527-5.375-2.3415527c-0.5522461,0-1,0.4472656-1,1s0.4477539,1,1,1  c2.9638672,0,5.375,2.4111328,5.375,5.375V88H50.746582v-2.6950684c0.0189209,0,0.0333862,0.0007324,0.0527344,0.0007324  c1.9248047,0,5.9580078-0.3408203,8.644043-2.953125c3.5585938-3.4599609,3.2114258-9.4052734,3.1953125-9.65625  c-0.0322266-0.4892578-0.4145508-0.8828125-0.902832-0.9296875c-0.1946411-0.019165-3.8831787-0.3374023-7.1831665,1.1940918  c0.4537964-1.1401367,0.7548828-2.3977051,0.7432251-3.7282715c-0.0458984-5.1835938-4.7832031-9.2070312-4.9848633-9.375  c-0.3759766-0.3164062-0.9257812-0.3105469-1.296875,0.0117188c-0.1987305,0.171875-4.862793,4.2783203-4.8168945,9.4619141  c0.0101318,1.1599121,0.2628174,2.2565918,0.6394043,3.2700195c-3.1159058-1.3671875-6.447876-1.1744385-6.6359863-1.1635742  c-0.4892578,0.0322266-0.8828125,0.4150391-0.9296875,0.9023438c-0.0239258,0.2509766-0.5473633,6.1826172,2.9057617,9.7470703  c2.6174316,2.7025146,6.6552124,3.1566162,8.5698242,3.2111816V88H23.7290039v-5.4316406c0-2.9638672,2.4111328-5.375,5.375-5.375  c0.5522461,0,1-0.4472656,1-1s-0.4477539-1-1-1c-2.1199341,0-4.0283813,0.9044189-5.375,2.3415527v-5.5319824  c0-2.9638672,2.4111328-5.375,5.375-5.375c0.5522461,0,1-0.4472656,1-1s-0.4477539-1-1-1  c-2.1199341,0-4.0283813,0.9044189-5.375,2.3415527V61.4375c0-2.9638672,2.4111328-5.375,5.375-5.375c0.5522461,0,1-0.4472656,1-1  s-0.4477539-1-1-1c-2.1199341,0-4.0283813,0.9044189-5.375,2.3415527v-5.532959c0-2.9638672,2.4111328-5.375,5.375-5.375  c0.5522461,0,1-0.4472656,1-1s-0.4477539-1-1-1c-2.1199341,0-4.0283813,0.9044189-5.375,2.3415527V32.9812012  c2.8555908-0.5084229,5.5834961-3.2769775,5.5834961-9.8317871c0-0.0151367-0.0011597-0.0324707-0.0012207-0.0476074  c0-0.0021973,0.0012207-0.0039062,0.0012207-0.0061035c0-2.9638672,2.4111328-5.375,5.375-5.375c0.5522461,0,1-0.4472656,1-1  s-0.4477539-1-1-1c-2.4224243,0-4.5692139,1.1794434-5.9145508,2.9884033  c-0.5419312-2.6546631-1.4313354-5.4282227-2.3867188-6.7930908C25.5341797,10.6982422,24.2011719,10,22.7290039,10  s-2.8051758,0.6982422-3.6572266,1.9160156c-0.9553223,1.3647461-1.8444824,4.1383057-2.3862915,6.7929688  c-1.3453369-1.809082-3.4921265-2.9882812-5.9144897-2.9882812c-0.5522461,0-1,0.4472656-1,1s0.4477539,1,1,1  c2.9638672,0,5.375,2.4111328,5.375,5.375c0,0.0021973,0.0012207,0.0039062,0.0012207,0.0061035  c-0.000061,0.0151367-0.0012207,0.0324707-0.0012207,0.0476074c0,6.5546875,2.727417,9.3232422,5.5830078,9.8317871v8.0400391  c-1.3466187-1.4371338-3.2550659-2.3415527-5.375-2.3415527c-0.5522461,0-1,0.4472656-1,1s0.4477539,1,1,1  c2.9638672,0,5.375,2.4111328,5.375,5.375v5.5319824c-1.3466187-1.4371338-3.2550659-2.3415527-5.375-2.3415527  c-0.5522461,0-1,0.4472656-1,1s0.4477539,1,1,1c2.9638672,0,5.375,2.4111328,5.375,5.375v5.5319824  c-1.3466187-1.4371338-3.2550659-2.3415527-5.375-2.3415527c-0.5522461,0-1,0.4472656-1,1s0.4477539,1,1,1  c2.9638672,0,5.375,2.4111328,5.375,5.375v5.5319824c-1.3466187-1.4371338-3.2550659-2.3415527-5.375-2.3415527  c-0.5522461,0-1,0.4472656-1,1s0.4477539,1,1,1c2.9638672,0,5.375,2.4111328,5.375,5.375V88H11c-0.5522461,0-1,0.4472656-1,1  s0.4477539,1,1,1h78c0.5522461,0,1-0.4472656,1-1s-0.4477539-1-1-1H78.2709961v-5.4316406c0-2.9638672,2.4111328-5.375,5.375-5.375  c0.5522461,0,1-0.4472656,1-1s-0.4477539-1-1-1c-2.1199341,0-4.0283813,0.9044189-5.375,2.3415527v-5.5319824  c0-2.9638672,2.4111328-5.375,5.375-5.375c0.5522461,0,1-0.4472656,1-1s-0.4477539-1-1-1  c-2.1199341,0-4.0283813,0.9044189-5.375,2.3415527V61.4375c0-2.9638672,2.4111328-5.375,5.375-5.375c0.5522461,0,1-0.4472656,1-1  s-0.4477539-1-1-1c-2.1199341,0-4.0283813,0.9044189-5.375,2.3415527v-5.532959c0-2.9638672,2.4111328-5.375,5.375-5.375  c0.5522461,0,1-0.4472656,1-1s-0.4477539-1-1-1c-2.1199341,0-4.0283813,0.9044189-5.375,2.3415527V32.9812012  c2.8555908-0.5085449,5.5830078-3.2770996,5.5830078-9.8317871c0-0.0151367-0.0011597-0.0324707-0.0012207-0.0476074  c0-0.0021973,0.0012207-0.0039062,0.0012207-0.0061035C83.8540039,20.1318359,86.2651367,17.7207031,89.2290039,17.7207031z   M60.6469727,73.7285156c-0.0498047,1.6259766-0.425293,5.078125-2.5981445,7.1904297  c-2.1621094,2.1025391-5.6235352,2.3789062-7.25,2.3828125c0.0498047-1.6259766,0.425293-5.078125,2.5976562-7.1904297  C55.559082,74.0097656,59.0200195,73.7324219,60.6469727,73.7285156z M49.6816406,62.0107422  c1.1899414,1.2050781,3.5859375,4.0292969,3.6142578,7.2392578c0.0283203,3.2119141-2.3188477,6.078125-3.4863281,7.3046875  c-1.1894531-1.2011719-3.5839844-4.0175781-3.6123047-7.2412109C46.1689453,66.1035156,48.5136719,63.2373047,49.6816406,62.0107422  z M39.2329102,73.4287109c1.6240234,0.0507812,5.0668945,0.4267578,7.1738281,2.6025391  c2.1000977,2.1669922,2.3764648,5.6367188,2.3803711,7.2666016c-1.6235352-0.0507812-5.0668945-0.4267578-7.1738281-2.6015625  C39.5131836,78.5283203,39.2373047,75.0585938,39.2329102,73.4287109z M18.1459961,23.1494141  c0-2.9414062,1.3901367-8.4091797,2.5644531-10.0869141C21.1831055,12.3876953,21.9189453,12,22.7290039,12  s1.5458984,0.3876953,2.0185547,1.0625C25.9223633,14.7402344,27.3125,20.2080078,27.3125,23.1494141  c0,4.8896484-1.7563477,7.9267578-4.5834961,7.9267578C19.9023438,31.0761719,18.1459961,28.0390625,18.1459961,23.1494141z   M77.2709961,31.0761719c-2.8271484,0-4.5834961-3.0371094-4.5834961-7.9267578  c0-2.9414062,1.3901367-8.4091797,2.5649414-10.0869141C75.7250977,12.3876953,76.4609375,12,77.2709961,12  s1.5458984,0.3876953,2.0185547,1.0625c1.1743164,1.6777344,2.5644531,7.1455078,2.5644531,10.0869141  C81.8540039,28.0390625,80.0976562,31.0761719,77.2709961,31.0761719z"/><text x="0" y="115" fill="#000000" font-size="5px" font-weight="bold" font-family="'Helvetica Neue', Helvetica, Arial-Unicode, Arial, Sans-serif">Created by Made</text><text x="0" y="120" fill="#000000" font-size="5px" font-weight="bold" font-family="'Helvetica Neue', Helvetica, Arial-Unicode, Arial, Sans-serif">from the Noun Project</text></svg>