<?xml version="1.0" encoding="iso-8859-1"?>
<!-- Generator: Adobe Illustrator 19.0.0, SVG Export Plug-In . SVG Version: 6.00 Build 0)  -->
<svg version="1.1" id="Capa_1" xmlns="http://www.w3.org/2000/svg" xmlns:xlink="http://www.w3.org/1999/xlink" x="0px" y="0px"
	 viewBox="0 0 512 512" style="enable-background:new 0 0 512 512;" xml:space="preserve">
<g>
	<g>
		<path d="M432.344,392.099c4.15,0,7.515-3.365,7.515-7.515V239.969c0-48.342-39.329-87.671-87.671-87.671h-88.673v-25.049h8.517
			c4.15,0,7.515-3.365,7.515-7.515V87.17h88.673c30.663,0,55.609-24.946,55.609-55.609V7.515c0-4.15-3.365-7.515-7.515-7.515H95.687
			c-4.15,0-7.515,3.365-7.515,7.515v24.047c0,30.663,24.946,55.609,55.609,55.609h88.673v32.564c0,4.15,3.365,7.515,7.515,7.515
			h8.517v25.049h-88.673c-48.342,0-87.671,39.329-87.671,87.671v232.454c0,4.15,3.365,7.515,7.515,7.515h42.226l6.593,26.37
			c0.836,3.346,3.841,5.692,7.29,5.692h32.063c3.448,0,6.454-2.347,7.29-5.692l6.593-26.37H330.29l6.593,26.37
			c0.836,3.346,3.841,5.692,7.29,5.692h32.063c3.448,0,6.454-2.347,7.29-5.692l6.593-26.37h42.225c4.15,0,7.515-3.365,7.515-7.515
			v-52.435c0-4.15-3.365-7.515-7.515-7.515s-7.515,3.365-7.515,7.515v44.921H87.17V239.969c0-40.055,32.587-72.642,72.642-72.642
			h192.376c40.055,0,72.642,32.587,72.642,72.642v144.615C424.83,388.735,428.194,392.099,432.344,392.099z M374.626,479.937
			l-4.258,17.033H350.04l-4.258-17.033H374.626z M166.219,479.937l-4.258,17.033h-20.328l-4.258-17.033H166.219z M143.781,72.141
			c-22.376,0-40.579-18.204-40.579-40.579V15.029h305.597v16.532c0,22.376-18.204,40.579-40.579,40.579H143.781z M247.483,112.219
			V87.17h17.033v25.049H247.483z"/>
	</g>
</g>
<g>
	<g>
		<path d="M327.046,223.809c-0.21-0.193-0.431-0.379-0.667-0.551c-0.229-0.167-0.467-0.316-0.708-0.453
			c-19.641-14.101-43.702-22.414-69.67-22.414c-25.969,0-50.03,8.314-69.67,22.415c-0.24,0.137-0.478,0.286-0.707,0.453
			c-0.236,0.172-0.457,0.358-0.667,0.551c-29.514,21.827-48.689,56.872-48.689,96.315s19.175,74.489,48.689,96.316
			c0.21,0.193,0.431,0.379,0.667,0.551c0.172,0.125,0.357,0.218,0.536,0.328c19.671,14.175,43.797,22.539,69.841,22.539
			s50.17-8.364,69.841-22.54c0.179-0.108,0.364-0.202,0.536-0.328c0.236-0.172,0.457-0.358,0.667-0.551
			c29.515-21.827,48.689-56.872,48.689-96.315S356.559,245.637,327.046,223.809z M337.534,354.517l15.46,5.024
			c-6.458,15.836-16.685,29.746-29.561,40.613l-9.528-13.114c-2.439-3.358-7.138-4.102-10.496-1.662
			c-3.358,2.44-4.102,7.139-1.663,10.497l9.539,13.13c-14.055,8.774-30.327,14.31-47.771,15.553v-16.261
			c0-4.15-3.365-7.515-7.515-7.515s-7.515,3.365-7.515,7.515v16.26c-17.443-1.243-33.716-6.779-47.771-15.553l9.539-13.13
			c2.44-3.358,1.694-8.057-1.663-10.496c-3.359-2.441-8.058-1.695-10.497,1.662l-9.528,13.114
			c-12.877-10.867-23.103-24.777-29.562-40.612l15.46-5.024c3.947-1.283,6.108-5.522,4.824-9.469
			c-1.282-3.948-5.525-6.109-9.469-4.824l-15.471,5.027c-1.988-8.053-3.052-16.467-3.052-25.126s1.064-17.073,3.055-25.126
			l15.471,5.027c4.056,1.32,8.493-1.117,9.587-5.229c1.012-3.803-1.204-7.849-4.943-9.064l-15.46-5.024
			c6.459-15.835,16.685-29.745,29.562-40.612l9.528,13.114c2.596,3.574,7.877,4.111,11.146,1.133
			c2.792-2.544,3.231-6.912,1.013-9.966l-9.539-13.13c14.055-8.774,30.327-14.31,47.771-15.553v16.259
			c0,4.15,3.365,7.515,7.515,7.515s7.515-3.365,7.515-7.515v-16.26c17.443,1.243,33.716,6.779,47.771,15.553l-9.539,13.13
			c-2.218,3.054-1.781,7.424,1.013,9.966c3.269,2.978,8.55,2.441,11.146-1.133l9.528-13.114
			c12.877,10.867,23.103,24.777,29.562,40.612l-15.46,5.024c-3.744,1.216-5.946,5.259-4.943,9.064
			c1.085,4.115,5.537,6.548,9.587,5.229l15.471-5.027c1.989,8.054,3.053,16.468,3.053,25.127s-1.064,17.073-3.055,25.126
			l-15.471-5.027c-3.947-1.284-8.186,0.877-9.469,4.824C331.427,348.996,333.588,353.235,337.534,354.517z"/>
	</g>
</g>
<g>
	<g>
		<path d="M263.515,289.474V256c0-4.15-3.365-7.515-7.515-7.515s-7.515,3.365-7.515,7.515v33.474
			c-13.786,3.381-24.047,15.837-24.047,30.651c0,17.403,14.159,31.562,31.562,31.562s31.562-14.159,31.562-31.562
			C287.562,305.311,277.301,292.856,263.515,289.474z M256,336.658c-9.116,0-16.532-7.417-16.532-16.532s7.417-16.532,16.532-16.532
			c9.116,0,16.532,7.417,16.532,16.532S265.116,336.658,256,336.658z"/>
	</g>
</g>
<g>
</g>
<g>
</g>
<g>
</g>
<g>
</g>
<g>
</g>
<g>
</g>
<g>
</g>
<g>
</g>
<g>
</g>
<g>
</g>
<g>
</g>
<g>
</g>
<g>
</g>
<g>
</g>
<g>
</g>
</svg>
