<?xml version="1.0" encoding="iso-8859-1"?>
<!-- Generator: Adobe Illustrator 19.0.0, SVG Export Plug-In . SVG Version: 6.00 Build 0)  -->
<svg version="1.1" id="Capa_1" xmlns="http://www.w3.org/2000/svg" xmlns:xlink="http://www.w3.org/1999/xlink" x="0px" y="0px"
	 viewBox="0 0 512 512" style="enable-background:new 0 0 512 512;" xml:space="preserve">
<g>
	<g>
		<path d="M364.211,144.282c-34.44,0-66.78,17.349-85.965,45.695c-8.658-3.73-17.616-6.721-26.755-8.933V87.17h16.532
			c4.151,0,7.515-3.365,7.515-7.515V55.609c0-4.15-3.364-7.515-7.515-7.515h-16.532V7.515c0-4.15-3.364-7.515-7.515-7.515h-64.125
			c-4.15,0-7.515,3.365-7.515,7.515v40.579h-16.532c-4.15,0-7.515,3.365-7.515,7.515v24.047c0,4.15,3.365,7.515,7.515,7.515h16.532
			v26.051c0,4.15,3.365,7.515,7.515,7.515c4.15,0,7.515-3.365,7.515-7.515V87.17h49.096v99.899c0,3.574,2.518,6.654,6.02,7.364
			c12.202,2.477,24.105,6.473,35.378,11.875c3.529,1.692,7.761,0.391,9.736-2.985c15.861-27.148,45.219-44.013,76.616-44.013
			c48.894,0,88.673,39.779,88.673,88.673c0,45.79-35.703,84.604-81.279,88.364c-3.899,0.322-6.897,3.578-6.897,7.49l0.004,0.335
			c0,84.254-68.545,152.798-152.798,152.798S59.115,428.426,59.115,344.172c0-13.972,1.923-27.59,5.523-40.579H359.26
			c0.89,3.24,1.677,6.516,2.354,9.826c0.719,3.52,3.816,6.011,7.357,6.011c0.185,0,0.371-0.006,0.557-0.02
			c37.191-2.735,66.324-34.11,66.324-71.426c0-39.502-32.138-71.64-71.64-71.64c-25.639,0-49.483,13.853-62.226,36.154
			c-1.875,3.28-1.022,7.444,1.992,9.723c22.761,17.211,40.082,40.219,50.289,66.344H69.658c18.525-47.14,59.916-83.62,111.688-94.13
			c3.503-0.71,6.02-3.79,6.02-7.364v-39.282c0-4.15-3.365-7.515-7.515-7.515c-4.15,0-7.515,3.365-7.515,7.515v33.256
			c-35.006,8.483-66.724,28.305-89.842,56.275c-24.768,29.965-38.408,67.912-38.408,106.853C44.086,436.713,119.373,512,211.914,512
			c90.406,0,164.344-71.859,167.709-161.457c23.24-3.465,44.598-14.725,60.72-32.146c17.781-19.213,27.572-44.218,27.572-70.413
			C467.914,190.803,421.393,144.282,364.211,144.282z M187.366,15.029h49.096v33.065h-49.096V15.029z M163.319,72.141v-9.018h97.19
			v9.018H163.319z M318.535,214.565c10.595-14.444,27.57-23.191,45.676-23.191c31.215,0,56.611,25.396,56.611,56.611
			c0,27.319-19.756,50.606-46.028,55.6C366.132,268.707,346.421,237.519,318.535,214.565z"/>
	</g>
</g>
<g>
	<g>
		<path d="M131.757,328.642c-12.983,0-23.546,10.563-23.546,23.546s10.563,23.546,23.546,23.546
			c12.983,0,23.546-10.563,23.546-23.546S144.741,328.642,131.757,328.642z M131.757,360.704c-4.696,0-8.517-3.82-8.517-8.517
			s3.82-8.517,8.517-8.517s8.517,3.82,8.517,8.517S136.454,360.704,131.757,360.704z"/>
	</g>
</g>
<g>
	<g>
		<path d="M195.883,408.798c-12.983,0-23.546,10.563-23.546,23.546s10.563,23.546,23.546,23.546
			c12.983,0,23.546-10.563,23.546-23.546S208.866,408.798,195.883,408.798z M195.883,440.861c-4.696,0-8.517-3.82-8.517-8.517
			s3.82-8.517,8.517-8.517s8.517,3.82,8.517,8.517S200.579,440.861,195.883,440.861z"/>
	</g>
</g>
<g>
	<g>
		<path d="M276.039,320.626c-12.983,0-23.546,10.563-23.546,23.546c0,12.983,10.563,23.546,23.546,23.546
			c12.983,0,23.546-10.563,23.546-23.546C299.585,331.189,289.023,320.626,276.039,320.626z M276.039,352.689
			c-4.696,0-8.517-3.82-8.517-8.517c0-4.696,3.82-8.517,8.517-8.517s8.517,3.82,8.517,8.517
			C284.556,348.868,280.735,352.689,276.039,352.689z"/>
	</g>
</g>
<g>
</g>
<g>
</g>
<g>
</g>
<g>
</g>
<g>
</g>
<g>
</g>
<g>
</g>
<g>
</g>
<g>
</g>
<g>
</g>
<g>
</g>
<g>
</g>
<g>
</g>
<g>
</g>
<g>
</g>
</svg>
