<svg xmlns="http://www.w3.org/2000/svg" style="display: none;"><symbol id="oat" viewBox="0 0 55.171 55.171"><title>oat</title><path style="fill:#F1B501;" d="M10.328,7.986l1.417,1.629c1.401,2.111,3.872,2.715,6.089,1.489l2.009-0.791l-1.417-1.629 c-1.401-2.111-3.872-2.715-6.089-1.489L10.328,7.986z"/><path style="fill:#F1B501;" d="M13.143,18.249l2.138,0.296c2.443,0.671,4.703-0.499,5.567-2.88l0.994-1.917l-2.138-0.296 c-2.443-0.671-4.703,0.499-5.567,2.88L13.143,18.249z"/><path style="fill:#F1B501;" d="M19.96,23.868l2.017-0.771c2.464-0.59,3.881-2.703,3.491-5.206l-0.053-2.158l-2.017,0.771 c-2.464,0.59-3.881,2.703-3.491,5.206L19.96,23.868z"/><path style="fill:#F1B501;" d="M23.239,26.907l2.154-0.144c2.528,0.16,4.504-1.444,4.866-3.951l0.584-2.078l-2.154,0.144 c-2.528-0.16-4.504,1.444-4.866,3.951L23.239,26.907z"/><path style="fill:#F1B501;" d="M23.843,31.922l2.104,0.485c2.374,0.885,4.729-0.078,5.802-2.374l1.16-1.821l-2.104-0.485 c-2.374-0.885-4.729,0.078-5.802,2.374L23.843,31.922z"/><path style="fill:#F1B501;" d="M22.182,37.982l1.944,0.938c2.119,1.388,4.629,0.969,6.183-1.032l1.534-1.519l-1.944-0.938 c-2.119-1.388-4.629-0.969-6.183,1.032L22.182,37.982z"/><path style="fill:#F1B501;" d="M22.84,0l-1.041,1.891C20.3,3.934,20.585,6.462,22.5,8.12l1.435,1.613l1.041-1.891 c1.499-2.042,1.215-4.571-0.701-6.229L22.84,0z"/><path style="fill:#F1B501;" d="M32.775,2.989l-1.907,1.013c-2.373,0.888-3.519,3.16-2.825,5.596l0.318,2.135l1.907-1.013 c2.373-0.888,3.519-3.16,2.825-5.596L32.775,2.989z"/><path style="fill:#F1B501;" d="M39.843,10.001L37.69,9.843c-2.481-0.512-4.661,0.8-5.371,3.232l-0.868,1.976l2.153,0.158 c2.481,0.512,4.661-0.8,5.371-3.232L39.843,10.001z"/><path style="fill:#F1B501;" d="M43.658,16.899l-2.077-0.589c-2.327-1.002-4.727-0.156-5.912,2.083l-1.249,1.761l2.077,0.589 c2.327,1.002,4.727,0.156,5.912-2.083L43.658,16.899z"/><path style="fill:#F1B501;" d="M44.843,24.438l-1.719-1.306c-1.801-1.781-4.344-1.869-6.265-0.217l-1.805,1.184l1.719,1.306 c1.801,1.781,4.344,1.869,6.265,0.217L44.843,24.438z"/><path style="fill:#F1B501;" d="M44.714,32.62l-1.357-1.679c-1.324-2.16-3.772-2.853-6.032-1.706l-2.036,0.719l1.357,1.679 c1.324,2.16,3.772,2.853,6.032,1.706L44.714,32.62z"/><path style="fill:#F1B501;" d="M42.459,41.733l-0.588-2.077c-0.368-2.507-2.346-4.107-4.874-3.941l-2.154-0.14l0.588,2.077 c0.368,2.507,2.346,4.107,4.874,3.941L42.459,41.733z"/><path style="fill:#F1B501;" d="M38.659,49.733l0.1-2.156c0.445-2.494-0.925-4.638-3.375-5.282l-1.999-0.815l-0.1,2.156 c-0.445,2.494,0.925,4.638,3.375,5.282L38.659,49.733z"/><path style="fill:#F4C44E;" d="M12.679,55.171c-0.471,0-0.89-0.333-0.981-0.813c-0.104-0.543,0.253-1.066,0.795-1.17 c12.534-2.393,20.825-12.461,20.631-25.056c-0.115-7.478-4.78-14.09-11.607-16.454c-0.522-0.182-0.799-0.751-0.618-1.272 c0.182-0.522,0.75-0.799,1.272-0.618c7.619,2.64,12.825,9.999,12.953,18.313c0.21,13.6-8.734,24.471-22.256,27.052 C12.804,55.165,12.741,55.171,12.679,55.171z"/></symbol><symbol id="chili" viewBox="0 0 512 512"><title>chili</title><path style="fill:#009100;" d="M507.281,69.819l-29.973,2.116c3.243,45.941-16.618,60.676-17.465,61.282 c0.186-0.134,0.289-0.193,0.289-0.193l16.249,25.275c1.696-1.09,10.561-7.245,18.499-21.394 C504.981,118.906,509.153,96.335,507.281,69.819z"/><path style="fill:#FF4F19;" d="M486.734,304.104c-15.815,27.744-36.868,51.291-56.549,67.646 c-44.72,37.148-105.025,61.397-169.797,68.277c-13.511,1.432-27.333,2.153-41.395,2.153c-28.966,0-59.003-3.045-89.741-9.104 c-38.631-7.622-78.804-17.758-108.36-49.989C4.466,365.17-5.791,340.522,3.544,321.071c1.613-3.385,3.816-6.6,6.691-9.605 c21.444-22.415,58.762-18.289,88.75-14.974c9.725,1.082,18.91,2.103,25.68,1.973c57.811-1.052,100.298-19.06,133.7-56.669 c8.774-9.886,16.917-20.302,25.55-31.329c9.365-11.979,18.89-24.148,29.296-35.606c12.329-13.591,25.901-26.201,41.956-36.347 c42.276-26.722,87.007-27.073,119.648-0.941c22.525,18.018,35.676,43.729,37.028,72.394 C513.435,243.559,502.779,275.99,486.734,304.104z"/><path style="fill:#DD2B19;" d="M486.734,304.104c-15.815,27.744-36.868,51.291-56.549,67.646 c-44.72,37.148-105.025,61.397-169.797,68.277c-13.511,1.432-27.333,2.153-41.395,2.153c-28.966,0-59.003-3.045-89.741-9.104 c-38.631-7.622-78.804-17.758-108.36-49.989C4.466,365.17-5.791,340.522,3.544,321.071c75.799,33.633,181.886,63.48,267.16,21.704 c150.226-73.616,204.111-205.203,204.111-205.203c22.525,18.018,35.676,43.729,37.028,72.394 C513.435,243.559,502.779,275.99,486.734,304.104z"/><path style="fill:#2DD729;" d="M486.734,304.104l-26.121-59.123l-81.658,22.966l-1.803,0.511l3.996-80.907l-67.937-12.69 c12.329-13.591,25.901-26.201,41.956-36.347c42.276-26.722,87.007-27.073,119.648-0.941c22.525,18.018,35.676,43.729,37.028,72.394 C513.435,243.559,502.779,275.99,486.734,304.104z"/><path style="fill:#00AD00;" d="M486.734,304.104l-26.121-59.123l-81.658,22.966c68.918-64.572,95.861-130.375,95.861-130.375 c22.525,18.018,35.676,43.729,37.028,72.394C513.435,243.559,502.779,275.99,486.734,304.104z"/></symbol><symbol id="eggs" viewBox="0 0 53.325 53.325"><title>eggs</title><path style="fill:#FAF5E5;" d="M42.325,34.005c0-7.456-14.103-13.5-27.88-13.5c-19.078,0-19.12,26.966-0.948,26.966 c0.32,0,0.635,0.034,0.948,0.034C28.222,47.505,42.325,41.461,42.325,34.005z"/><path style="fill:#EACBA2;" d="M39.825,5.505c-5.415,0-10.082,7.44-12.233,16.79c8.36,2.329,14.733,6.699,14.733,11.71 c0,4.29-4.673,8.109-11.262,10.582c7.734,6.59,22.229,3.073,22.229-10.254c0-0.32,0.034-0.635,0.034-0.948 C53.325,19.608,47.281,5.505,39.825,5.505z"/><path style="fill:#FFFFFF;" d="M4.339,34.506c-0.017,0-0.033,0-0.049-0.001c-0.552-0.026-0.978-0.495-0.951-1.047 c0.164-3.393,1.771-6.405,4.41-8.267c0.451-0.317,1.074-0.21,1.394,0.241c0.318,0.451,0.21,1.075-0.241,1.394 c-2.132,1.503-3.431,3.955-3.564,6.728C5.311,34.089,4.869,34.506,4.339,34.506z"/><path style="fill:#FFFFFF;" d="M11.324,25.599c-0.437,0-0.838-0.288-0.962-0.729c-0.149-0.531,0.16-1.084,0.692-1.233 c1.122-0.315,2.34-0.476,3.62-0.476c0.553,0,1,0.447,1,1s-0.447,1-1,1c-1.097,0-2.133,0.135-3.079,0.401 C11.506,25.587,11.414,25.599,11.324,25.599z"/><path style="fill:#FAF5E5;" d="M47.325,20.505c-0.432,0-0.83-0.281-0.959-0.716c-0.521-1.755-1.251-3.349-2.17-4.735 c-0.306-0.461-0.18-1.081,0.28-1.386c0.461-0.309,1.08-0.18,1.386,0.28c1.029,1.553,1.845,3.326,2.422,5.272 c0.157,0.529-0.146,1.086-0.675,1.243C47.515,20.492,47.419,20.505,47.325,20.505z"/><path style="fill:#FAF5E5;" d="M42.325,12.409c-0.231,0-0.464-0.08-0.653-0.243c-1.47-1.267-2.674-1.716-2.686-1.721 c-0.518-0.188-0.786-0.761-0.6-1.279c0.187-0.517,0.756-0.786,1.273-0.604c0.063,0.022,1.543,0.559,3.318,2.09 c0.418,0.36,0.465,0.991,0.104,1.41C42.885,12.292,42.606,12.409,42.325,12.409z"/></symbol><symbol id="honey-1" viewBox="0 0 54 54"><title>honey-1</title><circle cx="34.065" cy="21" r="1"/><path style="fill:#E6E6E6;" d="M12.335,18.058l1.354,2.256c0.597,0.994,1.922,1.254,2.85,0.558l1.343-1.008 c0.779-0.584,1.868-0.506,2.556,0.182l0.533,0.533c0.841,0.841,2.233,0.743,2.947-0.209l0.409-0.545 c0.782-1.043,2.347-1.043,3.129,0l0.051,0.067c0.824,1.099,2.495,1.028,3.223-0.137l1.933-3.093c0.859-1.374,2.92-1.167,3.489,0.35 l0.682,1.819c0.542,1.446,2.469,1.722,3.395,0.487l0.074-0.099c0.623-0.83,1.786-1.029,2.649-0.454l2.073,1.382 c1.3,0.866,3.04-0.065,3.04-1.627v-1.421c0-7.952-9.978-5.665-9.978-9.978V6.652h0.066c1.793,0,3.26-1.467,3.26-3.26V3.26 c0-1.793-1.467-3.26-3.26-3.26H15.847c-1.793,0-3.26,1.467-3.26,3.26v0.132c0,1.793,1.467,3.26,3.26,3.26h0.066v0.468 c0,4.313-9.978,2.026-9.978,9.978v1.749l3.997-1.599C10.823,16.892,11.841,17.235,12.335,18.058z"/><path style="fill:#F9DA49;" d="M45.025,20.147l-2.073-1.382c-0.863-0.576-2.026-0.377-2.649,0.454l-0.074,0.099 c-0.927,1.236-2.853,0.96-3.395-0.487l-0.682-1.819c-0.569-1.517-2.63-1.724-3.489-0.35l-1.933,3.093 c-0.728,1.165-2.398,1.236-3.223,0.137l-0.051-0.068c-0.782-1.043-2.347-1.043-3.129,0l-0.409,0.545 c-0.714,0.952-2.106,1.051-2.947,0.209l-0.533-0.533c-0.688-0.688-1.777-0.766-2.556-0.182l-1.344,1.008 c-0.928,0.696-2.253,0.436-2.85-0.558l-1.354-2.256c-0.494-0.823-1.512-1.166-2.403-0.809l-1.78,0.712v26.744 c0,5.133,4.161,9.295,9.295,9.295H27h9.553c5.133,0,9.295-4.161,9.295-9.295V20.444C45.568,20.406,45.287,20.322,45.025,20.147z"/><path style="fill:#D2D5D7;" d="M35.086,7.652H25.065c-0.552,0-1-0.447-1-1s0.448-1,1-1h10.021c0.552,0,1,0.447,1,1 S35.638,7.652,35.086,7.652z"/><path style="fill:#D2D5D7;" d="M21.07,7.652h-2.806c-0.552,0-1-0.447-1-1s0.448-1,1-1h2.806c0.552,0,1,0.447,1,1 S21.622,7.652,21.07,7.652z"/><circle style="fill:#ED8F20;" cx="17.264" cy="28.609" r="1"/><circle style="fill:#ED8F20;" cx="17.28" cy="33.609" r="1"/><circle style="fill:#ED8F20;" cx="21.466" cy="29.195" r="1"/><circle style="fill:#ED8F20;" cx="14.065" cy="44" r="1"/><circle style="fill:#ED8F20;" cx="20.065" cy="49" r="1"/><circle style="fill:#ED8F20;" cx="15.065" cy="49" r="1"/><circle style="fill:#ED8F20;" cx="13.065" cy="37" r="1"/><circle style="fill:#ED8F20;" cx="16.065" cy="39" r="1"/><circle style="fill:#ED8F20;" cx="13.065" cy="32" r="1"/><circle style="fill:#ED8F20;" cx="13.065" cy="26" r="1"/><circle style="fill:#ED8F20;" cx="32.065" cy="25" r="1"/><circle style="fill:#ED8F20;" cx="27.065" cy="26" r="1"/><circle style="fill:#ED8F20;" cx="18.065" cy="24" r="1"/><circle style="fill:#ED8F20;" cx="37.065" cy="24" r="1"/><circle style="fill:#ED8F20;" cx="42.065" cy="22" r="1"/><circle style="fill:#ED8F20;" cx="40.065" cy="28" r="1"/><circle style="fill:#ED8F20;" cx="23.453" cy="25.189" r="1"/><polygon style="fill:#F9EA80;" points="19.073,42.133 20.583,36.583 26.132,35.074 30.173,39.114 28.663,44.664 23.114,46.173 "/><polygon style="fill:#EEAF4B;" points="26.126,35.059 27.636,29.509 33.185,28 37.225,32.04 35.716,37.59 30.166,39.099 "/><polygon style="fill:#EDBC64;" points="28.64,44.64 30.149,39.09 35.699,37.581 39.739,41.621 38.23,47.171 32.68,48.68 "/></symbol><symbol id="jar" viewBox="0 0 54 54"><title>jar</title><path style="fill:#DAE7EF;" d="M38.995,7.54V7.043h0.831c1.291,0,2.13-1.056,2.13-2.348V2.348c0-1.291-0.839-2.348-2.13-2.348 H29.261h-1.087h-2.396h-1.126H14.087c-1.291,0-2.13,1.056-2.13,2.348v2.348c0,1.291,0.839,2.348,2.13,2.348h1.174V7.54 c0,4.566-8.217,2.145-8.217,10.565v26.054c0,5.435,4.406,9.841,9.841,9.841H27h10.115c5.435,0,9.841-4.406,9.841-9.841V18.104 C46.957,9.685,38.995,12.106,38.995,7.54z"/><path style="fill:#F75B57;" d="M25.372,19.769c-2.256-0.778-4.491-1.25-6.647-1.5C12.505,17.55,7.043,22.4,7.043,28.662v15.496 c0,5.435,4.406,9.841,9.841,9.841H27h10.115c5.435,0,9.841-4.406,9.841-9.841V32.435c0-5.924-4.919-10.63-10.841-10.447 c-4.911,0.152-8.529-1.26-9.728-1.804C26.055,20.035,25.717,19.888,25.372,19.769z"/><circle style="fill:#D13834;" cx="17.957" cy="28" r="4"/><circle style="fill:#D75A4A;" cx="37.957" cy="31" r="3"/><circle style="fill:#ED3F32;" cx="26.957" cy="37" r="2"/><circle style="fill:#F96C7E;" cx="17.957" cy="46" r="3"/><circle style="fill:#D13834;" cx="37.957" cy="45" r="2"/><path style="fill:#E22F37;" d="M29.221,29.633c-0.15,0-0.303-0.034-0.446-0.105l-2.53-1.266c-0.494-0.247-0.694-0.848-0.447-1.342 s0.848-0.693,1.342-0.447l2.53,1.266c0.494,0.247,0.694,0.848,0.447,1.342C29.941,29.431,29.587,29.633,29.221,29.633z"/><path style="fill:#F96C7E;" d="M35.957,40c-0.256,0-0.512-0.098-0.707-0.293l-2-2c-0.391-0.391-0.391-1.023,0-1.414 s1.023-0.391,1.414,0l2,2c0.391,0.391,0.391,1.023,0,1.414C36.468,39.902,36.212,40,35.957,40z"/><path style="fill:#ED3F32;" d="M26.615,48.447c-0.419,0-0.809-0.265-0.949-0.684c-0.175-0.524,0.108-1.091,0.632-1.265l2.684-0.895 c0.525-0.176,1.09,0.108,1.265,0.632c0.175,0.524-0.108,1.091-0.632,1.265l-2.684,0.895C26.826,48.431,26.719,48.447,26.615,48.447 z"/><path style="fill:#ED3F32;" d="M13.957,39c-0.256,0-0.512-0.098-0.707-0.293c-0.391-0.391-0.391-1.023,0-1.414l2-2 c0.391-0.391,1.023-0.391,1.414,0s0.391,1.023,0,1.414l-2,2C14.468,38.902,14.212,39,13.957,39z"/><path style="fill:#FFFFFF;" d="M41.956,20c-0.466,0-0.883-0.327-0.979-0.802c-1.11-5.495-8.176-7.208-8.248-7.225 c-0.538-0.126-0.872-0.664-0.746-1.201c0.126-0.538,0.664-0.868,1.201-0.746c0.342,0.08,8.391,2.036,9.752,8.775 c0.109,0.542-0.241,1.069-0.782,1.179C42.088,19.994,42.021,20,41.956,20z"/><path style="fill:#E6E6E6;" d="M25.778,0l3.483,0l10.565,0c1.291,0,2.13,1.057,2.13,2.348v2.348c0,1.291-0.839,2.348-2.13,2.348 H29.261h-3.522h2.396h-3.483H14.087c-1.291,0-2.13-1.057-2.13-2.348V2.348c0-1.291,0.839-2.348,2.13-2.348h10.565h3.522"/><g> <path style="fill:#D2D5D7;" d="M35.965,7.043h1.982C37.948,7.028,37.957,7.015,37.957,7V0h-2v7 C35.957,7.015,35.965,7.028,35.965,7.043z"/> <path style="fill:#D2D5D7;" d="M31.965,7.043h1.982C33.948,7.028,33.957,7.015,33.957,7V0h-2v7 C31.957,7.015,31.965,7.028,31.965,7.043z"/> <path style="fill:#D2D5D7;" d="M27.965,7.043h0.17h1.126h0.687C29.948,7.028,29.957,7.015,29.957,7V0h-0.696h-1.087h-0.217v7 C27.957,7.015,27.965,7.028,27.965,7.043z"/> <path style="fill:#D2D5D7;" d="M23.965,7.043h0.687h1.087h0.209C25.948,7.028,25.957,7.015,25.957,7V0h-0.179h-1.126h-0.696v7 C23.957,7.015,23.965,7.028,23.965,7.043z"/> <path style="fill:#D2D5D7;" d="M19.965,7.043h1.982C21.948,7.028,21.957,7.015,21.957,7V0h-2v7 C19.957,7.015,19.965,7.028,19.965,7.043z"/> <path style="fill:#D2D5D7;" d="M15.965,7.043h1.982C17.948,7.028,17.957,7.015,17.957,7V0h-2v7 C15.957,7.015,15.965,7.028,15.965,7.043z"/> </g></symbol><symbol id="honey" viewBox="0 0 55.933 55.933"><title>honey</title><path style="fill:#DAE7EF;" d="M36.586,16.355v-0.422h1c1.1,0,2-0.9,2-2v-2c0-0.594-0.267-1.123-0.682-1.49l-5.147-0.51H15.586 c-1.1,0-2,0.9-2,2v2c0,1.1,0.9,2,2,2h1v0.422c0,3.89-7,1.828-7,9v22.194c0,4.63,3.753,8.383,8.383,8.383h8.617h8.617 c4.63,0,8.383-3.753,8.383-8.383V25.355C43.586,18.183,36.586,20.245,36.586,16.355z"/><path style="fill:#FBD490;" d="M45.761,3.414l-19.17,19.17l-2.828-2.828l19.17-19.17c0.781-0.781,2.047-0.781,2.828,0v0 C46.542,1.367,46.542,2.633,45.761,3.414z"/><path style="fill:#F9DA49;" d="M17.969,55.933h8.617h8.617c4.63,0,8.383-3.753,8.383-8.383V37.313 c-4.188,3.227-6.986,3.618-11.174,0.391c-4.188-3.227-7.225-3.904-11.413-0.677c-4.188,3.227-7.225,3.904-11.413,0.677v9.845 C9.586,52.179,13.339,55.933,17.969,55.933z"/><circle style="fill:#EEAF4B;" cx="30.586" cy="47.933" r="1"/><path style="fill:#FBD490;" d="M24.382,30.622L24.382,30.622c-0.972,0.972-2.563,0.972-3.536,0l-4.95-4.95 c-0.972-0.972-0.972-2.563,0-3.536l0,0c0.972-0.972,2.563-0.972,3.536,0l4.95,4.95C25.354,28.059,25.354,29.65,24.382,30.622z"/><path style="fill:#EEAF4B;" d="M19.786,33.097L19.786,33.097c-0.972,0.972-2.563,0.972-3.536,0l-2.828-2.828 c-0.972-0.972-0.972-2.563,0-3.536l0,0c0.972-0.972,2.563-0.972,3.536,0l2.828,2.828C20.758,30.534,20.758,32.125,19.786,33.097z"/><path style="fill:#EEAF4B;" d="M26.776,26.106L26.776,26.106c-0.972,0.972-2.563,0.972-3.536,0l-2.828-2.828 c-0.972-0.972-0.972-2.563,0-3.536l0,0c0.972-0.972,2.563-0.972,3.536,0l2.828,2.828C27.749,23.543,27.749,25.134,26.776,26.106z"/><circle style="fill:#EEAF4B;" cx="27.586" cy="51.933" r="1"/><circle style="fill:#EEAF4B;" cx="33.586" cy="50.933" r="1"/><circle style="fill:#EEAF4B;" cx="37.586" cy="48.933" r="1"/><polygon style="fill:#EEAF4B;" points="15.468,49.869 14.35,47.933 15.468,45.996 17.704,45.996 18.822,47.933 17.704,49.869 "/><polygon style="fill:#EEAF4B;" points="21.468,45.806 20.35,43.869 21.468,41.933 23.704,41.933 24.822,43.869 23.704,45.806 "/></symbol><symbol id="food-1" viewBox="0 0 44.019 44.019"><title>food-1</title><path style="fill:#659C35;" d="M25.89,8.164c3.761,0,6.856,2.832,7.28,6.48c0.1-0.01,0.196-0.03,0.295-0.044 c2.546-3.411,4.093-5.803,4.093-5.803c0.771-1.198,1.403-2.324,1.925-3.355c-0.841-3.124-3.685-5.426-7.074-5.426 c-4.05,0-7.334,3.283-7.334,7.334c0,0.29,0.021,0.574,0.054,0.854C25.379,8.178,25.633,8.164,25.89,8.164z"/><path style="fill:#88C057;" d="M25.869,22.831c0.007,0,0.014,0.001,0.021,0.001c0.328,0,0.649-0.029,0.966-0.071 c2.444-2.77,4.607-5.498,6.34-7.805c-0.278-3.796-3.439-6.792-7.307-6.792c-4.05,0-7.334,3.283-7.334,7.334 c0,0.138,0.013,0.272,0.021,0.408C22.48,15.918,25.656,18.979,25.869,22.831z"/><path style="fill:#88C057;" d="M6.779,37.754c3.286-0.77,6.694-2.728,9.996-5.287c0.099-0.48,0.151-0.977,0.151-1.486 c0-4.05-3.283-7.334-7.334-7.334s-7.334,3.283-7.334,7.334C2.258,34.035,4.125,36.65,6.779,37.754z"/><path style="fill:#659C35;" d="M16.896,30.378c0.534,0.124,1.088,0.196,1.66,0.196c0.186,0,0.369-0.014,0.551-0.028 c2.369-2.057,4.648-4.353,6.751-6.669c0.018-0.21,0.032-0.422,0.032-0.637c0-4.05-3.283-7.334-7.334-7.334 s-7.334,3.283-7.334,7.334c0,0.204,0.014,0.404,0.03,0.603C14.312,24.552,16.634,27.17,16.896,30.378z"/><g> <path style="fill:#436B1C;" d="M28.975,8.851c0.317,0.148,0.622,0.317,0.913,0.507C29.597,9.167,29.292,8.998,28.975,8.851z"/> <path style="fill:#436B1C;" d="M28.899,8.817c-0.324-0.146-0.658-0.275-1.006-0.374c-0.001,0.001-0.002,0.001-0.002,0.002 C28.239,8.543,28.574,8.67,28.899,8.817z"/> <path style="fill:#436B1C;" d="M31.514,10.806c-0.451-0.54-0.977-1.014-1.563-1.406C30.537,9.792,31.064,10.266,31.514,10.806z"/> <path style="fill:#436B1C;" d="M33.008,13.771c-0.17-0.703-0.441-1.365-0.797-1.973C32.566,12.405,32.838,13.068,33.008,13.771z"/> <path style="fill:#436B1C;" d="M32.157,11.707c-0.178-0.294-0.375-0.575-0.592-0.841C31.782,11.132,31.979,11.413,32.157,11.707z"/> <path style="fill:#436B1C;" d="M42.271,1.084c0.027-0.115,0.039-0.176,0.039-0.176c0.426-1.185-0.988-0.87-0.988-0.87 c-1.317,0.534-2.641,1.184-3.961,1.909c1.008,0.927,1.756,2.133,2.123,3.495c-0.522,1.03-1.154,2.156-1.925,3.355 c0,0-1.547,2.392-4.093,5.803c-0.098,0.014-0.195,0.034-0.295,0.044c-0.032-0.273-0.083-0.54-0.144-0.804 c0.084,0.363,0.143,0.735,0.171,1.116c-1.733,2.307-3.896,5.035-6.34,7.805c-0.317,0.042-0.638,0.071-0.966,0.071 c-0.006,0-0.013-0.001-0.019-0.001c0.008,0.136,0.019,0.271,0.019,0.408c0,0.215-0.014,0.427-0.032,0.637 c-2.102,2.317-4.381,4.612-6.751,6.669c-0.183,0.014-0.365,0.028-0.551,0.028c-0.57,0-1.122-0.072-1.655-0.195 c0.016,0.199,0.025,0.399,0.025,0.602c0,0.509-0.052,1.006-0.151,1.486c-3.302,2.559-6.71,4.517-9.996,5.287 c-1.368-0.569-2.52-1.544-3.322-2.77c-1.776,2.427-2.424,3.447-2.642,3.819l-0.187,0.171c0.056,0.151,0.27,0.423,0.591,0.773 c4.979,5.43,12.33,5.707,18.916,0.692C31.258,31.971,40.67,18.088,40.67,18.088C45.438,10.502,42.546,2.421,42.271,1.084z"/> </g></symbol><symbol id="food" viewBox="0 0 57.761 57.761"><title>food</title><ellipse style="fill:#F4F4F4;" cx="31.332" cy="54.761" rx="15" ry="3"/><ellipse style="fill:#D8D8D8;" cx="26.332" cy="54.761" rx="10" ry="2"/><path style="fill:#E6E6E6;" d="M48.467,32.559c0-3.075-10.328-5.568-23.068-5.568S2.332,29.483,2.332,32.559 c0,0.045,0,0.135,0,0.135c0,12.74,10.328,23.068,23.068,23.068s23.068-10.328,23.068-23.068 C48.467,32.693,48.467,32.604,48.467,32.559z"/><rect x="14.234" y="7.99" transform="matrix(0.9953 0.0971 -0.0971 0.9953 1.0375 -3.3397)" style="fill:#A46F3E;" width="41.195" height="2"/><path style="fill:#EEAF4B;" d="M17.694,23.76c-0.878-0.728-1.362-1.711-1.362-2.77s0.483-2.042,1.362-2.77 c0.412-0.342,0.638-0.778,0.638-1.23s-0.227-0.889-0.638-1.23c-0.878-0.728-1.362-1.711-1.362-2.77s0.483-2.042,1.362-2.77 c0.412-0.342,0.638-0.778,0.638-1.23s-0.227-0.889-0.638-1.23c-0.878-0.728-1.362-1.711-1.362-2.77s0.483-2.042,1.362-2.77 L18.97,3.76c-0.412,0.342-0.638,0.778-0.638,1.23s0.227,0.889,0.638,1.23c0.878,0.728,1.362,1.711,1.362,2.77 s-0.483,2.042-1.362,2.77c-0.412,0.342-0.638,0.778-0.638,1.23s0.227,0.889,0.638,1.23c0.878,0.728,1.362,1.711,1.362,2.77 s-0.483,2.042-1.362,2.77c-0.412,0.342-0.638,0.778-0.638,1.23s0.227,0.889,0.638,1.23L17.694,23.76z"/><path style="fill:#EEAF4B;" d="M21.694,23.76c-0.878-0.728-1.362-1.711-1.362-2.77s0.483-2.042,1.362-2.77 c0.412-0.342,0.638-0.778,0.638-1.23s-0.227-0.889-0.638-1.23c-0.878-0.728-1.362-1.711-1.362-2.77s0.483-2.042,1.362-2.77 c0.412-0.342,0.638-0.778,0.638-1.23s-0.227-0.889-0.638-1.23c-0.878-0.728-1.362-1.711-1.362-2.77s0.483-2.042,1.362-2.77 L22.97,3.76c-0.412,0.342-0.638,0.778-0.638,1.23s0.227,0.889,0.638,1.23c0.878,0.728,1.362,1.711,1.362,2.77 s-0.483,2.042-1.362,2.77c-0.412,0.342-0.638,0.778-0.638,1.23s0.227,0.889,0.638,1.23c0.878,0.728,1.362,1.711,1.362,2.77 s-0.483,2.042-1.362,2.77c-0.412,0.342-0.638,0.778-0.638,1.23s0.227,0.889,0.638,1.23L21.694,23.76z"/><path style="fill:#EEAF4B;" d="M25.694,23.76c-0.878-0.728-1.362-1.711-1.362-2.77s0.483-2.042,1.362-2.77 c0.412-0.342,0.638-0.778,0.638-1.23s-0.227-0.889-0.638-1.23c-0.878-0.728-1.362-1.711-1.362-2.77s0.483-2.042,1.362-2.77 c0.412-0.342,0.638-0.778,0.638-1.23s-0.227-0.889-0.638-1.23c-0.878-0.728-1.362-1.711-1.362-2.77s0.483-2.042,1.362-2.77 L26.97,3.76c-0.412,0.342-0.638,0.778-0.638,1.23s0.227,0.889,0.638,1.23c0.878,0.728,1.362,1.711,1.362,2.77 s-0.483,2.042-1.362,2.77c-0.412,0.342-0.638,0.778-0.638,1.23s0.227,0.889,0.638,1.23c0.878,0.728,1.362,1.711,1.362,2.77 s-0.483,2.042-1.362,2.77c-0.412,0.342-0.638,0.778-0.638,1.23s0.227,0.889,0.638,1.23L25.694,23.76z"/><path style="fill:#EEAF4B;" d="M29.694,23.76c-0.878-0.728-1.362-1.711-1.362-2.77s0.483-2.042,1.362-2.77 c0.412-0.342,0.638-0.778,0.638-1.23s-0.227-0.889-0.638-1.23c-0.878-0.728-1.362-1.711-1.362-2.77s0.483-2.042,1.362-2.77 c0.412-0.342,0.638-0.778,0.638-1.23s-0.227-0.889-0.638-1.23c-0.878-0.728-1.362-1.711-1.362-2.77s0.483-2.042,1.362-2.77 L30.97,3.76c-0.412,0.342-0.638,0.778-0.638,1.23s0.227,0.889,0.638,1.23c0.878,0.728,1.362,1.711,1.362,2.77 s-0.483,2.042-1.362,2.77c-0.412,0.342-0.638,0.778-0.638,1.23s0.227,0.889,0.638,1.23c0.878,0.728,1.362,1.711,1.362,2.77 s-0.483,2.042-1.362,2.77c-0.412,0.342-0.638,0.778-0.638,1.23s0.227,0.889,0.638,1.23L29.694,23.76z"/><ellipse style="fill:#FBD490;" cx="25.399" cy="32.558" rx="23.068" ry="5.568"/><path style="fill:#EEAF4B;" d="M34.562,36.399c-0.683-0.824-1.778-0.824-2.461,0l-1.539-1.277c0.728-0.878,1.711-1.361,2.77-1.361 s2.042,0.483,2.77,1.361L34.562,36.399z"/><path style="fill:#EEAF4B;" d="M40.562,35.399c-0.683-0.824-1.778-0.824-2.461,0l-1.539-1.277c0.728-0.878,1.711-1.361,2.77-1.361 s2.042,0.483,2.77,1.361L40.562,35.399z"/><path style="fill:#EEAF4B;" d="M44.562,33.399c-0.683-0.824-1.778-0.824-2.461,0l-1.539-1.277c0.728-0.878,1.711-1.361,2.77-1.361 s2.042,0.483,2.77,1.361L44.562,33.399z"/><path style="fill:#EEAF4B;" d="M38.562,32.399c-0.683-0.824-1.778-0.824-2.461,0l-1.539-1.277c0.728-0.878,1.711-1.361,2.77-1.361 s2.042,0.483,2.77,1.361L38.562,32.399z"/><path style="fill:#EEAF4B;" d="M32.562,33.399c-0.683-0.824-1.778-0.824-2.461,0l-1.539-1.277c0.728-0.878,1.711-1.361,2.77-1.361 s2.042,0.483,2.77,1.361L32.562,33.399z"/><path style="fill:#EEAF4B;" d="M32.562,30.399c-0.683-0.824-1.778-0.824-2.461,0l-1.539-1.277c0.728-0.878,1.711-1.361,2.77-1.361 s2.042,0.483,2.77,1.361L32.562,30.399z"/><path style="fill:#EEAF4B;" d="M26.562,32.399c-0.683-0.824-1.778-0.824-2.461,0l-1.539-1.277c0.728-0.878,1.711-1.361,2.77-1.361 s2.042,0.483,2.77,1.361L26.562,32.399z"/><path style="fill:#EEAF4B;" d="M27.562,36.399c-0.683-0.824-1.778-0.824-2.461,0l-1.539-1.277c0.728-0.878,1.711-1.361,2.77-1.361 s2.042,0.483,2.77,1.361L27.562,36.399z"/><path style="fill:#EEAF4B;" d="M21.562,36.399c-0.683-0.824-1.778-0.824-2.461,0l-1.539-1.277c0.728-0.878,1.711-1.361,2.77-1.361 s2.042,0.483,2.77,1.361L21.562,36.399z"/><path style="fill:#EEAF4B;" d="M9.562,35.399c-0.683-0.824-1.778-0.824-2.461,0l-1.539-1.277c0.728-0.878,1.711-1.361,2.77-1.361 s2.042,0.483,2.77,1.361L9.562,35.399z"/><path style="fill:#EEAF4B;" d="M16.562,35.399c-0.683-0.824-1.778-0.824-2.461,0l-1.539-1.277c0.728-0.878,1.711-1.361,2.77-1.361 s2.042,0.483,2.77,1.361L16.562,35.399z"/><path style="fill:#EEAF4B;" d="M19.562,32.399c-0.683-0.824-1.778-0.824-2.461,0l-1.539-1.277c0.728-0.878,1.711-1.361,2.77-1.361 s2.042,0.483,2.77,1.361L19.562,32.399z"/><path style="fill:#EEAF4B;" d="M11.562,32.399c-0.683-0.824-1.778-0.824-2.461,0l-1.539-1.277c0.728-0.878,1.711-1.361,2.77-1.361 s2.042,0.483,2.77,1.361L11.562,32.399z"/><rect x="31.832" y="-17.718" transform="matrix(0.1382 0.9904 -0.9904 0.1382 32.2461 -29.078)" style="fill:#AF7F58;" width="2" height="43.417"/><path style="fill:#EDEDED;" d="M18.624,52.181c-9.44-1.46-11.3-13.42-11.3-13.42c2.865,1.45,5.293,2.767,6.198,4.954 c3.225,0.168,4.927,1.206,4.384,4.283c8.688,2.048,8.378,3.64,5.943,4.859C22.299,52.706,18.624,52.181,18.624,52.181z"/></symbol><symbol id="meat-1" viewBox="0 0 56 56"><title>meat-1</title><ellipse transform="matrix(0.7071 0.7071 -0.7071 0.7071 21.4085 -27.5116)" style="fill:#C56458;" cx="43.914" cy="12.087" rx="16" ry="6"/><path style="fill:#FBD490;" d="M42.499,13.501c-2.382-2.382-4.048-4.645-5.12-6.486c-0.557-0.955,0.507-2.019,1.463-1.463 c1.84,1.072,4.104,2.738,6.486,5.12c2.382,2.382,4.048,4.645,5.12,6.486c0.557,0.955-0.507,2.019-1.463,1.463 C47.145,17.548,44.881,15.883,42.499,13.501z"/><path style="fill:#773F3A;" d="M39.671,16.329C33.423,10.081,30.257,3.116,32.6,0.773c-8.396,8.396-17.562,27.693-11.314,33.941 S46.831,31.796,55.227,23.4C52.884,25.743,45.919,22.578,39.671,16.329z"/><path style="fill:#FBD490;" d="M22.693,35.751c-0.52-0.283-0.993-0.624-1.406-1.037c-0.546-0.546-0.967-1.196-1.288-1.925 l-6.872,6.872c-2.341,2.341-5.573,3.552-8.876,3.347c-0.383-0.024-0.782,0.007-1.19,0.1c-1.444,0.33-2.619,1.5-2.951,2.944 C-0.493,48.673,1.482,51,4,51c0.05,0,0.096-0.013,0.146-0.015c-0.288,1.095-0.288,2.303,1.317,3.883 c0.716,0.705,1.657,1.16,2.661,1.13C10.276,55.933,12,54.168,12,52c0-0.015,0-0.03,0-0.045c-0.037-3.305,1.015-6.526,3.352-8.863 L22.693,35.751z"/><path style="fill:#994530;" d="M38.31,21.667c-0.194,0-0.391-0.057-0.563-0.175c-1.036-0.708-2.057-1.563-3.034-2.539 s-1.832-1.998-2.54-3.034c-0.414-0.606-1.098-0.953-1.848-0.916c-0.746,0.032-1.407,0.435-1.77,1.077 c-0.633,1.125-1.181,2.261-1.628,3.377c-0.205,0.512-0.786,0.761-1.3,0.557c-0.513-0.206-0.762-0.788-0.556-1.301 c0.479-1.197,1.065-2.413,1.742-3.613c0.703-1.25,1.984-2.033,3.425-2.095c1.448-0.063,2.779,0.604,3.585,1.785 c0.629,0.922,1.426,1.872,2.302,2.749c0.89,0.889,1.814,1.663,2.749,2.303c0.456,0.312,0.573,0.934,0.261,1.39 C38.943,21.514,38.629,21.667,38.31,21.667z"/><path style="fill:#994530;" d="M27.91,33.292c-1.571,0.001-2.938-0.401-3.906-1.37C23.09,31.008,22.628,29.687,22.63,28 c0.001-0.553,0.448-0.999,1-0.999c0,0,0.001,0,0.001,0c0.552,0.001,1,0.449,0.999,1.002c-0.001,1.138,0.263,1.98,0.788,2.505 c1.574,1.574,6.136,0.727,11.091-2.063c0.483-0.273,1.091-0.101,1.362,0.381c0.271,0.48,0.1,1.091-0.381,1.361 C34.433,31.909,30.822,33.292,27.91,33.292z"/></symbol><symbol id="bread-1" viewBox="0 0 56.566 56.566"><title>bread-1</title><path style="fill:#D99F4C;" d="M7.454,39.648c-0.122,0.329-0.303,0.631-0.548,0.883c-4.73,4.88-8.582,11.733-5.918,14.397 c2.734,2.734,10.813,2.187,15.71-2.71l35-35c4.897-4.897,6.033-13.566,3.299-16.299c-2.72-2.72-9.91,0.929-15.114,6.624 c-0.051,0.055-0.106,0.098-0.173,0.132c-0.498,0.249-2.792,1.422-3.77,2.401c-1.754,1.754-2.67,3.989-2.727,6.14 c-2.151,0.057-4.386,0.973-6.14,2.727c-1.754,1.754-2.67,3.989-2.727,6.14c-2.151,0.057-4.386,0.973-6.14,2.727 s-2.67,3.989-2.727,6.14c-2.151,0.057-4.386,0.973-6.14,2.727C8.382,37.634,7.862,38.545,7.454,39.648z"/><path style="fill:#EAC494;" d="M39.884,7.543c-0.051,0.055-0.106,0.098-0.173,0.132c-0.162,0.081-0.524,0.267-0.961,0.506 c-0.013,0.291-0.009,0.566,0.02,0.808c0.203,1.684,1.275,3.156,3.1,4.261c0.162,0.098,0.34,0.145,0.517,0.145 c0.338,0,0.669-0.172,0.856-0.482c0.286-0.473,0.135-1.087-0.338-1.373c-0.892-0.54-1.988-1.462-2.149-2.79 c-0.127-1.046,0.349-2.219,1.372-3.421C41.354,6.021,40.599,6.76,39.884,7.543z"/><path style="fill:#EAC494;" d="M34.85,21.237c0.167,0.105,0.353,0.156,0.536,0.156c0.33,0,0.654-0.164,0.845-0.463 c0.297-0.466,0.159-1.084-0.307-1.381c-1.255-0.799-2.041-2.107-2.214-3.686c-0.14-1.275,0.119-2.595,0.707-3.799 c-0.759,1.316-1.167,2.749-1.205,4.15c-0.479,0.013-0.961,0.075-1.441,0.172C32.079,18.443,33.158,20.16,34.85,21.237z"/><path style="fill:#EAC494;" d="M25.845,30.234c0.168,0.107,0.355,0.159,0.541,0.159c0.328,0,0.65-0.161,0.842-0.458 c0.299-0.465,0.165-1.083-0.299-1.383c-1.596-1.027-2.07-2.553-2.188-3.651c-0.136-1.272,0.142-2.626,0.745-3.865 c-0.721,1.287-1.105,2.683-1.141,4.046c-0.52,0.014-1.045,0.08-1.566,0.194C23.048,27.369,24.128,29.127,25.845,30.234z"/><path style="fill:#EAC494;" d="M17.907,38.271c0.152,0.084,0.317,0.123,0.479,0.123c0.354,0,0.696-0.188,0.878-0.52 c0.266-0.484,0.088-1.093-0.396-1.357c-1.743-0.955-2.728-2.138-2.925-3.517c-0.138-0.966,0.125-2.054,0.719-3.165 c-0.746,1.306-1.146,2.727-1.183,4.115c-0.44,0.012-0.882,0.069-1.324,0.152C14.548,35.399,15.535,36.972,17.907,38.271z"/><path style="fill:#EAC494;" d="M8.802,46.204c0.177,0.128,0.382,0.189,0.585,0.189c0.311,0,0.615-0.144,0.812-0.414 c0.323-0.447,0.223-1.072-0.225-1.396c-1.785-1.291-2.744-2.61-2.849-3.919c-0.011-0.136-0.01-0.274-0.002-0.412 c-0.068,0.096-0.134,0.193-0.216,0.279c-0.507,0.523-1.001,1.072-1.481,1.633C5.931,43.589,7.058,44.943,8.802,46.204z"/></symbol><symbol id="bread" viewBox="0 0 55 55"><title>bread</title><path style="fill:#A46F3E;" d="M47,8.5H28h-1H8c-4.4,0-8,3.6-8,8v6c0,2.208,0.909,4.211,2.369,5.66C3.464,29.247,4,30.779,4,32.322 l0,7.151c0,3.865,3.162,7.027,7.027,7.027H27h1h16.846c3.385,0,6.154-2.769,6.154-6.154V32.55c0-1.69,0.625-3.33,1.791-4.554 C54.157,26.562,55,24.626,55,22.5v-6C55,12.1,51.4,8.5,47,8.5z"/><path style="fill:#FBD490;" d="M22.762,8.5H8c-4.4,0-8,3.6-8,8v6c0,2.208,0.909,4.211,2.369,5.66C3.464,29.247,4,30.779,4,32.322 l0,7.151c0,3.865,3.162,7.027,7.027,7.027h7.531c3.543,0,6.442-2.899,6.442-6.442l0-8.203c0-1.406,0.633-2.704,1.631-3.695 C28.091,26.711,29,24.708,29,22.5v-7.762C29,11.307,26.193,8.5,22.762,8.5z"/><path style="fill:#704928;" d="M46,30.5h-9c-0.552,0-1-0.447-1-1s0.448-1,1-1h9c0.552,0,1,0.447,1,1S46.552,30.5,46,30.5z"/><path style="fill:#704928;" d="M33,30.5h-2c-0.552,0-1-0.447-1-1s0.448-1,1-1h2c0.552,0,1,0.447,1,1S33.552,30.5,33,30.5z"/><path style="fill:#A46F3E;" d="M9.5,35c-0.256,0-0.512-0.098-0.707-0.293c-0.391-0.391-0.391-1.023,0-1.414l1.5-1.5 c0.391-0.391,1.023-0.391,1.414,0s0.391,1.023,0,1.414l-1.5,1.5C10.012,34.902,9.756,35,9.5,35z"/><path style="fill:#A46F3E;" d="M17.593,27.893c-0.211,0-0.424-0.066-0.605-0.204L15.3,26.403c-0.439-0.335-0.524-0.962-0.189-1.401 c0.334-0.439,0.961-0.524,1.401-0.19l1.688,1.285c0.439,0.335,0.524,0.962,0.189,1.401C18.192,27.757,17.895,27.893,17.593,27.893z "/><path style="fill:#A46F3E;" d="M11.999,42.5c-0.211,0-0.424-0.066-0.605-0.204l-1.688-1.285c-0.439-0.335-0.524-0.962-0.189-1.401 c0.334-0.439,0.961-0.525,1.401-0.19l1.688,1.285c0.439,0.335,0.524,0.962,0.189,1.401C12.599,42.364,12.301,42.5,11.999,42.5z"/><path style="fill:#A46F3E;" d="M17.139,38.445c-0.431,0-0.829-0.28-0.958-0.715c-0.157-0.529,0.144-1.086,0.673-1.244l2.033-0.604 c0.53-0.15,1.086,0.145,1.244,0.674s-0.144,1.086-0.673,1.244l-2.033,0.604C17.33,38.432,17.233,38.445,17.139,38.445z"/><path style="fill:#A46F3E;" d="M5.327,17c-0.256,0-0.512-0.098-0.707-0.293c-0.391-0.391-0.391-1.023,0-1.414l1.5-1.5 c0.391-0.391,1.023-0.391,1.414,0s0.391,1.023,0,1.414l-1.5,1.5C5.839,16.902,5.583,17,5.327,17z"/><path style="fill:#A46F3E;" d="M7.826,24.5c-0.211,0-0.424-0.066-0.605-0.204l-1.688-1.285c-0.439-0.335-0.524-0.962-0.189-1.401 c0.334-0.44,0.961-0.525,1.401-0.19l1.688,1.285c0.439,0.335,0.524,0.962,0.189,1.401C8.426,24.364,8.128,24.5,7.826,24.5z"/><path style="fill:#A46F3E;" d="M24.019,23.903c-0.479,0-0.903-0.346-0.985-0.834l-0.353-2.092 c-0.092-0.544,0.275-1.061,0.819-1.152c0.549-0.086,1.061,0.275,1.152,0.82l0.353,2.092c0.092,0.544-0.275,1.061-0.819,1.152 C24.13,23.898,24.074,23.903,24.019,23.903z"/><path style="fill:#A46F3E;" d="M12.966,20.445c-0.431,0-0.829-0.28-0.958-0.715c-0.157-0.529,0.144-1.086,0.673-1.244l2.033-0.604 c0.53-0.155,1.087,0.145,1.244,0.674c0.157,0.529-0.144,1.086-0.673,1.244l-2.033,0.604C13.157,20.432,13.061,20.445,12.966,20.445 z"/><path style="fill:#A46F3E;" d="M20.978,16.268c-0.121,0-0.243-0.021-0.362-0.067l-1.978-0.768c-0.515-0.2-0.771-0.779-0.57-1.295 c0.199-0.515,0.779-0.77,1.294-0.57l1.978,0.768c0.515,0.2,0.771,0.779,0.57,1.295C21.756,16.025,21.378,16.268,20.978,16.268z"/><path style="fill:#775131;" d="M46.609,13.896c0.586-1.674,0.671-3.62-1.001-5.113C45.394,8.592,45.105,8.5,44.819,8.5h-1.206 c-0.992,0-1.569,1.117-0.991,1.922c0.7,0.975,1.315,2.114,1.668,3.393C44.605,14.955,46.218,15.012,46.609,13.896z"/><path style="fill:#775131;" d="M37.217,13.896c0.586-1.674,0.671-3.62-1.001-5.113C36.002,8.592,35.713,8.5,35.427,8.5h-1.206 c-0.992,0-1.569,1.117-0.991,1.922c0.7,0.975,1.315,2.114,1.668,3.393C35.213,14.955,36.826,15.012,37.217,13.896z"/></symbol><symbol id="meat" viewBox="0 0 53.655 53.655"><title>meat</title><path style="fill:#E6E6E6;" d="M53,5.814c-0.53-0.797-1.26-1.311-2.057-1.572c-0.499-0.163-0.876-0.54-1.039-1.039 c-0.261-0.798-0.775-1.528-1.572-2.058c-1.42-0.944-3.364-0.86-4.694,0.207c-1.059,0.849-1.555,2.086-1.496,3.304 c0.066,1.375-0.332,2.732-1.306,3.705l-8.431,8.431c-0.062,0.062-0.112,0.131-0.169,0.197l-0.877,2.924 c0.052,0.326,0.147,0.647,0.302,0.952c0.011,0.022,0.028,0.037,0.04,0.059l2.283-0.761v2.542c1.15,0.28,2.413-0.005,3.307-0.899 l8.496-8.496c0.974-0.974,2.33-1.372,3.706-1.306c1.218,0.058,2.456-0.437,3.304-1.497C53.86,9.177,53.944,7.234,53,5.814z"/><path style="fill:#BFBFBF;" d="M47.342,5.88l-0.744-0.668c0.859-0.959,2.089-1.522,3.373-1.548l0.02,1 C48.983,4.684,48.018,5.127,47.342,5.88z"/><g> <path style="fill:#EEAF4B;" d="M33.981,24.164v-4l-3,1l1.902-6.34c-1.38,0.021-2.754,0.542-3.802,1.59 c-4.132,4.132-9.603,6.534-15.411,7.178c-3.14,0.348-6.187,1.732-8.586,4.155c-5.3,5.352-5.494,14.16-0.42,19.726 c5.547,6.086,14.984,6.25,20.741,0.493c2.149-2.149,3.471-4.809,3.969-7.589c1.049-5.857,4.075-11.179,8.283-15.387 c0.256-0.256,0.47-0.536,0.664-0.825H33.981z"/> <path style="fill:#EEAF4B;" d="M15.282,53.164c-0.123,0-0.245-0.001-0.368-0.004c-4.229-0.098-8.131-1.879-10.988-5.014 c-5.404-5.929-5.203-15.396,0.448-21.104c2.458-2.482,5.721-4.062,9.188-4.446c5.83-0.646,10.952-3.028,14.813-6.891 c1.189-1.188,2.785-1.856,4.494-1.882l1.365-0.021l-1.741,5.803l2.488-0.83v4.388h5.215l-1.043,1.557 c-0.261,0.389-0.511,0.698-0.788,0.976c-4.259,4.259-7.027,9.396-8.006,14.856c-0.553,3.088-2.021,5.896-4.246,8.12 C23.209,51.577,19.375,53.164,15.282,53.164z M31.464,16.073c-0.628,0.218-1.2,0.572-1.676,1.047 c-4.186,4.187-9.721,6.768-16.007,7.465c-3.057,0.339-5.818,1.676-7.986,3.865C0.88,33.413,0.705,41.645,5.404,46.799 c2.485,2.728,5.88,4.276,9.556,4.361c3.707,0.091,7.138-1.3,9.739-3.901c1.935-1.935,3.211-4.375,3.691-7.06 c0.984-5.489,3.642-10.664,7.71-15.035h-3.119v-3.612l-3.512,1.17L31.464,16.073z"/> </g><path style="fill:#FBD490;" d="M25.317,41.671c-0.144,0-0.289-0.031-0.428-0.097c-0.499-0.236-0.712-0.833-0.475-1.332 c0.461-0.972,0.789-1.995,0.976-3.042c0.096-0.544,0.605-0.91,1.16-0.809c0.543,0.097,0.905,0.616,0.809,1.16 c-0.218,1.222-0.601,2.415-1.138,3.548C26.05,41.46,25.692,41.671,25.317,41.671z"/><path style="fill:#FBD490;" d="M14.31,49.835c-0.48,0-0.904-0.347-0.985-0.836c-0.091-0.544,0.277-1.06,0.822-1.15 c3.313-0.553,6.435-2.352,8.565-4.936c0.35-0.426,0.981-0.487,1.407-0.136c0.427,0.352,0.487,0.981,0.136,1.407 c-2.433,2.951-5.998,5.006-9.78,5.637C14.419,49.831,14.365,49.835,14.31,49.835z"/><circle style="fill:#FBD490;" cx="10.981" cy="30.164" r="2"/></symbol><symbol id="cereals" viewBox="0 0 51.906 51.906"><title>cereals</title><polygon style="fill:#B27C4F;" points="7.88,49 0.904,46 0.904,0 7.88,0 "/><path style="fill:#A46F3E;" d="M15.431,34.121c0,0,0-0.069,0-0.104c0-2.371,7.963-4.293,17.785-4.293 c1.028,0,2.03,0.026,3.01,0.066l2.677-10.04V0H7.911v49h15.578C18.64,45.823,15.431,40.35,15.431,34.121z"/><path style="fill:#F9EA80;" d="M20.904,23.228h-3.658c-2.95,0-5.342-2.392-5.342-5.342v-3.658h3.658 c2.95,0,5.342,2.392,5.342,5.342V23.228z"/><path style="fill:#F9EA80;" d="M24.904,23.228h3.658c2.95,0,5.342-2.392,5.342-5.342v-3.658h-3.658 c-2.95,0-5.342,2.392-5.342,5.342V23.228z"/><path style="fill:#F9EA80;" d="M22.897,18.728l2.587-2.587c2.086-2.086,2.086-5.468,0-7.554L22.897,6L20.31,8.587 c-2.086,2.086-2.086,5.468,0,7.554L22.897,18.728z"/><path style="fill:#EFE7D0;" d="M40.154,30.063L43.904,16c0-0.55-0.45-1-1-1h-2c-0.55,0-1,0.45-1,1l-3.677,13.79 c-0.98-0.041-1.982-0.066-3.01-0.066c-9.823,0-17.785,1.922-17.785,4.293c0,0.035,0,0.104,0,0.104 c0,9.823,7.963,17.785,17.785,17.785c9.823,0,17.785-7.963,17.785-17.785c0,0,0-0.069,0-0.104 C51.002,32.24,46.53,30.716,40.154,30.063z"/><path style="fill:#FFF5BB;" d="M40.154,30.063L43.904,16c0-0.55-0.45-1-1-1h-2c-0.55,0-1,0.45-1,1l-3.677,13.79 c-0.98-0.041-1.982-0.066-3.01-0.066c-9.823,0-17.785,1.922-17.785,4.293c0,2.371,7.963,4.293,17.785,4.293 c9.823,0,17.785-1.922,17.785-4.293C51.002,32.24,46.53,30.716,40.154,30.063z"/><path style="fill:#D2D5D7;" d="M40.154,30.063L43.904,16c0-0.55-0.45-1-1-1h-2c-0.55,0-1,0.45-1,1l-3.677,13.79l-0.656,2.502 L39.446,33L40.154,30.063z"/><path style="fill:#ED8F20;" d="M28.904,35h-2c0-0.552-0.449-1-1-1s-1,0.448-1,1h-2c0-1.654,1.346-3,3-3S28.904,33.346,28.904,35z"/><path style="fill:#ED8F20;" d="M36.904,36h-2c0-0.552-0.449-1-1-1s-1,0.448-1,1h-2c0-1.654,1.346-3,3-3S36.904,34.346,36.904,36z"/></symbol><symbol id="fish" viewBox="0 0 45.52 45.52"><title>fish</title><path style="fill:#698B9E;" d="M45.028,13.98c0.574-0.619,0.322-1.683-0.45-2.027c-1.798-0.8-1.061-3.459-2.564-3.318 c-1.724,0.161-2.99-1.104-2.828-2.828c0.161-1.724-1.104-2.99-2.828-2.828c-1.724,0.161-0.044-2.519-2.828-2.828 c0,0-1.945-0.751-2.13,1.111L31.371,8.52H20.164c-11.038,0-19.986,8.948-19.986,19.986l0,17.014l16.876,0 c11.114,0,20.124-9.01,20.124-20.124l0-11.159l7.244,0.067C44.678,14.264,44.875,14.144,45.028,13.98z"/><path style="fill:#5D7989;" d="M21.951,39.899h-2c0-7.72-6.28-14-14-14v-2C14.773,23.899,21.951,31.076,21.951,39.899z"/><path style="fill:#5D7989;" d="M25.206,36.644h-2c0-7.72-6.28-14-14-14v-2C18.028,20.644,25.206,27.822,25.206,36.644z"/><path style="fill:#5D7989;" d="M28.315,33.534h-2c0-7.72-6.28-14-14-14v-2C21.137,17.534,28.315,24.712,28.315,33.534z"/><path style="fill:#5D7989;" d="M31.57,30.28h-2c0-7.72-6.28-14-14-14v-2C24.392,14.28,31.57,21.457,31.57,30.28z"/><path style="fill:#546A79;" d="M14.824,9.263c-0.394-1.98-1.211-4.133-2.77-6.285c0,0-8.224,4.078-4.851,10.331 C9.388,11.444,11.978,10.052,14.824,9.263z"/><path style="fill:#546A79;" d="M36.819,29.131c-0.605,3.221-1.979,6.164-3.922,8.647c2.863,0.326,7.064,0.045,11.238-2.98 C44.135,34.798,41.335,29.151,36.819,29.131z"/><circle style="fill:#38454F;" cx="5.951" cy="33.384" r="2"/></symbol><symbol id="steak" viewBox="0 0 49.818 49.818"><title>steak</title><path style="fill:#994530;" d="M0.953,38.891c0,0,3.184,6.921,11.405,9.64c1.827,0.604,3.751,0.751,5.667,0.922 c7.866,0.703,26.714-0.971,31.066-18.976c1.367-5.656,0.76-11.612-1.429-17.003C44.51,5.711,37.447-4.233,22.831,2.427 c-8.328,3.795-7.696,10.279-5.913,14.787c2.157,5.456-2.243,11.081-8.06,10.316C1.669,26.584-1.825,30.904,0.953,38.891z"/><g> <path style="fill:#D75A4A;" d="M4.69,37.18c0.402,0.785,3.058,5.552,9.111,7.554c1.335,0.441,2.863,0.577,4.482,0.72l0.282,0.025 c0.818,0.073,1.698,0.11,2.617,0.11c18.18,0,22.854-11.218,24.02-16.041c1.134-4.693,0.706-9.703-1.235-14.488 C41.049,7.874,36.856,4.229,31.506,4.229c-2.21,0-4.683,0.615-7.349,1.83c-2.992,1.364-6.676,3.921-4.13,10.36 c1.284,3.25,0.912,6.746-1.023,9.591c-2.17,3.191-6.002,4.901-9.895,4.39c-0.493-0.065-0.966-0.099-1.404-0.099 c-1.077,0-2.502,0.198-3.173,1.143C3.765,32.524,3.823,34.609,4.69,37.18z"/> <path style="fill:#C64940;" d="M21.184,46.589c-0.948,0-1.858-0.038-2.706-0.114l-0.283-0.025 c-1.674-0.147-3.257-0.287-4.706-0.767c-6.376-2.108-9.188-7.073-9.688-8.047l-0.058-0.137c-0.984-2.917-0.993-5.273-0.026-6.635 c0.912-1.285,2.89-1.807,5.524-1.456c3.537,0.466,6.959-1.054,8.936-3.961c1.746-2.565,2.082-5.723,0.921-8.661 c-3.189-8.065,2.707-10.754,4.645-11.638c9.68-4.407,16.81-1.155,21.152,9.535c2.021,4.981,2.464,10.202,1.28,15.099 C44.953,34.836,40.073,46.589,21.184,46.589z M5.613,36.787c0.401,0.758,2.936,5.155,8.503,6.997 c1.229,0.406,2.699,0.536,4.256,0.673l0.284,0.025c0.788,0.07,1.639,0.106,2.527,0.106c17.469,0,21.938-10.683,23.048-15.276 c1.084-4.487,0.672-9.286-1.19-13.877C40.29,8.663,36.409,5.229,31.506,5.229c-2.067,0-4.4,0.585-6.934,1.74 c-3.02,1.376-5.81,3.532-3.615,9.083c1.408,3.563,0.998,7.398-1.126,10.521c-2.404,3.534-6.563,5.386-10.852,4.818 c-1.793-0.236-3.197,0.019-3.632,0.632C4.912,32.636,4.756,34.207,5.613,36.787z"/> </g><g> <circle style="fill:#E6E6E6;" cx="32.455" cy="12.779" r="4"/> <path style="fill:#7A3726;" d="M32.455,17.779c-2.757,0-5-2.243-5-5s2.243-5,5-5s5,2.243,5,5S35.212,17.779,32.455,17.779z M32.455,9.779c-1.654,0-3,1.346-3,3s1.346,3,3,3s3-1.346,3-3S34.109,9.779,32.455,9.779z"/> </g><path style="fill:#C64940;" d="M25.617,45.684l-1.941-0.479c0.435-1.761-1.063-3.216-3.446-4.859 c-2.875-1.984-4.817-5.117-5.327-8.595c-0.186-1.266-0.425-2.285-0.428-2.295l1.922-0.548c0.01,0.028,1.09,3.104,3.978,4.314 c2.094,0.877,4.667,0.598,7.648-0.832c11.578-5.554,17.102-2.646,17.332-2.52l-0.967,1.752c-0.04-0.021-4.97-2.48-15.5,2.57 c-3.53,1.694-6.662,1.984-9.312,0.863c-0.801-0.339-1.49-0.779-2.078-1.265c0.769,1.974,2.11,3.695,3.867,4.907 C23.149,39.931,26.472,42.222,25.617,45.684z"/><path style="fill:#C64940;" d="M27.074,27.586c-5.37,0-7.605-3.694-7.633-3.74l1.727-1.01l-0.863,0.505l0.859-0.511 c0.108,0.179,2.714,4.335,9.738,2.105c1.54-0.794,12.038-6.002,15.619-2.289l-1.439,1.389c-1.979-2.052-9.229,0.576-13.332,2.714 l-0.154,0.064C29.892,27.364,28.389,27.586,27.074,27.586z"/></symbol><symbol id="tomato" viewBox="0 0 51.679 51.679"><title>tomato</title><path style="fill:#88C057;" d="M40.47,8.458c-2.562-1.642-7.374-3.93-11.997-1.816c-0.445,0.204-0.952-0.117-0.952-0.607V1.786 C27.522,0.804,26.855,0,26.04,0h-2.223c-0.815,0-1.482,0.804-1.482,1.786v4.501c0,0.425-0.385,0.747-0.802,0.661 c-1.877-0.387-6.751-0.989-11.412,1.795c-0.638,0.381-0.268,1.381,0.464,1.247c2.17-0.397,5.026-0.67,6.956,0.092 c0.506,0.199,0.579,0.891,0.124,1.189c-1.371,0.895-3.9,2.953-5.557,6.737c-0.282,0.644,0.51,1.221,1.053,0.774 c2.117-1.744,5.6-4.107,8.554-3.726c0.348,0.045,0.612,0.329,0.607,0.68c-0.03,1.982-0.005,8.716,1.632,11.265 c0.258,0.402,0.836,0.422,1.117,0.035c1.043-1.433,3.304-5.233,3.211-11.167c-0.006-0.39,0.307-0.707,0.697-0.694 c1.49,0.048,5.008,0.469,7.798,3.194c0.457,0.447,1.214,0.061,1.134-0.573c-0.219-1.735-1.174-4.359-4.631-6.394 c-0.525-0.309-0.436-1.095,0.155-1.24c1.194-0.293,3.252-0.572,6.644-0.46C40.768,9.723,41.049,8.829,40.47,8.458z"/><path style="fill:#D13834;" d="M41.248,9.99c-0.093-0.065-0.201-0.106-0.314-0.12c-0.4-0.049-0.801-0.095-1.201-0.149 c-0.143-0.014-0.287-0.025-0.429-0.039c-2.914-0.048-4.743,0.206-5.846,0.474c-0.599,0.146-0.707,0.931-0.175,1.244 c3.457,2.035,4.411,4.659,4.63,6.393c0.08,0.634-0.677,1.02-1.134,0.573c-2.79-2.724-6.308-3.145-7.798-3.194 c-0.39-0.013-0.704,0.304-0.697,0.694c0.092,5.934-2.168,9.734-3.211,11.167c-0.282,0.387-0.859,0.367-1.117-0.035 c-1.637-2.549-1.662-9.283-1.632-11.265c0.005-0.35-0.259-0.635-0.607-0.68c-2.954-0.382-6.437,1.982-8.554,3.726 c-0.543,0.447-1.335-0.13-1.053-0.774c1.655-3.779,4.18-5.836,5.552-6.733c0.457-0.299,0.381-0.994-0.128-1.19 c-0.371-0.143-0.776-0.249-1.203-0.324c-0.076-0.014-0.157-0.015-0.234-0.004c-2.425,0.33-4.807,0.791-7.119,1.411 c-0.102,0.027-0.197,0.076-0.278,0.144c-5.103,4.246-8.307,10.359-8.307,17.156c0,12.821,11.393,23.214,25.446,23.214 s25.446-10.393,25.446-23.214C51.286,20.928,47.348,14.23,41.248,9.99z"/><path style="fill:#ED7161;" d="M5.791,34.636c-0.342,0-0.675-0.175-0.861-0.49C4.182,32.883,3.692,31.488,3.473,30 c-0.08-0.547,0.298-1.055,0.844-1.135c0.556-0.086,1.055,0.298,1.135,0.844c0.178,1.213,0.593,2.395,1.199,3.418 c0.281,0.475,0.125,1.089-0.351,1.37C6.14,34.591,5.964,34.636,5.791,34.636z"/><path style="fill:#ED7161;" d="M4.588,26.678c-0.023,0-0.047-0.001-0.07-0.003c-0.552-0.038-0.967-0.516-0.929-1.066 c0.094-1.327,0.366-2.616,0.811-3.834c0.189-0.519,0.761-0.783,1.283-0.596c0.519,0.189,0.785,0.764,0.596,1.283 c-0.381,1.041-0.614,2.146-0.694,3.285C5.548,26.275,5.109,26.678,4.588,26.678z"/></symbol><symbol id="apple" viewBox="0 0 56.673 56.673"><title>apple</title><path style="fill:#D13834;" d="M31.483,16.213c-2.065,0.511-4.227,0.511-6.292,0c-10.756-2.66-19.762-1.64-19.658,18.643 c0.053,10.39,9.783,23.862,20.009,21.557c1.834-0.413,3.755-0.413,5.589,0c10.226,2.305,19.956-11.167,20.009-21.557 C51.244,14.574,42.239,13.553,31.483,16.213z"/><path style="fill:#F75B57;" d="M10.533,29.674c-0.553,0-1-0.448-1-1c0-5.514,4.037-10,9-10c0.553,0,1,0.448,1,1s-0.447,1-1,1 c-3.859,0-7,3.589-7,8C11.533,29.226,11.085,29.674,10.533,29.674z"/><path style="fill:#4C312C;" d="M28.265,19.999c-0.537,0-0.981-0.427-0.998-0.968c-0.135-4.232-1.761-9.545-5.922-11.764 c-0.487-0.26-0.672-0.865-0.412-1.353c0.261-0.487,0.864-0.672,1.354-0.412c4.914,2.62,6.827,8.673,6.979,13.465 c0.018,0.552-0.415,1.014-0.968,1.031C28.286,19.999,28.276,19.999,28.265,19.999z"/><path style="fill:#994530;" d="M28.176,23.592c-1.68,0-3.261-0.655-4.45-1.845c-0.391-0.39-0.391-1.023,0-1.414 s1.023-0.391,1.414,0c0.812,0.812,1.891,1.259,3.036,1.259s2.224-0.447,3.035-1.259c0.391-0.391,1.023-0.391,1.414,0 c0.391,0.39,0.391,1.023,0,1.414C31.436,22.937,29.856,23.592,28.176,23.592z"/><path style="fill:#659C35;" d="M27.305,13.04l0.609-4.086c0.643-4.315,4.031-7.703,8.346-8.346L40.345,0l-0.609,4.086 c-0.643,4.315-4.031,7.703-8.346,8.346L27.305,13.04z"/></symbol><symbol id="salad-1" viewBox="0 0 55.569 55.569"><title>salad-1</title><path style="fill:#88C057;" d="M41.971,27.098c1.551,0.368,3.246,0.36,5.054-0.403c3.108-1.311,5.318-4.292,5.387-7.665 c0.078-3.778-2.319-7-5.677-8.178c-0.236-3.43-3.086-6.14-6.575-6.14c-0.01,0-0.02,0.001-0.03,0.001 c0.062-0.519,0.027-1.068-0.141-1.641c-0.472-1.61-1.887-2.845-3.553-3.043c-1.366-0.162-2.62,0.327-3.499,1.196 C32.103,0.472,31.007,0,29.792,0c-2.603,0-4.713,2.11-4.713,4.713c0,0.008,0.002,0.016,0.002,0.024 c-3.164,0.24-5.658,2.878-5.658,6.103c0,0.493,0.064,0.97,0.174,1.429c-3.766,0.157-6.773,3.25-6.773,7.054 c0,1.289,0.35,2.493,0.953,3.534c-1.157,0.951-1.895,2.393-1.895,4.007c0,2.257,1.445,4.172,3.459,4.884 c-0.26,9.217,3.029,14.655,9.392,21.98c0.114,0.131,0.229,0.263,0.345,0.394c0.025,0.028,0.05,0.056,0.075,0.084 c2.646,2.969,8.614,0.695,7.33-3.069c-6.855-20.11,14.275-17.203,14.275-17.203s0.604-6.083-4.847-6.368 c0.007-0.152,0.014-0.305,0.021-0.457C41.946,27.106,41.957,27.101,41.971,27.098z"/><path style="fill:#659C35;" d="M25.154,54.206c-0.025-0.028-0.05-0.056-0.075-0.084c-0.116-0.131-0.231-0.262-0.345-0.394 c-6.364-7.325-9.653-12.763-9.392-21.98c-2.014-0.712-3.459-2.627-3.459-4.884c0-1.615,0.738-3.056,1.895-4.007 c-0.602-1.041-0.953-2.245-0.953-3.534c0-3.804,3.007-6.898,6.773-7.054c-0.11-0.459-0.174-0.936-0.174-1.429 c0-2.562,1.576-4.748,3.809-5.662c-0.148-0.485-0.336-0.974-0.583-1.463c-1.232-2.441-3.4-3.974-5.379-3.652 c-1.631,0.265-2.772,1.596-3.263,3.386C12.64,2.528,11.122,2.17,9.751,2.653c-2.939,1.035-3.866,5.261-2.183,9.175 c0.005,0.012,0.012,0.022,0.017,0.034c-3.186,1.522-4.033,6.047-2.013,10.129c0.295,0.595,0.638,1.142,1.012,1.647 c-3.519,1.455-4.448,5.873-2.232,9.734c0.708,1.234,1.654,2.25,2.706,3.017C6.56,37.58,6.668,39.045,7.46,40.397 c1.063,1.816,3.058,2.894,4.926,2.881c3.283,6.447,7.311,8.948,13.41,11.536c0.064,0.027,0.128,0.054,0.192,0.08 C25.688,54.704,25.403,54.486,25.154,54.206z"/><path style="fill:#659C35;" d="M27.545,24.419c0.058-0.128,0.085-0.262,0.087-0.394c0.717-1.804,1.58-3.318,2.478-4.581 c4.484-0.932,7.867,0.469,7.942,0.501c0.131,0.058,0.267,0.084,0.399,0.084c0.385,0,0.752-0.224,0.917-0.598 c0.222-0.506-0.009-1.096-0.514-1.318c-0.139-0.06-2.898-1.238-6.865-0.949c1.938-2.021,3.639-2.938,3.893-3.066 c1.453-0.696,3.576,0.204,4.273,0.61c0.159,0.094,0.333,0.138,0.506,0.138c0.342,0,0.676-0.176,0.862-0.492 c0.28-0.476,0.123-1.088-0.354-1.369c-0.114-0.068-2.362-1.367-4.665-1.106c0.197-0.811,0.634-1.549,0.857-1.845 c0.335-0.438,0.251-1.065-0.188-1.4c-0.437-0.335-1.066-0.253-1.401,0.187c-0.063,0.081-1.375,1.821-1.372,3.824 c-1.455,0.891-5.214,3.592-7.844,9.02c-0.142,0.292-0.279,0.606-0.415,0.921c-2.728-1.865-2.279-5.183-2.254-5.344 c0.085-0.544-0.286-1.055-0.831-1.142c-0.544-0.087-1.058,0.285-1.145,0.83c-0.29,1.815,0.126,5.555,3.495,7.564 c-0.744,2.188-1.308,4.8-1.482,7.883c-0.02,0.097-0.024,0.191-0.016,0.287c-0.104,2.161-0.004,4.558,0.344,7.183 c-1.268-0.698-1.848-1.719-1.885-1.788c-0.261-0.485-0.863-0.67-1.349-0.414c-0.488,0.257-0.677,0.862-0.419,1.351 c0.053,0.101,1.25,2.314,4.017,3.169c0.721,3.956,2.006,8.398,4.084,13.383c0.685-0.045,1.352-0.226,1.942-0.52 c-0.003-0.008-0.002-0.017-0.005-0.026c-2.181-5.189-3.497-9.76-4.197-13.799c-0.004-0.024-0.006-0.047-0.011-0.07 c-0.52-3.03-0.689-5.753-0.591-8.192c1.4-2.387,5.515-2.483,5.557-2.484c0.552-0.009,0.993-0.462,0.985-1.014 c-0.008-0.548-0.453-0.986-0.999-0.986c-0.004,0-0.008,0-0.012,0c-0.163,0.002-3.014,0.064-5.276,1.482 c0.276-1.98,0.735-3.734,1.304-5.292C27.456,24.578,27.507,24.503,27.545,24.419z"/></symbol><symbol id="salad" viewBox="0 0 57.21 57.21"><title>salad</title><path style="fill:#E6E6E6;" d="M29.046,53.605H40c0.992,0,1.604-1.083,1.092-1.932l-0.01-0.017 c-0.709-1.177-0.847-2.657-0.215-3.877c0.552-1.066,1.449-1.946,2.579-2.486c7.719-3.686,13.193-7.804,13.762-16.206 c0.054-0.796-0.572-1.481-1.37-1.481l-26.791,0l-27.672,0c-0.798,0-1.424,0.685-1.37,1.481c0.569,8.401,6.042,12.52,13.762,16.206 c1.129,0.539,2.027,1.42,2.579,2.486c0.632,1.22,0.494,2.7-0.215,3.877l-0.01,0.017c-0.512,0.85,0.1,1.932,1.092,1.932H29.046z"/><path style="fill:#FFFFFF;" d="M36,47.605h-8.707c-0.552,0-1-0.447-1-1s0.448-1,1-1H36c0.552,0,1,0.447,1,1 S36.552,47.605,36,47.605z"/><path style="fill:#FFFFFF;" d="M24.386,47.605H21c-0.552,0-1-0.447-1-1s0.448-1,1-1h3.386c0.552,0,1,0.447,1,1 S24.938,47.605,24.386,47.605z"/><path style="fill:#FFFFFF;" d="M36,50.605H21c-0.552,0-1-0.447-1-1s0.448-1,1-1h15c0.552,0,1,0.447,1,1S36.552,50.605,36,50.605z"/><path style="fill:#D13834;" d="M41,3.605c-4.971,0-9,4.029-9,9c0,0.703,0.089,1.384,0.241,2.041c0.507,0.521,1.281,0.7,1.959,0.386 l0.392-0.181c1.091-0.505,2.352,0.223,2.46,1.42l0.039,0.43c0.076,0.836,0.738,1.499,1.575,1.574l0.43,0.039 c1.197,0.108,1.925,1.37,1.42,2.46l-0.181,0.392c-0.06,0.129-0.079,0.265-0.105,0.4c0.255,0.022,0.511,0.039,0.771,0.039 c4.971,0,9-4.03,9-9C50,7.634,45.971,3.605,41,3.605z"/><path style="fill:#436B1C;" d="M49.974,13.119c-0.268,4.73-4.177,8.486-8.974,8.486c-0.26,0-0.518-0.012-0.773-0.034 c-0.127,0.658,0.114,1.345,0.682,1.745l0.354,0.25c0.982,0.692,0.982,2.149-0.001,2.84l-0.353,0.249 c-0.321,0.226-0.534,0.548-0.645,0.901c0.014,0.016,0.026,0.033,0.04,0.049h13.389c1.429-1.593,2.305-3.692,2.305-6 C56,17.678,53.481,14.348,49.974,13.119z"/><path style="fill:#ED3F32;" d="M39.586,12.191c-0.256,0-0.512-0.098-0.707-0.293L36.05,9.07c-0.391-0.391-0.391-1.023,0-1.414 c0.391-0.391,1.023-0.391,1.414,0l2.829,2.828c0.391,0.391,0.391,1.023,0,1.414C40.098,12.093,39.842,12.191,39.586,12.191z"/><path style="fill:#ED3F32;" d="M45.243,17.847c-0.256,0-0.512-0.098-0.707-0.293l-2.829-2.828c-0.391-0.391-0.391-1.023,0-1.414 s1.023-0.391,1.414,0l2.829,2.828c0.39,0.391,0.391,1.023,0,1.414C45.754,17.75,45.499,17.847,45.243,17.847z"/><path style="fill:#ED3F32;" d="M42.414,12.191c-0.256,0-0.512-0.098-0.707-0.293c-0.391-0.391-0.391-1.023,0-1.414l2.829-2.828 c0.391-0.391,1.023-0.391,1.414,0c0.391,0.391,0.39,1.023,0,1.414l-2.829,2.828C42.926,12.093,42.67,12.191,42.414,12.191z"/><path style="fill:#ED3F32;" d="M37.257,17.347c-0.256,0-0.512-0.098-0.707-0.293c-0.391-0.391-0.391-1.023,0-1.414l2.329-2.328 c0.391-0.391,1.023-0.391,1.414,0s0.391,1.023,0,1.414l-2.329,2.328C37.769,17.25,37.513,17.347,37.257,17.347z"/><path style="fill:#659C35;" d="M53,21.605h-4c-0.553,0-1-0.447-1-1s0.447-1,1-1h4c0.553,0,1,0.447,1,1S53.553,21.605,53,21.605z"/><path style="fill:#659C35;" d="M47,27.605c-0.553,0-1-0.447-1-1v-4c0-0.553,0.447-1,1-1s1,0.447,1,1v4 C48,27.158,47.553,27.605,47,27.605z"/><path style="fill:#88C057;" d="M23.461,18.387c0.972,0.303,1.505,1.414,1.054,2.388l-0.181,0.392 c-0.353,0.762-0.11,1.667,0.576,2.15l0.354,0.25c0.982,0.692,0.982,2.149-0.001,2.84l-0.353,0.249 c-0.337,0.237-0.563,0.577-0.669,0.951h4.804h11.196c0.105-0.374,0.332-0.713,0.669-0.951l0.353-0.249 c0.982-0.692,0.983-2.148,0.001-2.84l-0.354-0.25c-0.686-0.483-0.928-1.388-0.576-2.15l0.181-0.392 c0.505-1.091-0.223-2.352-1.42-2.46l-0.43-0.039c-0.836-0.076-1.499-0.738-1.575-1.574l-0.039-0.43 c-0.108-1.197-1.37-1.925-2.46-1.42L34.2,15.032c-0.762,0.353-1.667,0.11-2.15-0.576l-0.249-0.353 c-0.692-0.983-2.149-0.983-2.841,0l-0.249,0.353c-0.483,0.686-1.388,0.929-2.15,0.576l-0.392-0.182 c-1.091-0.505-2.352,0.224-2.46,1.42l-0.039,0.43c-0.04,0.442-0.24,0.937-0.393,1.26C23.197,18.131,23.282,18.331,23.461,18.387z"/><path style="fill:#A46F3E;" d="M12.545,13.88l5.76-8.175c0.95-1.349,2.832-1.675,4.18-0.724l0,0c1.349,0.95,1.675,2.832,0.724,4.18 l-5.76,8.175c-0.95,1.349-2.832,1.675-4.18,0.724l0,0C11.92,17.11,11.594,15.229,12.545,13.88z"/><path style="fill:#FBD490;" d="M25.263,23.565l-0.353-0.249c-0.686-0.483-0.929-1.388-0.576-2.15l0.181-0.392 c0.505-1.091-0.224-2.352-1.42-2.46l-0.43-0.039c-0.836-0.076-1.499-0.738-1.574-1.574l-0.039-0.43 c-0.085-0.938-0.88-1.579-1.744-1.573l-1.858,2.637c-0.95,1.349-2.832,1.675-4.18,0.724h0c-1.007-0.71-1.443-1.938-1.204-3.077 c-0.461,0.233-1.008,0.278-1.504,0.049l-0.392-0.182c-1.091-0.505-2.352,0.224-2.46,1.42l-0.039,0.43 c-0.076,0.836-0.738,1.499-1.574,1.574l-0.43,0.039c-1.197,0.108-1.925,1.37-1.42,2.46l0.181,0.392 c0.353,0.762,0.11,1.667-0.576,2.15l-0.353,0.249c-0.982,0.692-0.982,2.149,0,2.841l0.353,0.249 c0.337,0.237,0.563,0.577,0.668,0.95h19.722c0.105-0.374,0.332-0.713,0.668-0.95l0.353-0.249 C26.246,25.714,26.246,24.257,25.263,23.565z"/><path style="fill:#436B1C;" d="M29.5,21.105c-0.256,0-0.512-0.098-0.707-0.293c-0.391-0.391-0.391-1.023,0-1.414l1.5-1.5 c0.391-0.391,1.023-0.391,1.414,0s0.391,1.023,0,1.414l-1.5,1.5C30.012,21.007,29.756,21.105,29.5,21.105z"/><path style="fill:#436B1C;" d="M35,23.605c-0.256,0-0.512-0.098-0.707-0.293l-1-1c-0.391-0.391-0.391-1.023,0-1.414 s1.023-0.391,1.414,0l1,1c0.391,0.391,0.391,1.023,0,1.414C35.512,23.507,35.256,23.605,35,23.605z"/><path style="fill:#436B1C;" d="M30,25.605c-0.256,0-0.512-0.098-0.707-0.293c-0.391-0.391-0.391-1.023,0-1.414l1-1 c0.391-0.391,1.023-0.391,1.414,0s0.391,1.023,0,1.414l-1,1C30.512,25.507,30.256,25.605,30,25.605z"/></symbol><symbol id="carrot" viewBox="0 0 56.538 56.538"><title>carrot</title><path style="fill:#88C057;" d="M34.685,22.808c0,0,12.342-7.316,20.178,3.022c0,0,2.032,2.35,0.47,4.6 c-1.537,2.212-4.968,1.742-6.676-0.603C47.116,27.712,43.403,25.027,34.685,22.808z"/><path style="fill:#88C057;" d="M34.685,22.808c0,0,7.506-12.152-2.145-19.301c0,0-3.185-2.863-6.062-1.844 c-2.676,0.947-2.746,4.678-0.284,6.089C28.892,9.299,32.588,13.163,34.685,22.808z"/><path style="fill:#88C057;" d="M54.604,26.466c0,0,0.067,0.086,0.155,0.205c0.257-0.23,0.506-0.478,0.732-0.768 c2.084-2.67,0.414-4.736,0.414-4.736c-6.186-9.306-20.584,0.807-20.584,0.807c0.693,0.048,1.341,0.11,1.968,0.176 C41.406,20.648,49.11,19.218,54.604,26.466z"/><path style="fill:#A4E869;" d="M32.541,3.507c7.445,5.514,4.681,14.002,3.028,17.596c0.003,0.081,0.009,0.154,0.012,0.235 c0,0,10.275-14.236,1.555-19.836c0,0-2.779-2.377-5.999-0.74c-0.553,0.281-1.03,0.645-1.428,1.056 C31.32,2.412,32.541,3.507,32.541,3.507z"/><path style="fill:#659C35;" d="M50.459,6.131c-3.647-2.363-8.276,1.205-8.276,1.205c-0.768,0.92-1.465,1.91-2.108,2.927 c-0.638,4.649-3.667,9.674-5.173,11.934c-0.089,0.314-0.164,0.589-0.216,0.787c1.745-1.172,6.828-4.343,11.824-5.164 c1.24-0.822,2.422-1.725,3.451-2.705C55.476,9.864,50.459,6.131,50.459,6.131z"/><path style="fill:#A4E869;" d="M34.685,22.808c0,0,12.342-7.316,20.178,3.022c0,0,2.032,2.35,0.47,4.6 c-1.537,2.212-4.968,1.742-6.676-0.603C47.116,27.712,43.403,25.027,34.685,22.808z"/><g> <path style="fill:#F2681C;" d="M35.376,21.701c-0.281,0.547-0.472,0.857-0.472,0.857s0.468-0.276,1.272-0.643 C35.915,21.843,35.652,21.772,35.376,21.701z"/> <path style="fill:#ED8F20;" d="M41.809,28.277c0.421-1.172,0.395-2.334,0.132-3.429c-1.879-0.789-4.186-1.565-7.037-2.29 c-0.691-3.177-1.556-5.716-2.501-7.762c-1.303-0.453-2.728-0.614-4.17-0.096C23.708,16.326,3.81,44.955,0.089,54.937 c-0.35,0.939,0.387,1.675,1.325,1.325C11.396,52.541,40.183,32.801,41.809,28.277z"/> </g><g> <path style="fill:#DD7017;" d="M8.236,46.857c-0.674-0.322-1.329-0.715-1.947-1.168c-0.446-0.328-1.071-0.23-1.397,0.215 s-0.23,1.071,0.215,1.397c0.718,0.527,1.481,0.985,2.267,1.36c0.139,0.066,0.286,0.098,0.431,0.098 c0.373,0,0.731-0.21,0.903-0.569C8.945,47.692,8.734,47.094,8.236,46.857z"/> <path style="fill:#DD7017;" d="M39.161,27.824c-2.046-0.78-3.945-2.182-5.642-4.167c-0.359-0.42-0.99-0.469-1.41-0.11 c-0.42,0.359-0.469,0.99-0.11,1.41c1.917,2.242,4.087,3.836,6.45,4.737c0.117,0.044,0.237,0.066,0.356,0.066 c0.403,0,0.782-0.246,0.935-0.645C39.936,28.599,39.677,28.021,39.161,27.824z"/> <g> <path style="fill:#DD7017;" d="M22.722,19.948c0.389,0.101,0.701,0.428,0.748,0.854c0.179,1.632,1.022,3.747,2.505,4.792 c0.451,0.318,0.559,0.942,0.24,1.394c-0.194,0.276-0.504,0.423-0.818,0.423c-0.199,0-0.4-0.059-0.576-0.183 c-2.001-1.411-2.996-3.947-3.284-5.847"/> <path style="fill:#DD7017;" d="M24.821,27.228c0.175,0.124,0.376,0.183,0.576,0.183c0.314,0,0.624-0.147,0.818-0.423 c0.318-0.452,0.211-1.075-0.24-1.394c-1.482-1.046-2.326-3.161-2.505-4.792c-0.047-0.425-0.359-0.753-0.748-0.854 c-0.385,0.457-0.779,0.931-1.185,1.432C21.825,23.281,22.82,25.817,24.821,27.228z"/> </g> <g> <path style="fill:#DD7017;" d="M30.348,38.578c-1.89-0.306-4.369-1.302-5.758-3.271c-0.318-0.451-0.21-1.075,0.241-1.394 c0.45-0.318,1.075-0.21,1.394,0.241c1.045,1.481,3.16,2.326,4.792,2.505c0.438,0.048,0.766,0.375,0.856,0.782"/> <path style="fill:#DD7017;" d="M31.018,36.659c-1.633-0.179-3.748-1.023-4.792-2.505c-0.318-0.451-0.944-0.56-1.394-0.241 c-0.452,0.318-0.56,0.942-0.241,1.394c1.389,1.969,3.868,2.965,5.758,3.271c0.519-0.383,1.028-0.761,1.525-1.136 C31.784,37.034,31.455,36.707,31.018,36.659z"/> </g> <g> <path style="fill:#DD7017;" d="M14.756,30.41c0.399,0.094,0.72,0.424,0.768,0.856c0.112,1.025,0.635,2.349,1.549,2.995 c0.451,0.318,0.559,0.942,0.24,1.394c-0.195,0.276-0.504,0.423-0.818,0.423c-0.199,0-0.4-0.059-0.576-0.183 c-1.328-0.937-2.04-2.56-2.299-3.865"/> <path style="fill:#DD7017;" d="M15.92,35.895c0.175,0.124,0.376,0.183,0.576,0.183c0.314,0,0.623-0.147,0.818-0.423 c0.318-0.451,0.211-1.075-0.24-1.394c-0.915-0.646-1.437-1.969-1.549-2.995c-0.047-0.433-0.368-0.763-0.768-0.856 c-0.379,0.535-0.757,1.075-1.136,1.62C13.88,33.335,14.592,34.958,15.92,35.895z"/> </g> <g> <path style="fill:#DD7017;" d="M18.024,47.047c-1.357-0.177-3.244-0.888-4.285-2.365c-0.318-0.452-0.211-1.075,0.24-1.394 c0.452-0.32,1.076-0.21,1.394,0.24c0.646,0.915,1.969,1.437,2.994,1.549c0.549,0.06,0.945,0.554,0.885,1.103 c-0.003,0.031-0.02,0.057-0.026,0.087"/> <path style="fill:#DD7017;" d="M18.367,45.078c-1.025-0.112-2.349-0.635-2.994-1.549c-0.318-0.451-0.941-0.56-1.394-0.24 c-0.451,0.318-0.559,0.942-0.24,1.394c1.042,1.477,2.928,2.188,4.285,2.365c0.4-0.257,0.801-0.518,1.202-0.779 c0.006-0.03,0.023-0.056,0.026-0.087C19.313,45.633,18.916,45.138,18.367,45.078z"/> </g> </g></symbol><symbol id="cheese" viewBox="0 0 51.615 51.615"><title>cheese</title><path style="fill:#EEAF4B;" d="M47.923,33.056c0.388-0.431,0.935-0.702,1.587-0.755c0.217-0.018,0.446-0.011,0.685,0.021 c0.198,0.027,0.394,0.077,0.587,0.14c0.178,0.054,0.352,0.127,0.525,0.206v-2.234c0-1.875-0.871-3.644-2.357-4.788L31.54,9.176 c-0.549,0.451-1.343,0.605-2.237,0.329c-1.654-0.512-2.995-2.268-2.995-3.923c0-0.426,0.091-0.801,0.251-1.118l-2.98-2.819 C21.407-0.01,18.97-0.37,17.308,0.357L2.479,7.51c-1.341,0.579-2.172,1.94-2.172,3.44c0,0.012,0,0.012,0,0.009v15.747 c0.463-0.085,0.976-0.066,1.527,0.105c1.918,0.594,3.473,2.63,3.473,4.548s-1.555,2.992-3.473,2.398 c-0.551-0.17-1.064-0.469-1.527-0.841v2.163c0,1.688,1.149,3.159,2.786,3.568l43.644,12.857c2.321,0.58,4.57-1.175,4.57-3.568 v-8.341l-0.001,0c-0.939-0.152-1.85-0.677-2.567-1.417c-0.016-0.016-0.029-0.035-0.044-0.052c-0.161-0.17-0.314-0.347-0.453-0.536 c-0.046-0.062-0.081-0.131-0.124-0.195c-0.1-0.15-0.203-0.298-0.287-0.457c-0.067-0.125-0.115-0.258-0.171-0.388 c-0.045-0.105-0.101-0.208-0.138-0.315c-0.084-0.242-0.148-0.489-0.189-0.739c-0.041-0.252-0.057-0.494-0.05-0.725 c0.014-0.462,0.122-0.879,0.307-1.233C47.682,33.36,47.794,33.199,47.923,33.056z"/><path style="fill:#FCDF76;" d="M50.196,32.322c0.379,0.052,0.751,0.181,1.112,0.346v-2.235c0-1.735-1.212-3.233-2.908-3.596 l-19.167-5.708c0.01,0.103,0.03,0.206,0.03,0.308c0,1.655-1.341,2.581-2.995,2.068c-1.654-0.512-2.995-2.268-2.995-3.923 c0-0.078,0.017-0.147,0.023-0.222L2.244,13.091c-1.171-0.225-1.746-1.116-1.871-2.126L0.308,10.95v15.755 c0.463-0.085,0.976-0.066,1.527,0.105c1.918,0.594,3.473,2.63,3.473,4.548s-1.555,2.992-3.473,2.398 c-0.551-0.17-1.064-0.469-1.527-0.841v2.163c0,1.688,1.149,3.159,2.786,3.568l43.644,12.857c2.321,0.58,4.57-1.175,4.57-3.568 v-8.341c-1.88-0.304-3.649-2.115-3.975-4.099C47.002,33.482,48.284,32.061,50.196,32.322z"/><path style="fill:#F4C44E;" d="M26.124,32.007c0,2.254-1.827,3.515-4.081,2.818c-2.254-0.698-4.081-3.09-4.081-5.344 s1.827-3.515,4.081-2.818S26.124,29.753,26.124,32.007z"/><path style="fill:#EEAF4B;" d="M22.043,26.663c-1.672-0.518-3.106,0.047-3.736,1.292c0.63,1.635,2.064,3.087,3.736,3.605 s3.106-0.047,3.736-1.292C25.149,28.633,23.715,27.18,22.043,26.663z"/><path style="fill:#F4C44E;" d="M43.021,37.539c0,1.578-1.279,2.461-2.857,1.972c-1.578-0.488-2.857-2.163-2.857-3.741 c0-1.578,1.279-2.461,2.857-1.972C41.742,34.287,43.021,35.962,43.021,37.539z"/><path style="fill:#EEAF4B;" d="M15.021,35.539c0,1.578-1.279,2.461-2.857,1.972s-2.857-2.163-2.857-3.741 c0-1.578,1.279-2.461,2.857-1.972S15.021,33.962,15.021,35.539z"/><path style="fill:#EEAF4B;" d="M35.021,43.165c0,1.025-0.831,1.599-1.857,1.282c-1.025-0.317-1.857-1.406-1.857-2.431 s0.831-1.599,1.857-1.282C34.19,41.051,35.021,42.139,35.021,43.165z"/><path style="fill:#EEAF4B;" d="M34.308,31.277c0,1.025-0.831,1.599-1.857,1.282c-1.025-0.317-1.857-1.406-1.857-2.431 s0.831-1.599,1.857-1.282C33.476,29.163,34.308,30.251,34.308,31.277z"/><path style="fill:#F4C44E;" d="M9.308,20.775c0,1.127-0.914,1.758-2.04,1.409c-1.127-0.349-2.04-1.545-2.04-2.672 s0.914-1.758,2.04-1.409S9.308,19.648,9.308,20.775z"/><path style="fill:#F4C44E;" d="M29.263,21.437c0,1.654-1.341,2.58-2.995,2.068c-1.654-0.512-2.995-2.268-2.995-3.923 c0-1.654,1.341-2.58,2.995-2.068C27.921,18.026,29.263,19.782,29.263,21.437z"/></symbol></svg>