<svg xmlns="http://www.w3.org/2000/svg" xmlns:xlink="http://www.w3.org/1999/xlink" viewBox="0 0 16 20" version="1.1" x="0px" y="0px"><title>Star,Round,Favorite,Rank,Rate</title><desc>Created with Sketch.</desc><g stroke="none" stroke-width="1" fill="none" fill-rule="evenodd"><path d="M7.30198831,13.3020786 C7.73897435,13.0723414 8.26102565,13.0723414 8.69801169,13.3020786 L11.7292657,14.8957031 C11.8265959,14.9468727 11.93808,14.96453 12.0464588,14.9459416 C12.318627,14.8992611 12.5014209,14.6407831 12.4547404,14.3686149 L11.8758224,10.993264 C11.7923655,10.5066729 11.9536882,10.0101726 12.3072174,9.66556683 L14.7595534,7.27513003 C14.8382952,7.19837573 14.8895388,7.09780453 14.905351,6.98898601 C14.9450598,6.71571358 14.7557191,6.46199215 14.4824467,6.42228334 L11.0934017,5.92982628 C10.6048364,5.8588336 10.1824881,5.55197954 9.96399503,5.10926433 L8.44836804,2.03826861 C8.39970292,1.9396623 8.31988916,1.85984854 8.22128286,1.81118342 C7.97365603,1.68897228 7.67384311,1.79064178 7.55163196,2.03826861 L6.03600497,5.10926433 C5.81751195,5.55197954 5.39516357,5.8588336 4.90659833,5.92982628 L1.51755334,6.42228334 C1.40873482,6.4380956 1.30816362,6.48933919 1.23140931,6.56808101 C1.03865871,6.7658228 1.04270486,7.08237943 1.24044665,7.27513003 L3.69278264,9.66556683 C4.04631177,10.0101726 4.2076345,10.5066729 4.12417759,10.993264 L3.54525959,14.3686149 C3.52667117,14.4769937 3.54432851,14.5884777 3.59549804,14.685808 C3.72399845,14.9302303 4.02631203,15.0242035 4.27073432,14.8957031 L7.30198831,13.3020786 Z M4.73607545,15.7808346 C4.00280857,16.1663358 3.09586783,15.884416 2.71036662,15.1511491 C2.55685802,14.8591584 2.503886,14.5247063 2.55965127,14.1995698 L3.13856927,10.8242189 C3.16638824,10.6620219 3.11261399,10.4965218 2.99477095,10.3816532 L0.542434959,7.9912164 C-0.050790408,7.41296458 -0.0629288677,6.46329468 0.51532295,5.87006932 C0.745585857,5.63384386 1.04729947,5.4801131 1.37375502,5.43267633 L4.76280001,4.94021927 C4.92565509,4.91655504 5.06643788,4.81427035 5.13926889,4.66669861 L6.65489589,1.59570289 C7.02152932,0.852822405 7.92096808,0.547813907 8.66384857,0.914447347 C8.95966747,1.06044271 9.19910876,1.29988399 9.34510411,1.59570289 L10.8607311,4.66669861 C10.9335621,4.81427035 11.0743449,4.91655504 11.2372,4.94021927 L14.626245,5.43267633 C15.4460623,5.55180276 16.0140845,6.31296703 15.894958,7.13278433 C15.8475213,7.45923987 15.6937905,7.76095349 15.457565,7.9912164 L13.005229,10.3816532 C12.887386,10.4965218 12.8336118,10.6620219 12.8614307,10.8242189 L13.4403487,14.1995698 C13.5803902,15.0160745 13.0320085,15.7915084 12.2155038,15.9315499 C11.8903674,15.9873152 11.5559153,15.9343432 11.2639246,15.7808346 L8.23267056,14.18721 C8.08700855,14.110631 7.91299145,14.110631 7.76732944,14.18721 L4.73607545,15.7808346 Z" fill="#000000" fill-rule="nonzero"/></g><text x="0" y="31" fill="#000000" font-size="5px" font-weight="bold" font-family="'Helvetica Neue', Helvetica, Arial-Unicode, Arial, Sans-serif">Created by iconfun</text><text x="0" y="36" fill="#000000" font-size="5px" font-weight="bold" font-family="'Helvetica Neue', Helvetica, Arial-Unicode, Arial, Sans-serif">from the Noun Project</text></svg>