<svg xmlns="http://www.w3.org/2000/svg" xmlns:xlink="http://www.w3.org/1999/xlink" version="1.1" x="0px" y="0px" viewBox="0 0 100 125" style="enable-background:new 0 0 100 100;" xml:space="preserve"><path d="M91.6,42.5h-4.9l-6.8-19.3c-0.1-0.2-0.3-0.5-0.5-0.6c-0.2-0.1-0.5-0.1-0.8,0l-13.2,4.7c-0.5,0.2-0.8,0.8-0.6,1.3l0.8,2.2  H43.6c-0.6,0-1,0.4-1,1v10.8h-4.2v-7.8c0-0.6-0.4-1-1-1h-4.1c-9,0-15.1,5.3-15.1,13.1v2.2c-7.3,0.2-10.8,5.6-10.8,9.3v11.1  c0,0.6,0.4,1,1,1h7.9c0.5,3.8,3.8,6.8,7.8,6.8s7.3-3,7.8-6.8h36.8c0.5,3.8,3.8,6.8,7.8,6.8c4,0,7.3-3,7.8-6.8h7.4c0.6,0,1-0.4,1-1  v-5.9c0-0.6-0.4-1-1-1h-1.2v-2.1h1.2c0.6,0,1-0.4,1-1v-5.9c0-0.6-0.4-1-1-1h-1.2v-2.1h1.2c0.6,0,1-0.4,1-1v-5.9  C92.6,43,92.1,42.5,91.6,42.5z M78.3,24.8l6.3,17.7H71.8l-4.8-13.7L78.3,24.8z M69.7,42.5h-2.4v-6.9L69.7,42.5z M44.6,32.7h20.6v9.8  H44.6V32.7z M68.6,68.4H38.4v-3.9h31.9C69.4,65.6,68.8,66.9,68.6,68.4z M9.4,58.3c0-2.9,3-7.3,9.3-7.3c0.1,0,0.2,0,0.2,0  c0.1,0,0.2,0,0.2,0c0.6,0,1-0.4,1-1v-3.2c0-7.7,6.6-11.1,13.1-11.1h3.1v32.7h-4.5c-0.5-3.9-3.8-6.9-7.8-6.9s-7.3,3-7.8,6.9H9.4V58.3  z M24.1,75.2c-3.2,0-5.9-2.6-5.9-5.9s2.6-5.9,5.9-5.9s5.9,2.6,5.9,5.9S27.3,75.2,24.1,75.2z M76.4,75.2c-3.2,0-5.9-2.6-5.9-5.9  s2.6-5.9,5.9-5.9s5.9,2.6,5.9,5.9S79.6,75.2,76.4,75.2z M90.6,68.4h-6.4c-0.2-1.5-0.8-2.8-1.6-3.9h8V68.4z M88.4,62.5h-8.1  c-1.1-0.6-2.4-1-3.8-1c-1.4,0-2.7,0.4-3.9,1c-0.1,0-0.1,0-0.2,0H38.4v-2.1h50V62.5z M90.6,58.4H38.4v-3.9h52.2V58.4z M88.4,52.5h-50  v-2.1h50V52.5z M90.6,48.4H38.4v-3.9h52.2V48.4z"/><path d="M23.2,51h10.3c0.6,0,1-0.4,1-1V39.1c0-0.6-0.4-1-1-1h-1.5c-5.4,0-9.8,4.4-9.8,9.8V50C22.2,50.6,22.6,51,23.2,51z M24.2,47.9  c0-4.3,3.5-7.8,7.8-7.8h0.5V49h-8.3V47.9z"/><text x="0" y="115" fill="#000000" font-size="5px" font-weight="bold" font-family="'Helvetica Neue', Helvetica, Arial-Unicode, Arial, Sans-serif">Created by Made by Made</text><text x="0" y="120" fill="#000000" font-size="5px" font-weight="bold" font-family="'Helvetica Neue', Helvetica, Arial-Unicode, Arial, Sans-serif">from the Noun Project</text></svg>